<?xml version="1.0" encoding="UTF-8" standalone="no"?><svg xmlns="http://www.w3.org/2000/svg" xmlns:xlink="http://www.w3.org/1999/xlink" clip-rule="evenodd" stroke-miterlimit="10" viewBox="0 0 1024 768"><desc>SVG generated by Keynote</desc><defs></defs><g transform="matrix(1.00, 0.00, -0.00, -1.00, 0.0, 768.0)"><path d="M 0.0 768.0 L 1024.0 768.0 L 1024.0 0.0 L 0.0 0.0 Z M 0.0 768.0 " fill="#FEFFFF"></path><g><clipPath id="clip0x7f9157caa1e0"><path d="M -4.0 769.0 L 501.0 769.0 L 501.0 1.0 L -4.0 1.0 Z M -4.0 769.0 "></path></clipPath><g clip-path="url(#clip0x7f9157caa1e0)"><image xlink:href="../../E91EBEE5-77D8-4921-8445-BE408C0A868F/assets/D02A02B3EE974CB70A615EA22A8864DF.jpeg" width="1024.00" height="768.00" transform="matrix(1.10, 0.00, -0.00, -1.10, -380.0, 778.2)"></image></g></g><g><clipPath id="clip0x7f9157d45280"><path d="M 499.0 767.0 L 1024.0 767.0 L 1024.0 -1.0 L 499.0 -1.0 Z M 499.0 767.0 "></path></clipPath><g clip-path="url(#clip0x7f9157d45280)"><image xlink:href="../../E91EBEE5-77D8-4921-8445-BE408C0A868F/assets/1FFB3AB99B80295AC55D697D44B1B002.jpeg" width="1024.00" height="768.00" transform="matrix(1.14, 0.00, -0.00, -1.14, 160.0, 870.0)"></image></g></g><text xml:space="preserve" font-family="CourierNewPS-BoldMT,Courier New" font-weight="bold" font-size="70.0" fill="#000000" transform="matrix(1.00, 0.00, -0.00, -1.00, 80.5, 650.0)">2</text><text xml:space="preserve" font-family="CourierNewPS-BoldMT,Courier New" font-weight="bold" font-size="70.0" fill="#000000" transform="matrix(1.00, 0.00, -0.00, -1.00, 122.5, 650.0)">2</text><text xml:space="preserve" font-family="CourierNewPS-BoldMT,Courier New" font-weight="bold" font-size="70.0" fill="#000000" transform="matrix(1.00, 0.00, -0.00, -1.00, 164.5, 650.0)">0</text><text xml:space="preserve" font-family="CourierNewPS-BoldMT,Courier New" font-weight="bold" font-size="70.0" fill="#000000" transform="matrix(1.00, 0.00, -0.00, -1.00, 206.5, 650.0)"> </text><text xml:space="preserve" font-family="CourierNewPS-BoldMT,Courier New" font-weight="bold" font-size="70.0" fill="#000000" transform="matrix(1.00, 0.00, -0.00, -1.00, 248.5, 650.0)">o</text><text xml:space="preserve" font-family="CourierNewPS-BoldMT,Courier New" font-weight="bold" font-size="70.0" fill="#000000" transform="matrix(1.00, 0.00, -0.00, -1.00, 290.5, 650.0)">h</text><text xml:space="preserve" font-family="CourierNewPS-BoldMT,Courier New" font-weight="bold" font-size="70.0" fill="#000000" transform="matrix(1.00, 0.00, -0.00, -1.00, 332.6, 650.0)">m</text><text xml:space="preserve" font-family="CourierNewPS-BoldMT,Courier New" font-weight="bold" font-size="70.0" fill="#000000" transform="matrix(1.00, 0.00, -0.00, -1.00, 374.6, 650.0)">s</text><text xml:space="preserve" font-family="CourierNewPS-BoldMT,Courier New" font-weight="bold" font-size="70.0" fill="#000000" transform="matrix(1.00, 0.00, -0.00, -1.00, 614.5, 60.0)">1</text><text xml:space="preserve" font-family="CourierNewPS-BoldMT,Courier New" font-weight="bold" font-size="70.0" fill="#000000" transform="matrix(1.00, 0.00, -0.00, -1.00, 656.5, 60.0)">K</text><text xml:space="preserve" font-family="CourierNewPS-BoldMT,Courier New" font-weight="bold" font-size="70.0" fill="#000000" transform="matrix(1.00, 0.00, -0.00, -1.00, 698.5, 60.0)"> </text><text xml:space="preserve" font-family="CourierNewPS-BoldMT,Courier New" font-weight="bold" font-size="70.0" fill="#000000" transform="matrix(1.00, 0.00, -0.00, -1.00, 740.5, 60.0)">o</text><text xml:space="preserve" font-family="CourierNewPS-BoldMT,Courier New" font-weight="bold" font-size="70.0" fill="#000000" transform="matrix(1.00, 0.00, -0.00, -1.00, 782.5, 60.0)">h</text><text xml:space="preserve" font-family="CourierNewPS-BoldMT,Courier New" font-weight="bold" font-size="70.0" fill="#000000" transform="matrix(1.00, 0.00, -0.00, -1.00, 824.5, 60.0)">m</text><text xml:space="preserve" font-family="CourierNewPS-BoldMT,Courier New" font-weight="bold" font-size="70.0" fill="#000000" transform="matrix(1.00, 0.00, -0.00, -1.00, 866.6, 60.0)">s</text></g></svg>