<?xml version="1.0" encoding="UTF-8" standalone="no"?><svg xmlns="http://www.w3.org/2000/svg" xmlns:xlink="http://www.w3.org/1999/xlink" clip-rule="evenodd" stroke-miterlimit="10" viewBox="0 0 1024 768"><desc>SVG generated by Keynote</desc><defs></defs><g transform="matrix(1.00, 0.00, -0.00, -1.00, 0.0, 768.0)"><path d="M 0.0 768.0 L 1024.0 768.0 L 1024.0 0.0 L 0.0 0.0 Z M 0.0 768.0 " fill="#FEFFFF"></path><g opacity="0.50"><g><clipPath id="clip0x7f91564cb4a0"><path d="M 0.0 0.0 L 1024.0 0.0 L 1024.0 768.0 L 0.0 768.0 Z M 0.0 0.0 "></path></clipPath><g clip-path="url(#clip0x7f91564cb4a0)"><image xlink:href="969FBC317936D5EE3ABB89C1700BD7F5.jpeg" width="1024.00" height="1365.00" transform="matrix(0.00, 0.76, 0.76, -0.00, -5.5, -4.0)"></image></g></g></g><path d="M -6.0 487.0 L 1029.0 487.0 L 1029.0 354.0 L -6.0 354.0 Z M -6.0 487.0 " fill="#00F900"></path><path d="M 0.0 0.0 L 1035.0 0.0 L 1035.0 133.0 L 0.0 133.0 Z M 0.0 0.0 " fill="none" stroke="#000000" stroke-opacity="0.00" stroke-width="2.00" transform="matrix(1.00, 0.00, 0.00, -1.00, -6.0, 487.0)"></path><text xml:space="preserve" font-family="CourierNewPSMT,Courier New" font-size="64.0" fill="#FEFFFF" transform="matrix(1.00, 0.00, -0.00, -1.00, 127.5, 403.7)">~</text><text xml:space="preserve" font-family="CourierNewPSMT,Courier New" font-size="64.0" fill="#FEFFFF" transform="matrix(1.00, 0.00, -0.00, -1.00, 165.9, 403.7)">*</text><text xml:space="preserve" font-family="CourierNewPS-BoldMT,Courier New" font-weight="bold" font-size="64.0" fill="#FEFFFF" transform="matrix(1.00, 0.00, -0.00, -1.00, 204.3, 403.7)">H</text><text xml:space="preserve" font-family="CourierNewPS-BoldMT,Courier New" font-weight="bold" font-size="64.0" fill="#FEFFFF" transform="matrix(1.00, 0.00, -0.00, -1.00, 242.8, 403.7)">o</text><text xml:space="preserve" font-family="CourierNewPS-BoldMT,Courier New" font-weight="bold" font-size="64.0" fill="#FEFFFF" transform="matrix(1.00, 0.00, -0.00, -1.00, 281.2, 403.7)">m</text><text xml:space="preserve" font-family="CourierNewPS-BoldMT,Courier New" font-weight="bold" font-size="64.0" fill="#FEFFFF" transform="matrix(1.00, 0.00, -0.00, -1.00, 319.6, 403.7)">e</text><text xml:space="preserve" font-family="CourierNewPS-BoldMT,Courier New" font-weight="bold" font-size="64.0" fill="#FEFFFF" transform="matrix(1.00, 0.00, -0.00, -1.00, 358.0, 403.7)">b</text><text xml:space="preserve" font-family="CourierNewPS-BoldMT,Courier New" font-weight="bold" font-size="64.0" fill="#FEFFFF" transform="matrix(1.00, 0.00, -0.00, -1.00, 396.4, 403.7)">r</text><text xml:space="preserve" font-family="CourierNewPS-BoldMT,Courier New" font-weight="bold" font-size="64.0" fill="#FEFFFF" transform="matrix(1.00, 0.00, -0.00, -1.00, 434.8, 403.7)">e</text><text xml:space="preserve" font-family="CourierNewPS-BoldMT,Courier New" font-weight="bold" font-size="64.0" fill="#FEFFFF" transform="matrix(1.00, 0.00, -0.00, -1.00, 473.2, 403.7)">w</text><text xml:space="preserve" font-family="CourierNewPS-BoldMT,Courier New" font-weight="bold" font-size="64.0" fill="#FEFFFF" transform="matrix(1.00, 0.00, -0.00, -1.00, 511.6, 403.7)"> </text><text xml:space="preserve" font-family="CourierNewPS-BoldMT,Courier New" font-weight="bold" font-size="64.0" fill="#FEFFFF" transform="matrix(1.00, 0.00, -0.00, -1.00, 550.1, 403.7)">S</text><text xml:space="preserve" font-family="CourierNewPS-BoldMT,Courier New" font-weight="bold" font-size="64.0" fill="#FEFFFF" transform="matrix(1.00, 0.00, -0.00, -1.00, 588.5, 403.7)">e</text><text xml:space="preserve" font-family="CourierNewPS-BoldMT,Courier New" font-weight="bold" font-size="64.0" fill="#FEFFFF" transform="matrix(1.00, 0.00, -0.00, -1.00, 626.9, 403.7)">n</text><text xml:space="preserve" font-family="CourierNewPS-BoldMT,Courier New" font-weight="bold" font-size="64.0" fill="#FEFFFF" transform="matrix(1.00, 0.00, -0.00, -1.00, 665.3, 403.7)">s</text><text xml:space="preserve" font-family="CourierNewPS-BoldMT,Courier New" font-weight="bold" font-size="64.0" fill="#FEFFFF" transform="matrix(1.00, 0.00, -0.00, -1.00, 703.7, 403.7)">o</text><text xml:space="preserve" font-family="CourierNewPS-BoldMT,Courier New" font-weight="bold" font-size="64.0" fill="#FEFFFF" transform="matrix(1.00, 0.00, -0.00, -1.00, 742.1, 403.7)">r</text><text xml:space="preserve" font-family="CourierNewPS-BoldMT,Courier New" font-weight="bold" font-size="64.0" fill="#FEFFFF" transform="matrix(1.00, 0.00, -0.00, -1.00, 780.5, 403.7)">s</text><text xml:space="preserve" font-family="CourierNewPSMT,Courier New" font-size="64.0" fill="#FEFFFF" transform="matrix(1.00, 0.00, -0.00, -1.00, 818.8, 403.7)">*</text><text xml:space="preserve" font-family="CourierNewPSMT,Courier New" font-size="64.0" fill="#FEFFFF" transform="matrix(1.00, 0.00, -0.00, -1.00, 857.3, 403.7)">~</text><text xml:space="preserve" font-family="CourierNewPS-BoldMT,Courier New" font-weight="bold" font-size="30.0" fill="#FEFFFF" transform="matrix(1.00, 0.00, -0.00, -1.00, 31.1, 209.5)">W</text><text xml:space="preserve" font-family="CourierNewPS-BoldMT,Courier New" font-weight="bold" font-size="30.0" fill="#FEFFFF" transform="matrix(1.00, 0.00, -0.00, -1.00, 49.1, 209.5)">h</text><text xml:space="preserve" font-family="CourierNewPS-BoldMT,Courier New" font-weight="bold" font-size="30.0" fill="#FEFFFF" transform="matrix(1.00, 0.00, -0.00, -1.00, 67.1, 209.5)">a</text><text xml:space="preserve" font-family="CourierNewPS-BoldMT,Courier New" font-weight="bold" font-size="30.0" fill="#FEFFFF" transform="matrix(1.00, 0.00, -0.00, -1.00, 85.1, 209.5)">t</text><text xml:space="preserve" font-family="CourierNewPS-BoldMT,Courier New" font-weight="bold" font-size="30.0" fill="#FEFFFF" transform="matrix(1.00, 0.00, -0.00, -1.00, 103.1, 209.5)"> </text><text xml:space="preserve" font-family="CourierNewPS-BoldMT,Courier New" font-weight="bold" font-size="30.0" fill="#FEFFFF" transform="matrix(1.00, 0.00, -0.00, -1.00, 121.1, 209.5)">i</text><text xml:space="preserve" font-family="CourierNewPS-BoldMT,Courier New" font-weight="bold" font-size="30.0" fill="#FEFFFF" transform="matrix(1.00, 0.00, -0.00, -1.00, 139.1, 209.5)">f</text><text xml:space="preserve" font-family="CourierNewPS-BoldMT,Courier New" font-weight="bold" font-size="30.0" fill="#FEFFFF" transform="matrix(1.00, 0.00, -0.00, -1.00, 157.1, 209.5)"> </text><text xml:space="preserve" font-family="CourierNewPS-BoldMT,Courier New" font-weight="bold" font-size="30.0" fill="#FEFFFF" transform="matrix(1.00, 0.00, -0.00, -1.00, 175.1, 209.5)">y</text><text xml:space="preserve" font-family="CourierNewPS-BoldMT,Courier New" font-weight="bold" font-size="30.0" fill="#FEFFFF" transform="matrix(1.00, 0.00, -0.00, -1.00, 193.1, 209.5)">o</text><text xml:space="preserve" font-family="CourierNewPS-BoldMT,Courier New" font-weight="bold" font-size="30.0" fill="#FEFFFF" transform="matrix(1.00, 0.00, -0.00, -1.00, 211.1, 209.5)">u</text><text xml:space="preserve" font-family="CourierNewPS-BoldMT,Courier New" font-weight="bold" font-size="30.0" fill="#FEFFFF" transform="matrix(1.00, 0.00, -0.00, -1.00, 229.2, 209.5)"> </text><text xml:space="preserve" font-family="CourierNewPS-BoldMT,Courier New" font-weight="bold" font-size="30.0" fill="#FEFFFF" transform="matrix(1.00, 0.00, -0.00, -1.00, 247.2, 209.5)"> </text><text xml:space="preserve" font-family="CourierNewPS-BoldMT,Courier New" font-weight="bold" font-size="30.0" fill="#FEFFFF" transform="matrix(1.00, 0.00, -0.00, -1.00, 31.1, 175.5)">c</text><text xml:space="preserve" font-family="CourierNewPS-BoldMT,Courier New" font-weight="bold" font-size="30.0" fill="#FEFFFF" transform="matrix(1.00, 0.00, -0.00, -1.00, 49.1, 175.5)">o</text><text xml:space="preserve" font-family="CourierNewPS-BoldMT,Courier New" font-weight="bold" font-size="30.0" fill="#FEFFFF" transform="matrix(1.00, 0.00, -0.00, -1.00, 67.1, 175.5)">u</text><text xml:space="preserve" font-family="CourierNewPS-BoldMT,Courier New" font-weight="bold" font-size="30.0" fill="#FEFFFF" transform="matrix(1.00, 0.00, -0.00, -1.00, 85.1, 175.5)">l</text><text xml:space="preserve" font-family="CourierNewPS-BoldMT,Courier New" font-weight="bold" font-size="30.0" fill="#FEFFFF" transform="matrix(1.00, 0.00, -0.00, -1.00, 103.1, 175.5)">d</text><text xml:space="preserve" font-family="CourierNewPS-BoldMT,Courier New" font-weight="bold" font-size="30.0" fill="#FEFFFF" transform="matrix(1.00, 0.00, -0.00, -1.00, 121.1, 175.5)"> </text><text xml:space="preserve" font-family="CourierNewPS-BoldMT,Courier New" font-weight="bold" font-size="30.0" fill="#FEFFFF" transform="matrix(1.00, 0.00, -0.00, -1.00, 139.1, 175.5)">c</text><text xml:space="preserve" font-family="CourierNewPS-BoldMT,Courier New" font-weight="bold" font-size="30.0" fill="#FEFFFF" transform="matrix(1.00, 0.00, -0.00, -1.00, 157.1, 175.5)">u</text><text xml:space="preserve" font-family="CourierNewPS-BoldMT,Courier New" font-weight="bold" font-size="30.0" fill="#FEFFFF" transform="matrix(1.00, 0.00, -0.00, -1.00, 175.1, 175.5)">s</text><text xml:space="preserve" font-family="CourierNewPS-BoldMT,Courier New" font-weight="bold" font-size="30.0" fill="#FEFFFF" transform="matrix(1.00, 0.00, -0.00, -1.00, 193.1, 175.5)">t</text><text xml:space="preserve" font-family="CourierNewPS-BoldMT,Courier New" font-weight="bold" font-size="30.0" fill="#FEFFFF" transform="matrix(1.00, 0.00, -0.00, -1.00, 211.1, 175.5)">o</text><text xml:space="preserve" font-family="CourierNewPS-BoldMT,Courier New" font-weight="bold" font-size="30.0" fill="#FEFFFF" transform="matrix(1.00, 0.00, -0.00, -1.00, 229.2, 175.5)">m</text><text xml:space="preserve" font-family="CourierNewPS-BoldMT,Courier New" font-weight="bold" font-size="30.0" fill="#FEFFFF" transform="matrix(1.00, 0.00, -0.00, -1.00, 247.2, 175.5)"> </text><text xml:space="preserve" font-family="CourierNewPS-BoldMT,Courier New" font-weight="bold" font-size="30.0" fill="#FEFFFF" transform="matrix(1.00, 0.00, -0.00, -1.00, 265.2, 175.5)"> </text><text xml:space="preserve" font-family="CourierNewPS-BoldMT,Courier New" font-weight="bold" font-size="30.0" fill="#FEFFFF" transform="matrix(1.00, 0.00, -0.00, -1.00, 31.1, 141.5)">c</text><text xml:space="preserve" font-family="CourierNewPS-BoldMT,Courier New" font-weight="bold" font-size="30.0" fill="#FEFFFF" transform="matrix(1.00, 0.00, -0.00, -1.00, 49.1, 141.5)">r</text><text xml:space="preserve" font-family="CourierNewPS-BoldMT,Courier New" font-weight="bold" font-size="30.0" fill="#FEFFFF" transform="matrix(1.00, 0.00, -0.00, -1.00, 67.1, 141.5)">a</text><text xml:space="preserve" font-family="CourierNewPS-BoldMT,Courier New" font-weight="bold" font-size="30.0" fill="#FEFFFF" transform="matrix(1.00, 0.00, -0.00, -1.00, 85.1, 141.5)">f</text><text xml:space="preserve" font-family="CourierNewPS-BoldMT,Courier New" font-weight="bold" font-size="30.0" fill="#FEFFFF" transform="matrix(1.00, 0.00, -0.00, -1.00, 103.1, 141.5)">t</text><text xml:space="preserve" font-family="CourierNewPS-BoldMT,Courier New" font-weight="bold" font-size="30.0" fill="#FEFFFF" transform="matrix(1.00, 0.00, -0.00, -1.00, 121.1, 141.5)"> </text><text xml:space="preserve" font-family="CourierNewPS-BoldMT,Courier New" font-weight="bold" font-size="30.0" fill="#FEFFFF" transform="matrix(1.00, 0.00, -0.00, -1.00, 139.1, 141.5)">s</text><text xml:space="preserve" font-family="CourierNewPS-BoldMT,Courier New" font-weight="bold" font-size="30.0" fill="#FEFFFF" transform="matrix(1.00, 0.00, -0.00, -1.00, 157.1, 141.5)">e</text><text xml:space="preserve" font-family="CourierNewPS-BoldMT,Courier New" font-weight="bold" font-size="30.0" fill="#FEFFFF" transform="matrix(1.00, 0.00, -0.00, -1.00, 175.1, 141.5)">n</text><text xml:space="preserve" font-family="CourierNewPS-BoldMT,Courier New" font-weight="bold" font-size="30.0" fill="#FEFFFF" transform="matrix(1.00, 0.00, -0.00, -1.00, 193.1, 141.5)">s</text><text xml:space="preserve" font-family="CourierNewPS-BoldMT,Courier New" font-weight="bold" font-size="30.0" fill="#FEFFFF" transform="matrix(1.00, 0.00, -0.00, -1.00, 211.1, 141.5)">o</text><text xml:space="preserve" font-family="CourierNewPS-BoldMT,Courier New" font-weight="bold" font-size="30.0" fill="#FEFFFF" transform="matrix(1.00, 0.00, -0.00, -1.00, 229.2, 141.5)">r</text><text xml:space="preserve" font-family="CourierNewPS-BoldMT,Courier New" font-weight="bold" font-size="30.0" fill="#FEFFFF" transform="matrix(1.00, 0.00, -0.00, -1.00, 247.2, 141.5)">s</text><text xml:space="preserve" font-family="CourierNewPS-BoldMT,Courier New" font-weight="bold" font-size="30.0" fill="#FEFFFF" transform="matrix(1.00, 0.00, -0.00, -1.00, 265.2, 141.5)"> </text><text xml:space="preserve" font-family="CourierNewPS-BoldMT,Courier New" font-weight="bold" font-size="30.0" fill="#FEFFFF" transform="matrix(1.00, 0.00, -0.00, -1.00, 283.2, 141.5)"> </text><text xml:space="preserve" font-family="CourierNewPS-BoldMT,Courier New" font-weight="bold" font-size="30.0" fill="#FEFFFF" transform="matrix(1.00, 0.00, -0.00, -1.00, 31.1, 107.5)">f</text><text xml:space="preserve" font-family="CourierNewPS-BoldMT,Courier New" font-weight="bold" font-size="30.0" fill="#FEFFFF" transform="matrix(1.00, 0.00, -0.00, -1.00, 49.1, 107.5)">o</text><text xml:space="preserve" font-family="CourierNewPS-BoldMT,Courier New" font-weight="bold" font-size="30.0" fill="#FEFFFF" transform="matrix(1.00, 0.00, -0.00, -1.00, 67.1, 107.5)">r</text><text xml:space="preserve" font-family="CourierNewPS-BoldMT,Courier New" font-weight="bold" font-size="30.0" fill="#FEFFFF" transform="matrix(1.00, 0.00, -0.00, -1.00, 85.1, 107.5)"> </text><text xml:space="preserve" font-family="CourierNewPS-BoldMT,Courier New" font-weight="bold" font-size="30.0" fill="#FEFFFF" transform="matrix(1.00, 0.00, -0.00, -1.00, 103.1, 107.5)">t</text><text xml:space="preserve" font-family="CourierNewPS-BoldMT,Courier New" font-weight="bold" font-size="30.0" fill="#FEFFFF" transform="matrix(1.00, 0.00, -0.00, -1.00, 121.1, 107.5)">h</text><text xml:space="preserve" font-family="CourierNewPS-BoldMT,Courier New" font-weight="bold" font-size="30.0" fill="#FEFFFF" transform="matrix(1.00, 0.00, -0.00, -1.00, 139.1, 107.5)">e</text><text xml:space="preserve" font-family="CourierNewPS-BoldMT,Courier New" font-weight="bold" font-size="30.0" fill="#FEFFFF" transform="matrix(1.00, 0.00, -0.00, -1.00, 157.1, 107.5)"> </text><text xml:space="preserve" font-family="CourierNewPS-BoldMT,Courier New" font-weight="bold" font-size="30.0" fill="#FEFFFF" transform="matrix(1.00, 0.00, -0.00, -1.00, 175.1, 107.5)">u</text><text xml:space="preserve" font-family="CourierNewPS-BoldMT,Courier New" font-weight="bold" font-size="30.0" fill="#FEFFFF" transform="matrix(1.00, 0.00, -0.00, -1.00, 193.1, 107.5)">n</text><text xml:space="preserve" font-family="CourierNewPS-BoldMT,Courier New" font-weight="bold" font-size="30.0" fill="#FEFFFF" transform="matrix(1.00, 0.00, -0.00, -1.00, 211.1, 107.5)">i</text><text xml:space="preserve" font-family="CourierNewPS-BoldMT,Courier New" font-weight="bold" font-size="30.0" fill="#FEFFFF" transform="matrix(1.00, 0.00, -0.00, -1.00, 229.2, 107.5)">q</text><text xml:space="preserve" font-family="CourierNewPS-BoldMT,Courier New" font-weight="bold" font-size="30.0" fill="#FEFFFF" transform="matrix(1.00, 0.00, -0.00, -1.00, 247.2, 107.5)">u</text><text xml:space="preserve" font-family="CourierNewPS-BoldMT,Courier New" font-weight="bold" font-size="30.0" fill="#FEFFFF" transform="matrix(1.00, 0.00, -0.00, -1.00, 265.2, 107.5)">e</text><text xml:space="preserve" font-family="CourierNewPS-BoldMT,Courier New" font-weight="bold" font-size="30.0" fill="#FEFFFF" transform="matrix(1.00, 0.00, -0.00, -1.00, 283.2, 107.5)"> </text><text xml:space="preserve" font-family="CourierNewPS-BoldMT,Courier New" font-weight="bold" font-size="30.0" fill="#FEFFFF" transform="matrix(1.00, 0.00, -0.00, -1.00, 301.2, 107.5)"> </text><text xml:space="preserve" font-family="CourierNewPS-BoldMT,Courier New" font-weight="bold" font-size="30.0" fill="#FEFFFF" transform="matrix(1.00, 0.00, -0.00, -1.00, 31.1, 73.5)">e</text><text xml:space="preserve" font-family="CourierNewPS-BoldMT,Courier New" font-weight="bold" font-size="30.0" fill="#FEFFFF" transform="matrix(1.00, 0.00, -0.00, -1.00, 49.1, 73.5)">n</text><text xml:space="preserve" font-family="CourierNewPS-BoldMT,Courier New" font-weight="bold" font-size="30.0" fill="#FEFFFF" transform="matrix(1.00, 0.00, -0.00, -1.00, 67.1, 73.5)">v</text><text xml:space="preserve" font-family="CourierNewPS-BoldMT,Courier New" font-weight="bold" font-size="30.0" fill="#FEFFFF" transform="matrix(1.00, 0.00, -0.00, -1.00, 85.1, 73.5)">i</text><text xml:space="preserve" font-family="CourierNewPS-BoldMT,Courier New" font-weight="bold" font-size="30.0" fill="#FEFFFF" transform="matrix(1.00, 0.00, -0.00, -1.00, 103.1, 73.5)">r</text><text xml:space="preserve" font-family="CourierNewPS-BoldMT,Courier New" font-weight="bold" font-size="30.0" fill="#FEFFFF" transform="matrix(1.00, 0.00, -0.00, -1.00, 121.1, 73.5)">o</text><text xml:space="preserve" font-family="CourierNewPS-BoldMT,Courier New" font-weight="bold" font-size="30.0" fill="#FEFFFF" transform="matrix(1.00, 0.00, -0.00, -1.00, 139.1, 73.5)">n</text><text xml:space="preserve" font-family="CourierNewPS-BoldMT,Courier New" font-weight="bold" font-size="30.0" fill="#FEFFFF" transform="matrix(1.00, 0.00, -0.00, -1.00, 157.1, 73.5)">m</text><text xml:space="preserve" font-family="CourierNewPS-BoldMT,Courier New" font-weight="bold" font-size="30.0" fill="#FEFFFF" transform="matrix(1.00, 0.00, -0.00, -1.00, 175.1, 73.5)">e</text><text xml:space="preserve" font-family="CourierNewPS-BoldMT,Courier New" font-weight="bold" font-size="30.0" fill="#FEFFFF" transform="matrix(1.00, 0.00, -0.00, -1.00, 193.1, 73.5)">n</text><text xml:space="preserve" font-family="CourierNewPS-BoldMT,Courier New" font-weight="bold" font-size="30.0" fill="#FEFFFF" transform="matrix(1.00, 0.00, -0.00, -1.00, 211.1, 73.5)">t</text><text xml:space="preserve" font-family="CourierNewPS-BoldMT,Courier New" font-weight="bold" font-size="30.0" fill="#FEFFFF" transform="matrix(1.00, 0.00, -0.00, -1.00, 229.2, 73.5)"> </text><text xml:space="preserve" font-family="CourierNewPS-BoldMT,Courier New" font-weight="bold" font-size="30.0" fill="#FEFFFF" transform="matrix(1.00, 0.00, -0.00, -1.00, 247.2, 73.5)">o</text><text xml:space="preserve" font-family="CourierNewPS-BoldMT,Courier New" font-weight="bold" font-size="30.0" fill="#FEFFFF" transform="matrix(1.00, 0.00, -0.00, -1.00, 265.2, 73.5)">f</text><text xml:space="preserve" font-family="CourierNewPS-BoldMT,Courier New" font-weight="bold" font-size="30.0" fill="#FEFFFF" transform="matrix(1.00, 0.00, -0.00, -1.00, 283.2, 73.5)"> </text><text xml:space="preserve" font-family="CourierNewPS-BoldMT,Courier New" font-weight="bold" font-size="30.0" fill="#FEFFFF" transform="matrix(1.00, 0.00, -0.00, -1.00, 301.2, 73.5)"> </text><text xml:space="preserve" font-family="CourierNewPS-BoldMT,Courier New" font-weight="bold" font-size="30.0" fill="#FEFFFF" transform="matrix(1.00, 0.00, -0.00, -1.00, 31.1, 39.5)">y</text><text xml:space="preserve" font-family="CourierNewPS-BoldMT,Courier New" font-weight="bold" font-size="30.0" fill="#FEFFFF" transform="matrix(1.00, 0.00, -0.00, -1.00, 49.1, 39.5)">o</text><text xml:space="preserve" font-family="CourierNewPS-BoldMT,Courier New" font-weight="bold" font-size="30.0" fill="#FEFFFF" transform="matrix(1.00, 0.00, -0.00, -1.00, 67.1, 39.5)">u</text><text xml:space="preserve" font-family="CourierNewPS-BoldMT,Courier New" font-weight="bold" font-size="30.0" fill="#FEFFFF" transform="matrix(1.00, 0.00, -0.00, -1.00, 85.1, 39.5)">r</text><text xml:space="preserve" font-family="CourierNewPS-BoldMT,Courier New" font-weight="bold" font-size="30.0" fill="#FEFFFF" transform="matrix(1.00, 0.00, -0.00, -1.00, 103.1, 39.5)"> </text><text xml:space="preserve" font-family="CourierNewPS-BoldMT,Courier New" font-weight="bold" font-size="30.0" fill="#FEFFFF" transform="matrix(1.00, 0.00, -0.00, -1.00, 121.1, 39.5)">p</text><text xml:space="preserve" font-family="CourierNewPS-BoldMT,Courier New" font-weight="bold" font-size="30.0" fill="#FEFFFF" transform="matrix(1.00, 0.00, -0.00, -1.00, 139.1, 39.5)">r</text><text xml:space="preserve" font-family="CourierNewPS-BoldMT,Courier New" font-weight="bold" font-size="30.0" fill="#FEFFFF" transform="matrix(1.00, 0.00, -0.00, -1.00, 157.1, 39.5)">o</text><text xml:space="preserve" font-family="CourierNewPS-BoldMT,Courier New" font-weight="bold" font-size="30.0" fill="#FEFFFF" transform="matrix(1.00, 0.00, -0.00, -1.00, 175.1, 39.5)">j</text><text xml:space="preserve" font-family="CourierNewPS-BoldMT,Courier New" font-weight="bold" font-size="30.0" fill="#FEFFFF" transform="matrix(1.00, 0.00, -0.00, -1.00, 193.1, 39.5)">e</text><text xml:space="preserve" font-family="CourierNewPS-BoldMT,Courier New" font-weight="bold" font-size="30.0" fill="#FEFFFF" transform="matrix(1.00, 0.00, -0.00, -1.00, 211.1, 39.5)">c</text><text xml:space="preserve" font-family="CourierNewPS-BoldMT,Courier New" font-weight="bold" font-size="30.0" fill="#FEFFFF" transform="matrix(1.00, 0.00, -0.00, -1.00, 229.2, 39.5)">t</text><text xml:space="preserve" font-family="CourierNewPS-BoldMT,Courier New" font-weight="bold" font-size="30.0" fill="#FEFFFF" transform="matrix(1.00, 0.00, -0.00, -1.00, 247.2, 39.5)">?</text></g></svg>