<?xml version="1.0" encoding="UTF-8" standalone="no"?><svg xmlns="http://www.w3.org/2000/svg" xmlns:xlink="http://www.w3.org/1999/xlink" clip-rule="evenodd" stroke-miterlimit="10" viewBox="0 0 1024 768"><desc>SVG generated by Keynote</desc><defs></defs><g transform="matrix(1.00, 0.00, -0.00, -1.00, 0.0, 768.0)"><path d="M 0.0 768.0 L 1024.0 768.0 L 1024.0 0.0 L 0.0 0.0 Z M 0.0 768.0 " fill="#FEFFFF"></path><text xml:space="preserve" font-family="CourierNewPS-BoldMT,Courier New" font-weight="bold" font-size="70.0" fill="#AAAAAA" transform="matrix(1.00, 0.00, -0.00, -1.00, 448.5, 405.5)">t</text><text xml:space="preserve" font-family="CourierNewPS-BoldMT,Courier New" font-weight="bold" font-size="70.0" fill="#AAAAAA" transform="matrix(1.00, 0.00, -0.00, -1.00, 490.5, 405.5)">h</text><text xml:space="preserve" font-family="CourierNewPS-BoldMT,Courier New" font-weight="bold" font-size="70.0" fill="#AAAAAA" transform="matrix(1.00, 0.00, -0.00, -1.00, 532.5, 405.5)">e</text><text xml:space="preserve" font-family="CourierNewPS-BoldMT,Courier New" font-weight="bold" font-size="70.0" fill="#AAAAAA" transform="matrix(1.00, 0.00, -0.00, -1.00, 574.5, 405.5)"> </text><text xml:space="preserve" font-family="CourierNewPS-BoldMT,Courier New" font-weight="bold" font-size="70.0" fill="#AAAAAA" transform="matrix(1.00, 0.00, -0.00, -1.00, 616.5, 405.5)"> </text><text xml:space="preserve" font-family="CourierNewPS-BoldMT,Courier New" font-weight="bold" font-size="70.0" fill="#AAAAAA" transform="matrix(1.00, 0.00, -0.00, -1.00, 175.4, 326.5)">“</text><text xml:space="preserve" font-family="CourierNewPS-BoldMT,Courier New" font-weight="bold" font-size="70.0" fill="#AAAAAA" transform="matrix(1.00, 0.00, -0.00, -1.00, 217.5, 326.5)">S</text><text xml:space="preserve" font-family="CourierNewPS-BoldMT,Courier New" font-weight="bold" font-size="70.0" fill="#AAAAAA" transform="matrix(1.00, 0.00, -0.00, -1.00, 259.5, 326.5)">e</text><text xml:space="preserve" font-family="CourierNewPS-BoldMT,Courier New" font-weight="bold" font-size="70.0" fill="#AAAAAA" transform="matrix(1.00, 0.00, -0.00, -1.00, 301.5, 326.5)">r</text><text xml:space="preserve" font-family="CourierNewPS-BoldMT,Courier New" font-weight="bold" font-size="70.0" fill="#AAAAAA" transform="matrix(1.00, 0.00, -0.00, -1.00, 343.5, 326.5)">i</text><text xml:space="preserve" font-family="CourierNewPS-BoldMT,Courier New" font-weight="bold" font-size="70.0" fill="#AAAAAA" transform="matrix(1.00, 0.00, -0.00, -1.00, 385.5, 326.5)">a</text><text xml:space="preserve" font-family="CourierNewPS-BoldMT,Courier New" font-weight="bold" font-size="70.0" fill="#AAAAAA" transform="matrix(1.00, 0.00, -0.00, -1.00, 427.5, 326.5)">l</text><text xml:space="preserve" font-family="CourierNewPS-BoldMT,Courier New" font-weight="bold" font-size="70.0" fill="#AAAAAA" transform="matrix(1.00, 0.00, -0.00, -1.00, 469.5, 326.5)"> </text><text xml:space="preserve" font-family="CourierNewPS-BoldMT,Courier New" font-weight="bold" font-size="70.0" fill="#AAAAAA" transform="matrix(1.00, 0.00, -0.00, -1.00, 511.6, 326.5)">M</text><text xml:space="preserve" font-family="CourierNewPS-BoldMT,Courier New" font-weight="bold" font-size="70.0" fill="#AAAAAA" transform="matrix(1.00, 0.00, -0.00, -1.00, 553.6, 326.5)">o</text><text xml:space="preserve" font-family="CourierNewPS-BoldMT,Courier New" font-weight="bold" font-size="70.0" fill="#AAAAAA" transform="matrix(1.00, 0.00, -0.00, -1.00, 595.6, 326.5)">n</text><text xml:space="preserve" font-family="CourierNewPS-BoldMT,Courier New" font-weight="bold" font-size="70.0" fill="#AAAAAA" transform="matrix(1.00, 0.00, -0.00, -1.00, 637.6, 326.5)">i</text><text xml:space="preserve" font-family="CourierNewPS-BoldMT,Courier New" font-weight="bold" font-size="70.0" fill="#AAAAAA" transform="matrix(1.00, 0.00, -0.00, -1.00, 679.6, 326.5)">t</text><text xml:space="preserve" font-family="CourierNewPS-BoldMT,Courier New" font-weight="bold" font-size="70.0" fill="#AAAAAA" transform="matrix(1.00, 0.00, -0.00, -1.00, 721.6, 326.5)">o</text><text xml:space="preserve" font-family="CourierNewPS-BoldMT,Courier New" font-weight="bold" font-size="70.0" fill="#AAAAAA" transform="matrix(1.00, 0.00, -0.00, -1.00, 763.6, 326.5)">r</text><text xml:space="preserve" font-family="CourierNewPS-BoldMT,Courier New" font-weight="bold" font-size="70.0" fill="#AAAAAA" transform="matrix(1.00, 0.00, -0.00, -1.00, 805.7, 326.5)">”</text></g></svg>