<?xml version="1.0" encoding="UTF-8" standalone="no"?><svg xmlns="http://www.w3.org/2000/svg" xmlns:xlink="http://www.w3.org/1999/xlink" clip-rule="evenodd" stroke-miterlimit="10" viewBox="0 0 1024 768"><desc>SVG generated by Keynote</desc><defs></defs><g transform="matrix(1.00, 0.00, -0.00, -1.00, 0.0, 768.0)"><path d="M 0.0 768.0 L 1024.0 768.0 L 1024.0 0.0 L 0.0 0.0 Z M 0.0 768.0 " fill="#000000"></path><g><clipPath id="clip0x7f91585f6ef0"><path d="M 28.0 790.0 L 784.0 790.0 L 784.0 -136.0 L 28.0 -136.0 Z M 27.5 789.7 "></path></clipPath><g clip-path="url(#clip0x7f91585f6ef0)"><image xlink:href="8570EBE896731381525B696AD41D3F7D.png" width="850.00" height="900.00" transform="matrix(1.03, 0.00, -0.00, -1.03, -31.0, 789.7)"></image></g></g><path d="M 0.2 0.1 L 231.2 0.1 L 231.2 1.1 L 0.2 1.1 Z M 0.0 0.0 " fill="none" stroke="#EB5C56" stroke-width="5.00" transform="matrix(1.00, 0.00, 0.00, -1.00, 61.3, 495.6)"></path><path d="M -0.1 0.2 L 384.9 0.2 L 384.9 1.2 L -0.1 1.2 Z M 0.0 0.0 " fill="none" stroke="#EB5C56" stroke-width="5.00" transform="matrix(1.00, 0.00, 0.00, -1.00, 60.6, 329.7)"></path><path d="M 417.0 529.0 L 1018.0 529.0 L 1018.0 462.0 L 417.0 462.0 Z M 416.5 528.5 " fill="#DCDDE0"></path><g><clipPath id="clip0x7f91585f9ca0"><path d="M 405.8 450.8 L 1029.2 450.8 L 1029.2 539.3 L 405.8 539.3 Z M 405.8 450.8 "></path></clipPath><g clip-path="url(#clip0x7f91585f9ca0)"><text xml:space="preserve" font-family="CourierNewPS-BoldMT,Courier New" font-weight="bold" font-size="52.0" fill="#5E5E5E" transform="matrix(1.00, 0.00, -0.00, -1.00, 421.0, 481.1)">S</text><text xml:space="preserve" font-family="CourierNewPS-BoldMT,Courier New" font-weight="bold" font-size="52.0" fill="#5E5E5E" transform="matrix(1.00, 0.00, -0.00, -1.00, 452.3, 481.1)">e</text><text xml:space="preserve" font-family="CourierNewPS-BoldMT,Courier New" font-weight="bold" font-size="52.0" fill="#5E5E5E" transform="matrix(1.00, 0.00, -0.00, -1.00, 483.5, 481.1)">r</text><text xml:space="preserve" font-family="CourierNewPS-BoldMT,Courier New" font-weight="bold" font-size="52.0" fill="#5E5E5E" transform="matrix(1.00, 0.00, -0.00, -1.00, 514.7, 481.1)">i</text><text xml:space="preserve" font-family="CourierNewPS-BoldMT,Courier New" font-weight="bold" font-size="52.0" fill="#5E5E5E" transform="matrix(1.00, 0.00, -0.00, -1.00, 545.9, 481.1)">a</text><text xml:space="preserve" font-family="CourierNewPS-BoldMT,Courier New" font-weight="bold" font-size="52.0" fill="#5E5E5E" transform="matrix(1.00, 0.00, -0.00, -1.00, 577.1, 481.1)">l</text><text xml:space="preserve" font-family="CourierNewPS-BoldMT,Courier New" font-weight="bold" font-size="52.0" fill="#5E5E5E" transform="matrix(1.00, 0.00, -0.00, -1.00, 608.3, 481.1)">.</text><text xml:space="preserve" font-family="CourierNewPS-BoldMT,Courier New" font-weight="bold" font-size="52.0" fill="#5E5E5E" transform="matrix(1.00, 0.00, -0.00, -1.00, 639.5, 481.1)">b</text><text xml:space="preserve" font-family="CourierNewPS-BoldMT,Courier New" font-weight="bold" font-size="52.0" fill="#5E5E5E" transform="matrix(1.00, 0.00, -0.00, -1.00, 670.7, 481.1)">e</text><text xml:space="preserve" font-family="CourierNewPS-BoldMT,Courier New" font-weight="bold" font-size="52.0" fill="#5E5E5E" transform="matrix(1.00, 0.00, -0.00, -1.00, 701.9, 481.1)">g</text><text xml:space="preserve" font-family="CourierNewPS-BoldMT,Courier New" font-weight="bold" font-size="52.0" fill="#5E5E5E" transform="matrix(1.00, 0.00, -0.00, -1.00, 733.2, 481.1)">i</text><text xml:space="preserve" font-family="CourierNewPS-BoldMT,Courier New" font-weight="bold" font-size="52.0" fill="#5E5E5E" transform="matrix(1.00, 0.00, -0.00, -1.00, 764.4, 481.1)">n</text><text xml:space="preserve" font-family="CourierNewPS-BoldMT,Courier New" font-weight="bold" font-size="52.0" fill="#5E5E5E" transform="matrix(1.00, 0.00, -0.00, -1.00, 795.6, 481.1)">(</text><text xml:space="preserve" font-family="CourierNewPS-BoldMT,Courier New" font-weight="bold" font-size="52.0" fill="#5E5E5E" transform="matrix(1.00, 0.00, -0.00, -1.00, 826.8, 481.1)">9</text><text xml:space="preserve" font-family="CourierNewPS-BoldMT,Courier New" font-weight="bold" font-size="52.0" fill="#5E5E5E" transform="matrix(1.00, 0.00, -0.00, -1.00, 858.0, 481.1)">6</text><text xml:space="preserve" font-family="CourierNewPS-BoldMT,Courier New" font-weight="bold" font-size="52.0" fill="#5E5E5E" transform="matrix(1.00, 0.00, -0.00, -1.00, 889.2, 481.1)">0</text><text xml:space="preserve" font-family="CourierNewPS-BoldMT,Courier New" font-weight="bold" font-size="52.0" fill="#5E5E5E" transform="matrix(1.00, 0.00, -0.00, -1.00, 920.4, 481.1)">0</text><text xml:space="preserve" font-family="CourierNewPS-BoldMT,Courier New" font-weight="bold" font-size="52.0" fill="#5E5E5E" transform="matrix(1.00, 0.00, -0.00, -1.00, 951.6, 481.1)">)</text><text xml:space="preserve" font-family="CourierNewPS-BoldMT,Courier New" font-weight="bold" font-size="52.0" fill="#5E5E5E" transform="matrix(1.00, 0.00, -0.00, -1.00, 982.8, 481.1)">;</text></g></g><path d="M 143.0 324.0 L 1026.0 324.0 L 1026.0 257.0 L 143.0 257.0 Z M 143.1 323.8 " fill="#DCDDE0"></path><g><clipPath id="clip0x7f91587080f0"><path d="M 132.4 246.1 L 1036.6 246.1 L 1036.6 334.6 L 132.4 334.6 Z M 132.4 246.1 "></path></clipPath><g clip-path="url(#clip0x7f91587080f0)"><text xml:space="preserve" font-family="CourierNewPS-BoldMT,Courier New" font-weight="bold" font-size="52.0" fill="#5E5E5E" transform="matrix(1.00, 0.00, -0.00, -1.00, 147.6, 276.4)">S</text><text xml:space="preserve" font-family="CourierNewPS-BoldMT,Courier New" font-weight="bold" font-size="52.0" fill="#5E5E5E" transform="matrix(1.00, 0.00, -0.00, -1.00, 178.8, 276.4)">e</text><text xml:space="preserve" font-family="CourierNewPS-BoldMT,Courier New" font-weight="bold" font-size="52.0" fill="#5E5E5E" transform="matrix(1.00, 0.00, -0.00, -1.00, 210.0, 276.4)">r</text><text xml:space="preserve" font-family="CourierNewPS-BoldMT,Courier New" font-weight="bold" font-size="52.0" fill="#5E5E5E" transform="matrix(1.00, 0.00, -0.00, -1.00, 241.3, 276.4)">i</text><text xml:space="preserve" font-family="CourierNewPS-BoldMT,Courier New" font-weight="bold" font-size="52.0" fill="#5E5E5E" transform="matrix(1.00, 0.00, -0.00, -1.00, 272.5, 276.4)">a</text><text xml:space="preserve" font-family="CourierNewPS-BoldMT,Courier New" font-weight="bold" font-size="52.0" fill="#5E5E5E" transform="matrix(1.00, 0.00, -0.00, -1.00, 303.7, 276.4)">l</text><text xml:space="preserve" font-family="CourierNewPS-BoldMT,Courier New" font-weight="bold" font-size="52.0" fill="#5E5E5E" transform="matrix(1.00, 0.00, -0.00, -1.00, 334.9, 276.4)">.</text><text xml:space="preserve" font-family="CourierNewPS-BoldMT,Courier New" font-weight="bold" font-size="52.0" fill="#5E5E5E" transform="matrix(1.00, 0.00, -0.00, -1.00, 366.1, 276.4)">p</text><text xml:space="preserve" font-family="CourierNewPS-BoldMT,Courier New" font-weight="bold" font-size="52.0" fill="#5E5E5E" transform="matrix(1.00, 0.00, -0.00, -1.00, 397.3, 276.4)">r</text><text xml:space="preserve" font-family="CourierNewPS-BoldMT,Courier New" font-weight="bold" font-size="52.0" fill="#5E5E5E" transform="matrix(1.00, 0.00, -0.00, -1.00, 428.5, 276.4)">i</text><text xml:space="preserve" font-family="CourierNewPS-BoldMT,Courier New" font-weight="bold" font-size="52.0" fill="#5E5E5E" transform="matrix(1.00, 0.00, -0.00, -1.00, 459.7, 276.4)">n</text><text xml:space="preserve" font-family="CourierNewPS-BoldMT,Courier New" font-weight="bold" font-size="52.0" fill="#5E5E5E" transform="matrix(1.00, 0.00, -0.00, -1.00, 490.9, 276.4)">t</text><text xml:space="preserve" font-family="CourierNewPS-BoldMT,Courier New" font-weight="bold" font-size="52.0" fill="#5E5E5E" transform="matrix(1.00, 0.00, -0.00, -1.00, 522.1, 276.4)">l</text><text xml:space="preserve" font-family="CourierNewPS-BoldMT,Courier New" font-weight="bold" font-size="52.0" fill="#5E5E5E" transform="matrix(1.00, 0.00, -0.00, -1.00, 553.4, 276.4)">n</text><text xml:space="preserve" font-family="CourierNewPS-BoldMT,Courier New" font-weight="bold" font-size="52.0" fill="#5E5E5E" transform="matrix(1.00, 0.00, -0.00, -1.00, 584.6, 276.4)">(</text><text xml:space="preserve" font-family="CourierNewPS-BoldMT,Courier New" font-weight="bold" font-size="52.0" fill="#5E5E5E" transform="matrix(1.00, 0.00, -0.00, -1.00, 615.8, 276.4)">s</text><text xml:space="preserve" font-family="CourierNewPS-BoldMT,Courier New" font-weight="bold" font-size="52.0" fill="#5E5E5E" transform="matrix(1.00, 0.00, -0.00, -1.00, 647.0, 276.4)">e</text><text xml:space="preserve" font-family="CourierNewPS-BoldMT,Courier New" font-weight="bold" font-size="52.0" fill="#5E5E5E" transform="matrix(1.00, 0.00, -0.00, -1.00, 678.2, 276.4)">n</text><text xml:space="preserve" font-family="CourierNewPS-BoldMT,Courier New" font-weight="bold" font-size="52.0" fill="#5E5E5E" transform="matrix(1.00, 0.00, -0.00, -1.00, 709.4, 276.4)">s</text><text xml:space="preserve" font-family="CourierNewPS-BoldMT,Courier New" font-weight="bold" font-size="52.0" fill="#5E5E5E" transform="matrix(1.00, 0.00, -0.00, -1.00, 740.6, 276.4)">o</text><text xml:space="preserve" font-family="CourierNewPS-BoldMT,Courier New" font-weight="bold" font-size="52.0" fill="#5E5E5E" transform="matrix(1.00, 0.00, -0.00, -1.00, 771.8, 276.4)">r</text><text xml:space="preserve" font-family="CourierNewPS-BoldMT,Courier New" font-weight="bold" font-size="52.0" fill="#5E5E5E" transform="matrix(1.00, 0.00, -0.00, -1.00, 803.0, 276.4)">V</text><text xml:space="preserve" font-family="CourierNewPS-BoldMT,Courier New" font-weight="bold" font-size="52.0" fill="#5E5E5E" transform="matrix(1.00, 0.00, -0.00, -1.00, 834.3, 276.4)">a</text><text xml:space="preserve" font-family="CourierNewPS-BoldMT,Courier New" font-weight="bold" font-size="52.0" fill="#5E5E5E" transform="matrix(1.00, 0.00, -0.00, -1.00, 865.5, 276.4)">l</text><text xml:space="preserve" font-family="CourierNewPS-BoldMT,Courier New" font-weight="bold" font-size="52.0" fill="#5E5E5E" transform="matrix(1.00, 0.00, -0.00, -1.00, 896.7, 276.4)">u</text><text xml:space="preserve" font-family="CourierNewPS-BoldMT,Courier New" font-weight="bold" font-size="52.0" fill="#5E5E5E" transform="matrix(1.00, 0.00, -0.00, -1.00, 927.9, 276.4)">e</text><text xml:space="preserve" font-family="CourierNewPS-BoldMT,Courier New" font-weight="bold" font-size="52.0" fill="#5E5E5E" transform="matrix(1.00, 0.00, -0.00, -1.00, 959.1, 276.4)">)</text><text xml:space="preserve" font-family="CourierNewPS-BoldMT,Courier New" font-weight="bold" font-size="52.0" fill="#5E5E5E" transform="matrix(1.00, 0.00, -0.00, -1.00, 990.3, 276.4)">;</text></g></g></g></svg>