<?xml version="1.0" encoding="UTF-8" standalone="no"?><svg xmlns="http://www.w3.org/2000/svg" xmlns:xlink="http://www.w3.org/1999/xlink" clip-rule="evenodd" stroke-miterlimit="10" viewBox="0 0 984 38"><desc>SVG generated by Keynote</desc><defs></defs><g transform="matrix(1.00, 0.00, -0.00, -1.00, 0.0, 38.0)"><text xml:space="preserve" font-family="Helvetica,Helvetica" font-size="37.0" fill="#FEFFFF" transform="matrix(1.00, 0.00, -0.00, -1.00, -1.0, 9.5)">h</text><text xml:space="preserve" font-family="Helvetica,Helvetica" font-size="37.0" fill="#FEFFFF" transform="matrix(1.00, 0.00, -0.00, -1.00, 19.6, 9.5)">t</text><text xml:space="preserve" font-family="Helvetica,Helvetica" font-size="37.0" fill="#FEFFFF" transform="matrix(1.00, 0.00, -0.00, -1.00, 29.8, 9.5)">t</text><text xml:space="preserve" font-family="Helvetica,Helvetica" font-size="37.0" fill="#FEFFFF" transform="matrix(1.00, 0.00, -0.00, -1.00, 40.1, 9.5)">p</text><text xml:space="preserve" font-family="Helvetica,Helvetica" font-size="37.0" fill="#FEFFFF" transform="matrix(1.00, 0.00, -0.00, -1.00, 60.7, 9.5)">s</text><text xml:space="preserve" font-family="Helvetica,Helvetica" font-size="37.0" fill="#FEFFFF" transform="matrix(1.00, 0.00, -0.00, -1.00, 79.2, 9.5)">:</text><text xml:space="preserve" font-family="Helvetica,Helvetica" font-size="37.0" fill="#FEFFFF" transform="matrix(1.00, 0.00, -0.00, -1.00, 89.5, 9.5)">/</text><text xml:space="preserve" font-family="Helvetica,Helvetica" font-size="37.0" fill="#FEFFFF" transform="matrix(1.00, 0.00, -0.00, -1.00, 99.7, 9.5)">/</text><text xml:space="preserve" font-family="Helvetica,Helvetica" font-size="37.0" fill="#FEFFFF" transform="matrix(1.00, 0.00, -0.00, -1.00, 110.0, 9.5)">a</text><text xml:space="preserve" font-family="Helvetica,Helvetica" font-size="37.0" fill="#FEFFFF" transform="matrix(1.00, 0.00, -0.00, -1.00, 130.6, 9.5)">p</text><text xml:space="preserve" font-family="Helvetica,Helvetica" font-size="37.0" fill="#FEFFFF" transform="matrix(1.00, 0.00, -0.00, -1.00, 151.2, 9.5)">i</text><text xml:space="preserve" font-family="Helvetica,Helvetica" font-size="37.0" fill="#FEFFFF" transform="matrix(1.00, 0.00, -0.00, -1.00, 159.4, 9.5)">.</text><text xml:space="preserve" font-family="Helvetica,Helvetica" font-size="37.0" fill="#FEFFFF" transform="matrix(1.00, 0.00, -0.00, -1.00, 169.7, 9.5)">s</text><text xml:space="preserve" font-family="Helvetica,Helvetica" font-size="37.0" fill="#FEFFFF" transform="matrix(1.00, 0.00, -0.00, -1.00, 188.2, 9.5)">p</text><text xml:space="preserve" font-family="Helvetica,Helvetica" font-size="37.0" fill="#FEFFFF" transform="matrix(1.00, 0.00, -0.00, -1.00, 208.8, 9.5)">a</text><text xml:space="preserve" font-family="Helvetica,Helvetica" font-size="37.0" fill="#FEFFFF" transform="matrix(1.00, 0.00, -0.00, -1.00, 229.4, 9.5)">r</text><text xml:space="preserve" font-family="Helvetica,Helvetica" font-size="37.0" fill="#FEFFFF" transform="matrix(1.00, 0.00, -0.00, -1.00, 241.7, 9.5)">k</text><text xml:space="preserve" font-family="Helvetica,Helvetica" font-size="37.0" fill="#FEFFFF" transform="matrix(1.00, 0.00, -0.00, -1.00, 260.2, 9.5)">.</text><text xml:space="preserve" font-family="Helvetica,Helvetica" font-size="37.0" fill="#FEFFFF" transform="matrix(1.00, 0.00, -0.00, -1.00, 270.5, 9.5)">i</text><text xml:space="preserve" font-family="Helvetica,Helvetica" font-size="37.0" fill="#FEFFFF" transform="matrix(1.00, 0.00, -0.00, -1.00, 278.7, 9.5)">o</text><text xml:space="preserve" font-family="Helvetica,Helvetica" font-size="37.0" fill="#FEFFFF" transform="matrix(1.00, 0.00, -0.00, -1.00, 299.3, 9.5)">/</text><text xml:space="preserve" font-family="Helvetica,Helvetica" font-size="37.0" fill="#FEFFFF" transform="matrix(1.00, 0.00, -0.00, -1.00, 309.5, 9.5)">v</text><text xml:space="preserve" font-family="Helvetica,Helvetica" font-size="37.0" fill="#FEFFFF" transform="matrix(1.00, 0.00, -0.00, -1.00, 328.0, 9.5)">1</text><text xml:space="preserve" font-family="Helvetica,Helvetica" font-size="37.0" fill="#FEFFFF" transform="matrix(1.00, 0.00, -0.00, -1.00, 348.6, 9.5)">/</text><text xml:space="preserve" font-family="Helvetica,Helvetica" font-size="37.0" fill="#FEFFFF" transform="matrix(1.00, 0.00, -0.00, -1.00, 358.9, 9.5)">d</text><text xml:space="preserve" font-family="Helvetica,Helvetica" font-size="37.0" fill="#FEFFFF" transform="matrix(1.00, 0.00, -0.00, -1.00, 379.5, 9.5)">e</text><text xml:space="preserve" font-family="Helvetica,Helvetica" font-size="37.0" fill="#FEFFFF" transform="matrix(1.00, 0.00, -0.00, -1.00, 400.1, 9.5)">v</text><text xml:space="preserve" font-family="Helvetica,Helvetica" font-size="37.0" fill="#FEFFFF" transform="matrix(1.00, 0.00, -0.00, -1.00, 418.6, 9.5)">i</text><text xml:space="preserve" font-family="Helvetica,Helvetica" font-size="37.0" fill="#FEFFFF" transform="matrix(1.00, 0.00, -0.00, -1.00, 426.8, 9.5)">c</text><text xml:space="preserve" font-family="Helvetica,Helvetica" font-size="37.0" fill="#FEFFFF" transform="matrix(1.00, 0.00, -0.00, -1.00, 445.3, 9.5)">e</text><text xml:space="preserve" font-family="Helvetica,Helvetica" font-size="37.0" fill="#FEFFFF" transform="matrix(1.00, 0.00, -0.00, -1.00, 465.9, 9.5)">s</text><text xml:space="preserve" font-family="Helvetica,Helvetica" font-size="37.0" fill="#FEFFFF" transform="matrix(1.00, 0.00, -0.00, -1.00, 484.4, 9.5)">/</text><text xml:space="preserve" font-family="Helvetica,Helvetica" font-size="37.0" fill="#FEFFFF" transform="matrix(1.00, 0.00, -0.00, -1.00, 494.7, 9.5)">x</text><text xml:space="preserve" font-family="Helvetica,Helvetica" font-size="37.0" fill="#FEFFFF" transform="matrix(1.00, 0.00, -0.00, -1.00, 513.2, 9.5)">x</text><text xml:space="preserve" font-family="Helvetica,Helvetica" font-size="37.0" fill="#FEFFFF" transform="matrix(1.00, 0.00, -0.00, -1.00, 531.7, 9.5)">x</text><text xml:space="preserve" font-family="Helvetica,Helvetica" font-size="37.0" fill="#FEFFFF" transform="matrix(1.00, 0.00, -0.00, -1.00, 550.2, 9.5)">x</text><text xml:space="preserve" font-family="Helvetica,Helvetica" font-size="37.0" fill="#FEFFFF" transform="matrix(1.00, 0.00, -0.00, -1.00, 568.7, 9.5)">/</text><text xml:space="preserve" font-family="Helvetica,Helvetica" font-size="37.0" fill="#FEFFFF" transform="matrix(1.00, 0.00, -0.00, -1.00, 578.9, 9.5)">m</text><text xml:space="preserve" font-family="Helvetica,Helvetica" font-size="37.0" fill="#FEFFFF" transform="matrix(1.00, 0.00, -0.00, -1.00, 609.7, 9.5)">a</text><text xml:space="preserve" font-family="Helvetica,Helvetica" font-size="37.0" fill="#FEFFFF" transform="matrix(1.00, 0.00, -0.00, -1.00, 630.3, 9.5)">t</text><text xml:space="preserve" font-family="Helvetica,Helvetica" font-size="37.0" fill="#FEFFFF" transform="matrix(1.00, 0.00, -0.00, -1.00, 640.6, 9.5)">?</text><text xml:space="preserve" font-family="Helvetica,Helvetica" font-size="37.0" fill="#FEFFFF" transform="matrix(1.00, 0.00, -0.00, -1.00, 661.2, 9.5)">a</text><text xml:space="preserve" font-family="Helvetica,Helvetica" font-size="37.0" fill="#FEFFFF" transform="matrix(1.00, 0.00, -0.00, -1.00, 681.8, 9.5)">c</text><text xml:space="preserve" font-family="Helvetica,Helvetica" font-size="37.0" fill="#FEFFFF" transform="matrix(1.00, 0.00, -0.00, -1.00, 700.3, 9.5)">c</text><text xml:space="preserve" font-family="Helvetica,Helvetica" font-size="37.0" fill="#FEFFFF" transform="matrix(1.00, 0.00, -0.00, -1.00, 718.8, 9.5)">e</text><text xml:space="preserve" font-family="Helvetica,Helvetica" font-size="37.0" fill="#FEFFFF" transform="matrix(1.00, 0.00, -0.00, -1.00, 739.4, 9.5)">s</text><text xml:space="preserve" font-family="Helvetica,Helvetica" font-size="37.0" fill="#FEFFFF" transform="matrix(1.00, 0.00, -0.00, -1.00, 757.9, 9.5)">s</text><text xml:space="preserve" font-family="Helvetica,Helvetica" font-size="37.0" fill="#FEFFFF" transform="matrix(1.00, 0.00, -0.00, -1.00, 776.4, 9.5)">_</text><text xml:space="preserve" font-family="Helvetica,Helvetica" font-size="37.0" fill="#FEFFFF" transform="matrix(1.00, 0.00, -0.00, -1.00, 796.9, 9.5)">t</text><text xml:space="preserve" font-family="Helvetica,Helvetica" font-size="37.0" fill="#FEFFFF" transform="matrix(1.00, 0.00, -0.00, -1.00, 807.2, 9.5)">o</text><text xml:space="preserve" font-family="Helvetica,Helvetica" font-size="37.0" fill="#FEFFFF" transform="matrix(1.00, 0.00, -0.00, -1.00, 827.8, 9.5)">k</text><text xml:space="preserve" font-family="Helvetica,Helvetica" font-size="37.0" fill="#FEFFFF" transform="matrix(1.00, 0.00, -0.00, -1.00, 846.3, 9.5)">e</text><text xml:space="preserve" font-family="Helvetica,Helvetica" font-size="37.0" fill="#FEFFFF" transform="matrix(1.00, 0.00, -0.00, -1.00, 866.9, 9.5)">n</text><text xml:space="preserve" font-family="Helvetica,Helvetica" font-size="37.0" fill="#FEFFFF" transform="matrix(1.00, 0.00, -0.00, -1.00, 887.5, 9.5)">=</text><text xml:space="preserve" font-family="Helvetica,Helvetica" font-size="37.0" fill="#FEFFFF" transform="matrix(1.00, 0.00, -0.00, -1.00, 909.1, 9.5)">y</text><text xml:space="preserve" font-family="Helvetica,Helvetica" font-size="37.0" fill="#FEFFFF" transform="matrix(1.00, 0.00, -0.00, -1.00, 927.6, 9.5)">y</text><text xml:space="preserve" font-family="Helvetica,Helvetica" font-size="37.0" fill="#FEFFFF" transform="matrix(1.00, 0.00, -0.00, -1.00, 946.1, 9.5)">y</text><text xml:space="preserve" font-family="Helvetica,Helvetica" font-size="37.0" fill="#FEFFFF" transform="matrix(1.00, 0.00, -0.00, -1.00, 964.6, 9.5)">y</text></g></svg>