<?xml version="1.0" encoding="UTF-8" standalone="no"?><svg xmlns="http://www.w3.org/2000/svg" xmlns:xlink="http://www.w3.org/1999/xlink" clip-rule="evenodd" stroke-miterlimit="10" viewBox="0 0 812 521"><desc>SVG generated by Keynote</desc><defs></defs><g transform="matrix(1.00, 0.00, -0.00, -1.00, 0.0, 521.0)"><text xml:space="preserve" font-family="Helvetica,Helvetica" font-size="40.0" fill="#FEFC78" transform="matrix(1.00, 0.00, -0.00, -1.00, 2.0, 489.7)">{</text><text xml:space="preserve" font-family="Helvetica,Helvetica" font-size="40.0" fill="#FEFC78" transform="matrix(1.00, 0.00, -0.00, -1.00, 2.0, 441.7)"> </text><text xml:space="preserve" font-family="Helvetica,Helvetica" font-size="40.0" fill="#FEFC78" transform="matrix(1.00, 0.00, -0.00, -1.00, 13.1, 441.7)"> </text><text xml:space="preserve" font-family="Helvetica,Helvetica" font-size="40.0" fill="#FEFC78" transform="matrix(1.00, 0.00, -0.00, -1.00, 24.2, 441.7)">"</text><text xml:space="preserve" font-family="Helvetica,Helvetica" font-size="40.0" fill="#FEFC78" transform="matrix(1.00, 0.00, -0.00, -1.00, 38.4, 441.7)">c</text><text xml:space="preserve" font-family="Helvetica,Helvetica" font-size="40.0" fill="#FEFC78" transform="matrix(1.00, 0.00, -0.00, -1.00, 58.4, 441.7)">m</text><text xml:space="preserve" font-family="Helvetica,Helvetica" font-size="40.0" fill="#FEFC78" transform="matrix(1.00, 0.00, -0.00, -1.00, 91.7, 441.7)">d</text><text xml:space="preserve" font-family="Helvetica,Helvetica" font-size="40.0" fill="#FEFC78" transform="matrix(1.00, 0.00, -0.00, -1.00, 114.0, 441.7)">"</text><text xml:space="preserve" font-family="Helvetica,Helvetica" font-size="40.0" fill="#FEFC78" transform="matrix(1.00, 0.00, -0.00, -1.00, 128.2, 441.7)">:</text><text xml:space="preserve" font-family="Helvetica,Helvetica" font-size="40.0" fill="#FEFC78" transform="matrix(1.00, 0.00, -0.00, -1.00, 139.3, 441.7)"> </text><text xml:space="preserve" font-family="Helvetica,Helvetica" font-size="40.0" fill="#FEFC78" transform="matrix(1.00, 0.00, -0.00, -1.00, 150.4, 441.7)">"</text><text xml:space="preserve" font-family="Helvetica,Helvetica" font-size="40.0" fill="#FEFC78" transform="matrix(1.00, 0.00, -0.00, -1.00, 164.6, 441.7)">V</text><text xml:space="preserve" font-family="Helvetica,Helvetica" font-size="40.0" fill="#FEFC78" transform="matrix(1.00, 0.00, -0.00, -1.00, 188.3, 441.7)">a</text><text xml:space="preserve" font-family="Helvetica,Helvetica" font-size="40.0" fill="#FEFC78" transform="matrix(1.00, 0.00, -0.00, -1.00, 210.6, 441.7)">r</text><text xml:space="preserve" font-family="Helvetica,Helvetica" font-size="40.0" fill="#FEFC78" transform="matrix(1.00, 0.00, -0.00, -1.00, 223.9, 441.7)">R</text><text xml:space="preserve" font-family="Helvetica,Helvetica" font-size="40.0" fill="#FEFC78" transform="matrix(1.00, 0.00, -0.00, -1.00, 252.8, 441.7)">e</text><text xml:space="preserve" font-family="Helvetica,Helvetica" font-size="40.0" fill="#FEFC78" transform="matrix(1.00, 0.00, -0.00, -1.00, 275.0, 441.7)">t</text><text xml:space="preserve" font-family="Helvetica,Helvetica" font-size="40.0" fill="#FEFC78" transform="matrix(1.00, 0.00, -0.00, -1.00, 286.2, 441.7)">u</text><text xml:space="preserve" font-family="Helvetica,Helvetica" font-size="40.0" fill="#FEFC78" transform="matrix(1.00, 0.00, -0.00, -1.00, 308.4, 441.7)">r</text><text xml:space="preserve" font-family="Helvetica,Helvetica" font-size="40.0" fill="#FEFC78" transform="matrix(1.00, 0.00, -0.00, -1.00, 321.7, 441.7)">n</text><text xml:space="preserve" font-family="Helvetica,Helvetica" font-size="40.0" fill="#FEFC78" transform="matrix(1.00, 0.00, -0.00, -1.00, 344.0, 441.7)">"</text><text xml:space="preserve" font-family="Helvetica,Helvetica" font-size="40.0" fill="#FEFC78" transform="matrix(1.00, 0.00, -0.00, -1.00, 358.2, 441.7)">,</text><text xml:space="preserve" font-family="Helvetica,Helvetica" font-size="40.0" fill="#FEFC78" transform="matrix(1.00, 0.00, -0.00, -1.00, 2.0, 393.7)"> </text><text xml:space="preserve" font-family="Helvetica,Helvetica" font-size="40.0" fill="#FEFC78" transform="matrix(1.00, 0.00, -0.00, -1.00, 13.1, 393.7)"> </text><text xml:space="preserve" font-family="Helvetica,Helvetica" font-size="40.0" fill="#FEFC78" transform="matrix(1.00, 0.00, -0.00, -1.00, 24.2, 393.7)">"</text><text xml:space="preserve" font-family="Helvetica,Helvetica" font-size="40.0" fill="#FEFC78" transform="matrix(1.00, 0.00, -0.00, -1.00, 38.4, 393.7)">n</text><text xml:space="preserve" font-family="Helvetica,Helvetica" font-size="40.0" fill="#FEFC78" transform="matrix(1.00, 0.00, -0.00, -1.00, 60.7, 393.7)">a</text><text xml:space="preserve" font-family="Helvetica,Helvetica" font-size="40.0" fill="#FEFC78" transform="matrix(1.00, 0.00, -0.00, -1.00, 82.9, 393.7)">m</text><text xml:space="preserve" font-family="Helvetica,Helvetica" font-size="40.0" fill="#FEFC78" transform="matrix(1.00, 0.00, -0.00, -1.00, 116.2, 393.7)">e</text><text xml:space="preserve" font-family="Helvetica,Helvetica" font-size="40.0" fill="#FEFC78" transform="matrix(1.00, 0.00, -0.00, -1.00, 138.5, 393.7)">"</text><text xml:space="preserve" font-family="Helvetica,Helvetica" font-size="40.0" fill="#FEFC78" transform="matrix(1.00, 0.00, -0.00, -1.00, 152.7, 393.7)">:</text><text xml:space="preserve" font-family="Helvetica,Helvetica" font-size="40.0" fill="#FEFC78" transform="matrix(1.00, 0.00, -0.00, -1.00, 163.8, 393.7)"> </text><text xml:space="preserve" font-family="Helvetica,Helvetica" font-size="40.0" fill="#FEFC78" transform="matrix(1.00, 0.00, -0.00, -1.00, 174.9, 393.7)">"</text><text xml:space="preserve" font-family="Helvetica,Helvetica" font-size="40.0" fill="#FEFC78" transform="matrix(1.00, 0.00, -0.00, -1.00, 189.1, 393.7)">m</text><text xml:space="preserve" font-family="Helvetica,Helvetica" font-size="40.0" fill="#FEFC78" transform="matrix(1.00, 0.00, -0.00, -1.00, 222.4, 393.7)">a</text><text xml:space="preserve" font-family="Helvetica,Helvetica" font-size="40.0" fill="#FEFC78" transform="matrix(1.00, 0.00, -0.00, -1.00, 244.7, 393.7)">t</text><text xml:space="preserve" font-family="Helvetica,Helvetica" font-size="40.0" fill="#FEFC78" transform="matrix(1.00, 0.00, -0.00, -1.00, 255.8, 393.7)">"</text><text xml:space="preserve" font-family="Helvetica,Helvetica" font-size="40.0" fill="#FEFC78" transform="matrix(1.00, 0.00, -0.00, -1.00, 270.0, 393.7)">,</text><text xml:space="preserve" font-family="Helvetica,Helvetica" font-size="40.0" fill="#FEFC78" transform="matrix(1.00, 0.00, -0.00, -1.00, 2.0, 345.7)"> </text><text xml:space="preserve" font-family="Helvetica,Helvetica" font-size="40.0" fill="#FEFC78" transform="matrix(1.00, 0.00, -0.00, -1.00, 13.1, 345.7)"> </text><text xml:space="preserve" font-family="Helvetica,Helvetica" font-size="40.0" fill="#FEFC78" transform="matrix(1.00, 0.00, -0.00, -1.00, 24.2, 345.7)">"</text><text xml:space="preserve" font-family="Helvetica,Helvetica" font-size="40.0" fill="#FEFC78" transform="matrix(1.00, 0.00, -0.00, -1.00, 38.4, 345.7)">r</text><text xml:space="preserve" font-family="Helvetica,Helvetica" font-size="40.0" fill="#FEFC78" transform="matrix(1.00, 0.00, -0.00, -1.00, 51.7, 345.7)">e</text><text xml:space="preserve" font-family="Helvetica,Helvetica" font-size="40.0" fill="#FEFC78" transform="matrix(1.00, 0.00, -0.00, -1.00, 74.0, 345.7)">s</text><text xml:space="preserve" font-family="Helvetica,Helvetica" font-size="40.0" fill="#FEFC78" transform="matrix(1.00, 0.00, -0.00, -1.00, 94.0, 345.7)">u</text><text xml:space="preserve" font-family="Helvetica,Helvetica" font-size="40.0" fill="#FEFC78" transform="matrix(1.00, 0.00, -0.00, -1.00, 116.2, 345.7)">l</text><text xml:space="preserve" font-family="Helvetica,Helvetica" font-size="40.0" fill="#FEFC78" transform="matrix(1.00, 0.00, -0.00, -1.00, 125.1, 345.7)">t</text><text xml:space="preserve" font-family="Helvetica,Helvetica" font-size="40.0" fill="#FEFC78" transform="matrix(1.00, 0.00, -0.00, -1.00, 136.2, 345.7)">"</text><text xml:space="preserve" font-family="Helvetica,Helvetica" font-size="40.0" fill="#FEFC78" transform="matrix(1.00, 0.00, -0.00, -1.00, 150.4, 345.7)">:</text><text xml:space="preserve" font-family="Helvetica,Helvetica" font-size="40.0" fill="#FEFC78" transform="matrix(1.00, 0.00, -0.00, -1.00, 161.5, 345.7)"> </text><text xml:space="preserve" font-family="Helvetica,Helvetica" font-size="40.0" fill="#FEFC78" transform="matrix(1.00, 0.00, -0.00, -1.00, 172.6, 345.7)">4</text><text xml:space="preserve" font-family="Helvetica,Helvetica" font-size="40.0" fill="#FEFC78" transform="matrix(1.00, 0.00, -0.00, -1.00, 194.9, 345.7)">1</text><text xml:space="preserve" font-family="Helvetica,Helvetica" font-size="40.0" fill="#FEFC78" transform="matrix(1.00, 0.00, -0.00, -1.00, 217.2, 345.7)">5</text><text xml:space="preserve" font-family="Helvetica,Helvetica" font-size="40.0" fill="#FEFC78" transform="matrix(1.00, 0.00, -0.00, -1.00, 239.4, 345.7)">,</text><text xml:space="preserve" font-family="Helvetica,Helvetica" font-size="40.0" fill="#FEFC78" transform="matrix(1.00, 0.00, -0.00, -1.00, 2.0, 297.7)"> </text><text xml:space="preserve" font-family="Helvetica,Helvetica" font-size="40.0" fill="#FEFC78" transform="matrix(1.00, 0.00, -0.00, -1.00, 13.1, 297.7)"> </text><text xml:space="preserve" font-family="Helvetica,Helvetica" font-size="40.0" fill="#FEFC78" transform="matrix(1.00, 0.00, -0.00, -1.00, 24.2, 297.7)">"</text><text xml:space="preserve" font-family="Helvetica,Helvetica" font-size="40.0" fill="#FEFC78" transform="matrix(1.00, 0.00, -0.00, -1.00, 38.4, 297.7)">c</text><text xml:space="preserve" font-family="Helvetica,Helvetica" font-size="40.0" fill="#FEFC78" transform="matrix(1.00, 0.00, -0.00, -1.00, 58.4, 297.7)">o</text><text xml:space="preserve" font-family="Helvetica,Helvetica" font-size="40.0" fill="#FEFC78" transform="matrix(1.00, 0.00, -0.00, -1.00, 80.7, 297.7)">r</text><text xml:space="preserve" font-family="Helvetica,Helvetica" font-size="40.0" fill="#FEFC78" transform="matrix(1.00, 0.00, -0.00, -1.00, 94.0, 297.7)">e</text><text xml:space="preserve" font-family="Helvetica,Helvetica" font-size="40.0" fill="#FEFC78" transform="matrix(1.00, 0.00, -0.00, -1.00, 116.2, 297.7)">I</text><text xml:space="preserve" font-family="Helvetica,Helvetica" font-size="40.0" fill="#FEFC78" transform="matrix(1.00, 0.00, -0.00, -1.00, 127.3, 297.7)">n</text><text xml:space="preserve" font-family="Helvetica,Helvetica" font-size="40.0" fill="#FEFC78" transform="matrix(1.00, 0.00, -0.00, -1.00, 149.6, 297.7)">f</text><text xml:space="preserve" font-family="Helvetica,Helvetica" font-size="40.0" fill="#FEFC78" transform="matrix(1.00, 0.00, -0.00, -1.00, 160.7, 297.7)">o</text><text xml:space="preserve" font-family="Helvetica,Helvetica" font-size="40.0" fill="#FEFC78" transform="matrix(1.00, 0.00, -0.00, -1.00, 183.0, 297.7)">"</text><text xml:space="preserve" font-family="Helvetica,Helvetica" font-size="40.0" fill="#FEFC78" transform="matrix(1.00, 0.00, -0.00, -1.00, 197.2, 297.7)">:</text><text xml:space="preserve" font-family="Helvetica,Helvetica" font-size="40.0" fill="#FEFC78" transform="matrix(1.00, 0.00, -0.00, -1.00, 208.3, 297.7)"> </text><text xml:space="preserve" font-family="Helvetica,Helvetica" font-size="40.0" fill="#FEFC78" transform="matrix(1.00, 0.00, -0.00, -1.00, 219.4, 297.7)">{</text><text xml:space="preserve" font-family="Helvetica,Helvetica" font-size="40.0" fill="#FEFC78" transform="matrix(1.00, 0.00, -0.00, -1.00, 2.0, 249.7)"> </text><text xml:space="preserve" font-family="Helvetica,Helvetica" font-size="40.0" fill="#FEFC78" transform="matrix(1.00, 0.00, -0.00, -1.00, 13.1, 249.7)"> </text><text xml:space="preserve" font-family="Helvetica,Helvetica" font-size="40.0" fill="#FEFC78" transform="matrix(1.00, 0.00, -0.00, -1.00, 24.2, 249.7)"> </text><text xml:space="preserve" font-family="Helvetica,Helvetica" font-size="40.0" fill="#FEFC78" transform="matrix(1.00, 0.00, -0.00, -1.00, 35.3, 249.7)"> </text><text xml:space="preserve" font-family="Helvetica,Helvetica" font-size="40.0" fill="#FEFC78" transform="matrix(1.00, 0.00, -0.00, -1.00, 46.4, 249.7)">"</text><text xml:space="preserve" font-family="Helvetica,Helvetica" font-size="40.0" fill="#FEFC78" transform="matrix(1.00, 0.00, -0.00, -1.00, 60.6, 249.7)">l</text><text xml:space="preserve" font-family="Helvetica,Helvetica" font-size="40.0" fill="#FEFC78" transform="matrix(1.00, 0.00, -0.00, -1.00, 69.5, 249.7)">a</text><text xml:space="preserve" font-family="Helvetica,Helvetica" font-size="40.0" fill="#FEFC78" transform="matrix(1.00, 0.00, -0.00, -1.00, 91.8, 249.7)">s</text><text xml:space="preserve" font-family="Helvetica,Helvetica" font-size="40.0" fill="#FEFC78" transform="matrix(1.00, 0.00, -0.00, -1.00, 111.8, 249.7)">t</text><text xml:space="preserve" font-family="Helvetica,Helvetica" font-size="40.0" fill="#FEFC78" transform="matrix(1.00, 0.00, -0.00, -1.00, 122.9, 249.7)">_</text><text xml:space="preserve" font-family="Helvetica,Helvetica" font-size="40.0" fill="#FEFC78" transform="matrix(1.00, 0.00, -0.00, -1.00, 145.1, 249.7)">a</text><text xml:space="preserve" font-family="Helvetica,Helvetica" font-size="40.0" fill="#FEFC78" transform="matrix(1.00, 0.00, -0.00, -1.00, 167.4, 249.7)">p</text><text xml:space="preserve" font-family="Helvetica,Helvetica" font-size="40.0" fill="#FEFC78" transform="matrix(1.00, 0.00, -0.00, -1.00, 189.6, 249.7)">p</text><text xml:space="preserve" font-family="Helvetica,Helvetica" font-size="40.0" fill="#FEFC78" transform="matrix(1.00, 0.00, -0.00, -1.00, 211.9, 249.7)">"</text><text xml:space="preserve" font-family="Helvetica,Helvetica" font-size="40.0" fill="#FEFC78" transform="matrix(1.00, 0.00, -0.00, -1.00, 226.1, 249.7)">:</text><text xml:space="preserve" font-family="Helvetica,Helvetica" font-size="40.0" fill="#FEFC78" transform="matrix(1.00, 0.00, -0.00, -1.00, 237.2, 249.7)"> </text><text xml:space="preserve" font-family="Helvetica,Helvetica" font-size="40.0" fill="#FEFC78" transform="matrix(1.00, 0.00, -0.00, -1.00, 248.3, 249.7)">"</text><text xml:space="preserve" font-family="Helvetica,Helvetica" font-size="40.0" fill="#FEFC78" transform="matrix(1.00, 0.00, -0.00, -1.00, 262.5, 249.7)">"</text><text xml:space="preserve" font-family="Helvetica,Helvetica" font-size="40.0" fill="#FEFC78" transform="matrix(1.00, 0.00, -0.00, -1.00, 276.7, 249.7)">,</text><text xml:space="preserve" font-family="Helvetica,Helvetica" font-size="40.0" fill="#FEFC78" transform="matrix(1.00, 0.00, -0.00, -1.00, 2.0, 201.7)"> </text><text xml:space="preserve" font-family="Helvetica,Helvetica" font-size="40.0" fill="#FEFC78" transform="matrix(1.00, 0.00, -0.00, -1.00, 13.1, 201.7)"> </text><text xml:space="preserve" font-family="Helvetica,Helvetica" font-size="40.0" fill="#FEFC78" transform="matrix(1.00, 0.00, -0.00, -1.00, 24.2, 201.7)"> </text><text xml:space="preserve" font-family="Helvetica,Helvetica" font-size="40.0" fill="#FEFC78" transform="matrix(1.00, 0.00, -0.00, -1.00, 35.3, 201.7)"> </text><text xml:space="preserve" font-family="Helvetica,Helvetica" font-size="40.0" fill="#FEFC78" transform="matrix(1.00, 0.00, -0.00, -1.00, 46.4, 201.7)">"</text><text xml:space="preserve" font-family="Helvetica,Helvetica" font-size="40.0" fill="#FEFC78" transform="matrix(1.00, 0.00, -0.00, -1.00, 60.6, 201.7)">l</text><text xml:space="preserve" font-family="Helvetica,Helvetica" font-size="40.0" fill="#FEFC78" transform="matrix(1.00, 0.00, -0.00, -1.00, 69.5, 201.7)">a</text><text xml:space="preserve" font-family="Helvetica,Helvetica" font-size="40.0" fill="#FEFC78" transform="matrix(1.00, 0.00, -0.00, -1.00, 91.8, 201.7)">s</text><text xml:space="preserve" font-family="Helvetica,Helvetica" font-size="40.0" fill="#FEFC78" transform="matrix(1.00, 0.00, -0.00, -1.00, 111.8, 201.7)">t</text><text xml:space="preserve" font-family="Helvetica,Helvetica" font-size="40.0" fill="#FEFC78" transform="matrix(1.00, 0.00, -0.00, -1.00, 122.9, 201.7)">_</text><text xml:space="preserve" font-family="Helvetica,Helvetica" font-size="40.0" fill="#FEFC78" transform="matrix(1.00, 0.00, -0.00, -1.00, 145.1, 201.7)">h</text><text xml:space="preserve" font-family="Helvetica,Helvetica" font-size="40.0" fill="#FEFC78" transform="matrix(1.00, 0.00, -0.00, -1.00, 167.4, 201.7)">e</text><text xml:space="preserve" font-family="Helvetica,Helvetica" font-size="40.0" fill="#FEFC78" transform="matrix(1.00, 0.00, -0.00, -1.00, 189.6, 201.7)">a</text><text xml:space="preserve" font-family="Helvetica,Helvetica" font-size="40.0" fill="#FEFC78" transform="matrix(1.00, 0.00, -0.00, -1.00, 211.9, 201.7)">r</text><text xml:space="preserve" font-family="Helvetica,Helvetica" font-size="40.0" fill="#FEFC78" transform="matrix(1.00, 0.00, -0.00, -1.00, 225.2, 201.7)">d</text><text xml:space="preserve" font-family="Helvetica,Helvetica" font-size="40.0" fill="#FEFC78" transform="matrix(1.00, 0.00, -0.00, -1.00, 247.5, 201.7)">"</text><text xml:space="preserve" font-family="Helvetica,Helvetica" font-size="40.0" fill="#FEFC78" transform="matrix(1.00, 0.00, -0.00, -1.00, 261.7, 201.7)">:</text><text xml:space="preserve" font-family="Helvetica,Helvetica" font-size="40.0" fill="#FEFC78" transform="matrix(1.00, 0.00, -0.00, -1.00, 272.8, 201.7)"> </text><text xml:space="preserve" font-family="Helvetica,Helvetica" font-size="40.0" fill="#FEFC78" transform="matrix(1.00, 0.00, -0.00, -1.00, 283.9, 201.7)">"</text><text xml:space="preserve" font-family="Helvetica,Helvetica" font-size="40.0" fill="#FEFC78" transform="matrix(1.00, 0.00, -0.00, -1.00, 298.1, 201.7)">2</text><text xml:space="preserve" font-family="Helvetica,Helvetica" font-size="40.0" fill="#FEFC78" transform="matrix(1.00, 0.00, -0.00, -1.00, 320.3, 201.7)">0</text><text xml:space="preserve" font-family="Helvetica,Helvetica" font-size="40.0" fill="#FEFC78" transform="matrix(1.00, 0.00, -0.00, -1.00, 342.6, 201.7)">1</text><text xml:space="preserve" font-family="Helvetica,Helvetica" font-size="40.0" fill="#FEFC78" transform="matrix(1.00, 0.00, -0.00, -1.00, 364.8, 201.7)">4</text><text xml:space="preserve" font-family="Helvetica,Helvetica" font-size="40.0" fill="#FEFC78" transform="matrix(1.00, 0.00, -0.00, -1.00, 387.1, 201.7)">-</text><text xml:space="preserve" font-family="Helvetica,Helvetica" font-size="40.0" fill="#FEFC78" transform="matrix(1.00, 0.00, -0.00, -1.00, 400.4, 201.7)">0</text><text xml:space="preserve" font-family="Helvetica,Helvetica" font-size="40.0" fill="#FEFC78" transform="matrix(1.00, 0.00, -0.00, -1.00, 422.7, 201.7)">2</text><text xml:space="preserve" font-family="Helvetica,Helvetica" font-size="40.0" fill="#FEFC78" transform="matrix(1.00, 0.00, -0.00, -1.00, 444.9, 201.7)">-</text><text xml:space="preserve" font-family="Helvetica,Helvetica" font-size="40.0" fill="#FEFC78" transform="matrix(1.00, 0.00, -0.00, -1.00, 458.2, 201.7)">1</text><text xml:space="preserve" font-family="Helvetica,Helvetica" font-size="40.0" fill="#FEFC78" transform="matrix(1.00, 0.00, -0.00, -1.00, 480.5, 201.7)">6</text><text xml:space="preserve" font-family="Helvetica,Helvetica" font-size="40.0" fill="#FEFC78" transform="matrix(1.00, 0.00, -0.00, -1.00, 502.7, 201.7)">T</text><text xml:space="preserve" font-family="Helvetica,Helvetica" font-size="40.0" fill="#FEFC78" transform="matrix(1.00, 0.00, -0.00, -1.00, 527.2, 201.7)">0</text><text xml:space="preserve" font-family="Helvetica,Helvetica" font-size="40.0" fill="#FEFC78" transform="matrix(1.00, 0.00, -0.00, -1.00, 549.4, 201.7)">4</text><text xml:space="preserve" font-family="Helvetica,Helvetica" font-size="40.0" fill="#FEFC78" transform="matrix(1.00, 0.00, -0.00, -1.00, 571.7, 201.7)">:</text><text xml:space="preserve" font-family="Helvetica,Helvetica" font-size="40.0" fill="#FEFC78" transform="matrix(1.00, 0.00, -0.00, -1.00, 582.8, 201.7)">4</text><text xml:space="preserve" font-family="Helvetica,Helvetica" font-size="40.0" fill="#FEFC78" transform="matrix(1.00, 0.00, -0.00, -1.00, 605.0, 201.7)">5</text><text xml:space="preserve" font-family="Helvetica,Helvetica" font-size="40.0" fill="#FEFC78" transform="matrix(1.00, 0.00, -0.00, -1.00, 627.3, 201.7)">:</text><text xml:space="preserve" font-family="Helvetica,Helvetica" font-size="40.0" fill="#FEFC78" transform="matrix(1.00, 0.00, -0.00, -1.00, 638.4, 201.7)">3</text><text xml:space="preserve" font-family="Helvetica,Helvetica" font-size="40.0" fill="#FEFC78" transform="matrix(1.00, 0.00, -0.00, -1.00, 660.7, 201.7)">0</text><text xml:space="preserve" font-family="Helvetica,Helvetica" font-size="40.0" fill="#FEFC78" transform="matrix(1.00, 0.00, -0.00, -1.00, 682.9, 201.7)">.</text><text xml:space="preserve" font-family="Helvetica,Helvetica" font-size="40.0" fill="#FEFC78" transform="matrix(1.00, 0.00, -0.00, -1.00, 694.0, 201.7)">2</text><text xml:space="preserve" font-family="Helvetica,Helvetica" font-size="40.0" fill="#FEFC78" transform="matrix(1.00, 0.00, -0.00, -1.00, 716.3, 201.7)">9</text><text xml:space="preserve" font-family="Helvetica,Helvetica" font-size="40.0" fill="#FEFC78" transform="matrix(1.00, 0.00, -0.00, -1.00, 738.5, 201.7)">7</text><text xml:space="preserve" font-family="Helvetica,Helvetica" font-size="40.0" fill="#FEFC78" transform="matrix(1.00, 0.00, -0.00, -1.00, 760.8, 201.7)">Z</text><text xml:space="preserve" font-family="Helvetica,Helvetica" font-size="40.0" fill="#FEFC78" transform="matrix(1.00, 0.00, -0.00, -1.00, 785.2, 201.7)">"</text><text xml:space="preserve" font-family="Helvetica,Helvetica" font-size="40.0" fill="#FEFC78" transform="matrix(1.00, 0.00, -0.00, -1.00, 799.4, 201.7)">,</text><text xml:space="preserve" font-family="Helvetica,Helvetica" font-size="40.0" fill="#FEFC78" transform="matrix(1.00, 0.00, -0.00, -1.00, 2.0, 153.7)"> </text><text xml:space="preserve" font-family="Helvetica,Helvetica" font-size="40.0" fill="#FEFC78" transform="matrix(1.00, 0.00, -0.00, -1.00, 13.1, 153.7)"> </text><text xml:space="preserve" font-family="Helvetica,Helvetica" font-size="40.0" fill="#FEFC78" transform="matrix(1.00, 0.00, -0.00, -1.00, 24.2, 153.7)"> </text><text xml:space="preserve" font-family="Helvetica,Helvetica" font-size="40.0" fill="#FEFC78" transform="matrix(1.00, 0.00, -0.00, -1.00, 35.3, 153.7)"> </text><text xml:space="preserve" font-family="Helvetica,Helvetica" font-size="40.0" fill="#FEFC78" transform="matrix(1.00, 0.00, -0.00, -1.00, 46.4, 153.7)">"</text><text xml:space="preserve" font-family="Helvetica,Helvetica" font-size="40.0" fill="#FEFC78" transform="matrix(1.00, 0.00, -0.00, -1.00, 60.6, 153.7)">c</text><text xml:space="preserve" font-family="Helvetica,Helvetica" font-size="40.0" fill="#FEFC78" transform="matrix(1.00, 0.00, -0.00, -1.00, 80.6, 153.7)">o</text><text xml:space="preserve" font-family="Helvetica,Helvetica" font-size="40.0" fill="#FEFC78" transform="matrix(1.00, 0.00, -0.00, -1.00, 102.9, 153.7)">n</text><text xml:space="preserve" font-family="Helvetica,Helvetica" font-size="40.0" fill="#FEFC78" transform="matrix(1.00, 0.00, -0.00, -1.00, 125.1, 153.7)">n</text><text xml:space="preserve" font-family="Helvetica,Helvetica" font-size="40.0" fill="#FEFC78" transform="matrix(1.00, 0.00, -0.00, -1.00, 147.4, 153.7)">e</text><text xml:space="preserve" font-family="Helvetica,Helvetica" font-size="40.0" fill="#FEFC78" transform="matrix(1.00, 0.00, -0.00, -1.00, 169.6, 153.7)">c</text><text xml:space="preserve" font-family="Helvetica,Helvetica" font-size="40.0" fill="#FEFC78" transform="matrix(1.00, 0.00, -0.00, -1.00, 189.6, 153.7)">t</text><text xml:space="preserve" font-family="Helvetica,Helvetica" font-size="40.0" fill="#FEFC78" transform="matrix(1.00, 0.00, -0.00, -1.00, 200.7, 153.7)">e</text><text xml:space="preserve" font-family="Helvetica,Helvetica" font-size="40.0" fill="#FEFC78" transform="matrix(1.00, 0.00, -0.00, -1.00, 223.0, 153.7)">d</text><text xml:space="preserve" font-family="Helvetica,Helvetica" font-size="40.0" fill="#FEFC78" transform="matrix(1.00, 0.00, -0.00, -1.00, 245.3, 153.7)">"</text><text xml:space="preserve" font-family="Helvetica,Helvetica" font-size="40.0" fill="#FEFC78" transform="matrix(1.00, 0.00, -0.00, -1.00, 259.4, 153.7)">:</text><text xml:space="preserve" font-family="Helvetica,Helvetica" font-size="40.0" fill="#FEFC78" transform="matrix(1.00, 0.00, -0.00, -1.00, 270.6, 153.7)"> </text><text xml:space="preserve" font-family="Helvetica,Helvetica" font-size="40.0" fill="#FEFC78" transform="matrix(1.00, 0.00, -0.00, -1.00, 281.7, 153.7)">t</text><text xml:space="preserve" font-family="Helvetica,Helvetica" font-size="40.0" fill="#FEFC78" transform="matrix(1.00, 0.00, -0.00, -1.00, 292.8, 153.7)">r</text><text xml:space="preserve" font-family="Helvetica,Helvetica" font-size="40.0" fill="#FEFC78" transform="matrix(1.00, 0.00, -0.00, -1.00, 306.1, 153.7)">u</text><text xml:space="preserve" font-family="Helvetica,Helvetica" font-size="40.0" fill="#FEFC78" transform="matrix(1.00, 0.00, -0.00, -1.00, 328.3, 153.7)">e</text><text xml:space="preserve" font-family="Helvetica,Helvetica" font-size="40.0" fill="#FEFC78" transform="matrix(1.00, 0.00, -0.00, -1.00, 350.6, 153.7)">,</text><text xml:space="preserve" font-family="Helvetica,Helvetica" font-size="40.0" fill="#FEFC78" transform="matrix(1.00, 0.00, -0.00, -1.00, 2.0, 105.7)"> </text><text xml:space="preserve" font-family="Helvetica,Helvetica" font-size="40.0" fill="#FEFC78" transform="matrix(1.00, 0.00, -0.00, -1.00, 13.1, 105.7)"> </text><text xml:space="preserve" font-family="Helvetica,Helvetica" font-size="40.0" fill="#FEFC78" transform="matrix(1.00, 0.00, -0.00, -1.00, 24.2, 105.7)"> </text><text xml:space="preserve" font-family="Helvetica,Helvetica" font-size="40.0" fill="#FEFC78" transform="matrix(1.00, 0.00, -0.00, -1.00, 35.3, 105.7)"> </text><text xml:space="preserve" font-family="Helvetica,Helvetica" font-size="40.0" fill="#FEFC78" transform="matrix(1.00, 0.00, -0.00, -1.00, 46.4, 105.7)">"</text><text xml:space="preserve" font-family="Helvetica,Helvetica" font-size="40.0" fill="#FEFC78" transform="matrix(1.00, 0.00, -0.00, -1.00, 60.6, 105.7)">d</text><text xml:space="preserve" font-family="Helvetica,Helvetica" font-size="40.0" fill="#FEFC78" transform="matrix(1.00, 0.00, -0.00, -1.00, 82.9, 105.7)">e</text><text xml:space="preserve" font-family="Helvetica,Helvetica" font-size="40.0" fill="#FEFC78" transform="matrix(1.00, 0.00, -0.00, -1.00, 105.1, 105.7)">v</text><text xml:space="preserve" font-family="Helvetica,Helvetica" font-size="40.0" fill="#FEFC78" transform="matrix(1.00, 0.00, -0.00, -1.00, 125.1, 105.7)">i</text><text xml:space="preserve" font-family="Helvetica,Helvetica" font-size="40.0" fill="#FEFC78" transform="matrix(1.00, 0.00, -0.00, -1.00, 134.0, 105.7)">c</text><text xml:space="preserve" font-family="Helvetica,Helvetica" font-size="40.0" fill="#FEFC78" transform="matrix(1.00, 0.00, -0.00, -1.00, 154.0, 105.7)">e</text><text xml:space="preserve" font-family="Helvetica,Helvetica" font-size="40.0" fill="#FEFC78" transform="matrix(1.00, 0.00, -0.00, -1.00, 176.3, 105.7)">I</text><text xml:space="preserve" font-family="Helvetica,Helvetica" font-size="40.0" fill="#FEFC78" transform="matrix(1.00, 0.00, -0.00, -1.00, 187.4, 105.7)">D</text><text xml:space="preserve" font-family="Helvetica,Helvetica" font-size="40.0" fill="#FEFC78" transform="matrix(1.00, 0.00, -0.00, -1.00, 216.3, 105.7)">"</text><text xml:space="preserve" font-family="Helvetica,Helvetica" font-size="40.0" fill="#FEFC78" transform="matrix(1.00, 0.00, -0.00, -1.00, 230.5, 105.7)">:</text><text xml:space="preserve" font-family="Helvetica,Helvetica" font-size="40.0" fill="#FEFC78" transform="matrix(1.00, 0.00, -0.00, -1.00, 241.6, 105.7)"> </text><text xml:space="preserve" font-family="Helvetica,Helvetica" font-size="40.0" fill="#FEFC78" transform="matrix(1.00, 0.00, -0.00, -1.00, 252.7, 105.7)">"</text><text xml:space="preserve" font-family="Helvetica,Helvetica" font-size="40.0" fill="#FEFC78" transform="matrix(1.00, 0.00, -0.00, -1.00, 266.9, 105.7)">4</text><text xml:space="preserve" font-family="Helvetica,Helvetica" font-size="40.0" fill="#FEFC78" transform="matrix(1.00, 0.00, -0.00, -1.00, 289.1, 105.7)">8</text><text xml:space="preserve" font-family="Helvetica,Helvetica" font-size="40.0" fill="#FEFC78" transform="matrix(1.00, 0.00, -0.00, -1.00, 311.4, 105.7)">f</text><text xml:space="preserve" font-family="Helvetica,Helvetica" font-size="40.0" fill="#FEFC78" transform="matrix(1.00, 0.00, -0.00, -1.00, 321.8, 105.7)">f</text><text xml:space="preserve" font-family="Helvetica,Helvetica" font-size="40.0" fill="#FEFC78" transform="matrix(1.00, 0.00, -0.00, -1.00, 332.9, 105.7)">6</text><text xml:space="preserve" font-family="Helvetica,Helvetica" font-size="40.0" fill="#FEFC78" transform="matrix(1.00, 0.00, -0.00, -1.00, 355.2, 105.7)">b</text><text xml:space="preserve" font-family="Helvetica,Helvetica" font-size="40.0" fill="#FEFC78" transform="matrix(1.00, 0.00, -0.00, -1.00, 377.4, 105.7)">0</text><text xml:space="preserve" font-family="Helvetica,Helvetica" font-size="40.0" fill="#FEFC78" transform="matrix(1.00, 0.00, -0.00, -1.00, 399.7, 105.7)">6</text><text xml:space="preserve" font-family="Helvetica,Helvetica" font-size="40.0" fill="#FEFC78" transform="matrix(1.00, 0.00, -0.00, -1.00, 421.9, 105.7)">5</text><text xml:space="preserve" font-family="Helvetica,Helvetica" font-size="40.0" fill="#FEFC78" transform="matrix(1.00, 0.00, -0.00, -1.00, 444.2, 105.7)">0</text><text xml:space="preserve" font-family="Helvetica,Helvetica" font-size="40.0" fill="#FEFC78" transform="matrix(1.00, 0.00, -0.00, -1.00, 466.4, 105.7)">6</text><text xml:space="preserve" font-family="Helvetica,Helvetica" font-size="40.0" fill="#FEFC78" transform="matrix(1.00, 0.00, -0.00, -1.00, 488.7, 105.7)">7</text><text xml:space="preserve" font-family="Helvetica,Helvetica" font-size="40.0" fill="#FEFC78" transform="matrix(1.00, 0.00, -0.00, -1.00, 510.9, 105.7)">5</text><text xml:space="preserve" font-family="Helvetica,Helvetica" font-size="40.0" fill="#FEFC78" transform="matrix(1.00, 0.00, -0.00, -1.00, 533.2, 105.7)">5</text><text xml:space="preserve" font-family="Helvetica,Helvetica" font-size="40.0" fill="#FEFC78" transform="matrix(1.00, 0.00, -0.00, -1.00, 555.4, 105.7)">5</text><text xml:space="preserve" font-family="Helvetica,Helvetica" font-size="40.0" fill="#FEFC78" transform="matrix(1.00, 0.00, -0.00, -1.00, 577.7, 105.7)">0</text><text xml:space="preserve" font-family="Helvetica,Helvetica" font-size="40.0" fill="#FEFC78" transform="matrix(1.00, 0.00, -0.00, -1.00, 600.0, 105.7)">1</text><text xml:space="preserve" font-family="Helvetica,Helvetica" font-size="40.0" fill="#FEFC78" transform="matrix(1.00, 0.00, -0.00, -1.00, 622.2, 105.7)">7</text><text xml:space="preserve" font-family="Helvetica,Helvetica" font-size="40.0" fill="#FEFC78" transform="matrix(1.00, 0.00, -0.00, -1.00, 644.5, 105.7)">5</text><text xml:space="preserve" font-family="Helvetica,Helvetica" font-size="40.0" fill="#FEFC78" transform="matrix(1.00, 0.00, -0.00, -1.00, 666.7, 105.7)">3</text><text xml:space="preserve" font-family="Helvetica,Helvetica" font-size="40.0" fill="#FEFC78" transform="matrix(1.00, 0.00, -0.00, -1.00, 689.0, 105.7)">1</text><text xml:space="preserve" font-family="Helvetica,Helvetica" font-size="40.0" fill="#FEFC78" transform="matrix(1.00, 0.00, -0.00, -1.00, 711.2, 105.7)">2</text><text xml:space="preserve" font-family="Helvetica,Helvetica" font-size="40.0" fill="#FEFC78" transform="matrix(1.00, 0.00, -0.00, -1.00, 733.5, 105.7)">8</text><text xml:space="preserve" font-family="Helvetica,Helvetica" font-size="40.0" fill="#FEFC78" transform="matrix(1.00, 0.00, -0.00, -1.00, 755.7, 105.7)">7</text><text xml:space="preserve" font-family="Helvetica,Helvetica" font-size="40.0" fill="#FEFC78" transform="matrix(1.00, 0.00, -0.00, -1.00, 778.0, 105.7)">"</text><text xml:space="preserve" font-family="Helvetica,Helvetica" font-size="40.0" fill="#FEFC78" transform="matrix(1.00, 0.00, -0.00, -1.00, 2.0, 57.7)"> </text><text xml:space="preserve" font-family="Helvetica,Helvetica" font-size="40.0" fill="#FEFC78" transform="matrix(1.00, 0.00, -0.00, -1.00, 13.1, 57.7)"> </text><text xml:space="preserve" font-family="Helvetica,Helvetica" font-size="40.0" fill="#FEFC78" transform="matrix(1.00, 0.00, -0.00, -1.00, 24.2, 57.7)">}</text><text xml:space="preserve" font-family="Helvetica,Helvetica" font-size="40.0" fill="#FEFC78" transform="matrix(1.00, 0.00, -0.00, -1.00, 2.0, 9.7)">}</text></g></svg>