<?xml version="1.0" encoding="UTF-8" standalone="no"?><svg xmlns="http://www.w3.org/2000/svg" xmlns:xlink="http://www.w3.org/1999/xlink" clip-rule="evenodd" stroke-miterlimit="10" viewBox="0 0 284 74"><desc>SVG generated by Keynote</desc><defs></defs><g transform="matrix(1.00, 0.00, -0.00, -1.00, 0.0, 74.0)"><path d="M 69.6 5.8 C 69.2 5.9 68.8 6.0 68.1 6.1 C 68.4 6.1 68.6 6.2 68.6 6.3 C 69.2 6.2 70.0 6.0 71.2 5.9 C 71.1 5.8 70.5 5.9 70.1 5.9 C 69.6 6.0 69.7 5.8 69.6 5.8 C 69.6 5.8 69.6 5.8 69.6 5.8 Z M 69.7 66.5 C 68.7 66.3 69.8 66.8 70.2 66.9 C 70.2 66.8 70.3 66.8 70.7 66.9 C 70.7 67.1 69.8 67.1 69.1 67.1 C 66.3 66.5 68.5 66.3 69.7 66.5 C 69.7 66.5 69.7 66.5 69.7 66.5 Z M 217.3 65.9 C 219.5 65.6 217.1 65.6 216.7 65.6 C 217.7 65.3 216.8 65.0 218.1 64.8 C 218.4 64.9 218.9 64.9 219.2 65.0 C 218.6 65.1 217.8 65.2 217.7 65.3 C 218.5 65.2 219.5 65.0 219.7 65.1 C 218.0 65.5 219.4 65.5 219.8 65.6 C 218.3 65.8 217.8 66.2 217.3 65.9 C 217.3 65.9 217.3 65.9 217.3 65.9 Z M 242.4 12.5 C 243.5 12.8 244.3 13.0 244.1 13.1 C 242.9 12.8 242.2 12.6 241.5 12.4 C 241.3 12.5 241.6 12.7 240.6 12.5 C 239.4 11.9 240.1 11.7 240.8 11.7 C 240.8 12.0 244.7 12.8 242.4 12.5 C 242.4 12.5 242.4 12.5 242.4 12.5 Z M 183.8 4.6 C 181.8 4.3 183.7 5.1 181.6 4.8 C 181.7 4.5 181.4 4.2 182.8 4.2 C 182.9 4.4 183.7 4.5 183.8 4.6 C 183.8 4.6 183.8 4.6 183.8 4.6 Z M 155.7 68.5 C 155.7 68.7 157.2 68.6 156.9 68.9 C 156.1 68.9 155.4 68.9 154.6 68.9 C 154.4 68.7 154.7 68.5 155.7 68.5 C 155.7 68.5 155.7 68.5 155.7 68.5 Z M 231.2 60.6 C 233.4 60.5 235.5 59.6 234.9 60.0 C 235.7 60.2 233.6 61.2 233.6 60.8 C 233.3 60.5 229.6 60.9 231.2 60.6 C 231.2 60.6 231.2 60.6 231.2 60.6 Z M 82.2 62.8 C 84.7 63.4 84.3 62.4 85.9 63.0 C 85.3 63.0 85.0 63.0 84.8 63.1 C 85.2 63.2 85.8 63.2 85.8 63.3 C 84.6 63.2 83.2 63.2 82.2 62.8 C 82.2 62.8 82.2 62.8 82.2 62.8 Z M 106.1 2.9 C 106.5 2.9 106.8 2.8 106.7 2.7 C 108.4 2.6 108.4 2.4 109.5 2.5 C 109.6 2.9 108.1 2.9 106.7 2.9 C 106.7 3.0 106.2 3.0 106.1 2.9 C 106.1 2.9 106.1 2.9 106.1 2.9 Z M 156.3 3.1 C 156.3 2.9 155.2 2.8 156.9 2.7 C 158.8 3.1 157.1 3.4 155.1 3.5 C 155.1 3.6 155.1 3.8 155.1 3.9 C 155.9 3.9 156.4 4.0 156.8 4.0 C 157.2 3.6 158.4 4.5 161.4 4.3 C 160.0 4.4 161.5 4.8 159.7 4.6 C 160.1 4.9 158.9 4.8 159.1 5.1 C 159.9 5.0 161.8 5.1 161.4 4.7 C 162.4 4.7 163.1 4.7 163.6 4.8 C 164.3 5.2 161.8 4.9 162.5 5.2 C 163.1 5.2 163.2 5.3 163.6 5.3 C 163.7 5.2 163.5 5.1 164.2 5.1 C 166.0 5.2 163.8 5.4 166.4 5.5 C 166.6 5.4 165.8 5.3 165.9 5.1 C 167.1 5.0 167.0 5.2 168.2 5.1 C 168.4 5.3 167.3 5.3 168.1 5.4 C 168.9 5.0 170.5 5.8 172.1 5.5 C 171.0 4.8 172.4 5.6 173.8 5.1 C 174.1 5.3 173.1 5.6 174.3 5.7 C 173.9 4.9 178.9 5.4 174.9 4.6 C 177.1 4.7 177.8 4.1 176.1 3.9 C 179.8 4.3 178.6 3.8 180.0 3.9 C 181.5 4.0 179.3 4.0 180.0 4.3 C 178.5 4.2 178.9 4.4 177.8 4.1 C 177.8 4.3 177.5 4.3 177.2 4.4 C 178.7 4.3 180.5 4.8 179.4 5.1 C 178.6 5.0 179.3 4.7 178.3 4.7 C 178.7 5.1 177.2 4.5 177.2 4.8 C 177.8 5.2 175.6 5.4 177.7 5.6 C 177.7 5.5 177.7 5.3 177.7 5.1 C 178.3 5.2 178.8 5.2 179.4 5.2 C 179.8 5.6 179.4 5.7 179.9 5.9 C 180.8 5.9 181.3 5.9 181.6 5.8 C 180.5 5.6 179.1 5.3 181.0 5.3 C 180.3 5.9 183.7 5.7 182.1 5.9 C 184.2 6.2 185.2 5.8 185.4 6.2 C 186.5 6.3 185.8 5.9 187.1 6.1 C 189.1 6.5 188.7 6.0 191.4 6.5 C 191.8 6.1 191.7 6.7 192.5 6.7 C 192.5 6.6 192.5 6.4 192.6 6.2 C 193.5 6.6 195.6 6.9 197.9 6.8 C 198.4 7.0 198.0 7.2 199.5 7.3 C 201.0 7.0 202.8 7.7 204.7 7.5 C 204.9 7.7 206.1 7.9 206.8 7.8 C 207.1 8.0 206.1 8.3 207.3 8.4 C 208.1 8.2 206.7 7.9 208.4 8.0 C 208.2 8.3 209.9 7.9 209.9 8.3 C 209.4 8.3 208.8 8.4 208.3 8.4 C 209.0 8.5 208.8 8.6 209.3 8.7 C 209.3 8.3 210.5 8.8 210.9 8.9 C 210.8 8.8 211.0 8.6 211.4 8.6 C 212.3 8.7 213.0 8.8 213.5 8.8 C 214.6 9.1 212.8 8.9 213.9 9.2 C 214.6 8.5 215.6 9.5 218.0 9.3 C 218.5 9.6 219.4 9.9 220.9 10.2 C 221.0 10.0 219.5 9.9 219.4 9.7 C 221.6 10.1 219.1 9.4 220.5 9.6 C 223.5 10.3 225.5 10.6 228.5 11.4 C 228.5 11.2 231.0 11.4 230.9 11.5 C 230.3 11.5 232.1 12.2 233.1 12.4 C 233.5 12.0 235.1 11.8 235.2 11.6 C 235.5 11.9 235.4 11.9 235.5 12.4 C 237.1 12.9 237.5 12.5 239.5 13.4 C 239.3 13.2 240.9 13.5 242.2 13.7 C 241.8 13.8 241.0 13.8 240.3 13.8 C 242.0 14.2 242.2 14.4 243.6 14.8 C 245.3 14.3 247.4 15.9 248.7 15.5 C 250.9 16.1 250.4 16.3 252.3 16.8 C 252.3 16.6 252.5 16.6 253.1 16.7 C 251.8 16.4 250.8 16.3 250.2 15.8 C 253.2 16.6 244.8 13.4 249.8 14.4 C 249.9 14.6 249.4 14.7 250.4 15.0 C 253.2 15.7 251.6 14.9 250.5 14.6 C 252.4 15.0 254.2 15.7 252.9 14.9 C 257.0 16.1 254.4 15.5 255.7 16.1 C 262.7 18.2 270.0 21.1 274.7 25.3 C 275.2 25.1 277.4 27.5 277.8 28.4 C 279.1 29.4 280.0 30.7 279.9 31.3 C 280.3 31.4 280.4 33.1 280.8 33.1 C 280.5 32.5 280.5 32.1 280.8 32.6 C 281.4 34.8 281.2 37.9 281.2 39.2 C 280.6 39.9 280.2 41.2 279.9 42.1 C 279.6 42.2 279.9 41.5 279.6 42.0 C 279.7 42.2 278.7 44.1 278.2 44.3 C 278.6 43.9 278.7 43.1 278.1 43.8 C 278.3 43.9 277.5 44.7 277.9 44.7 C 276.9 45.6 276.4 46.3 275.3 47.0 C 276.1 46.3 276.4 45.8 276.4 45.5 C 275.9 46.2 275.5 46.7 274.7 47.0 C 275.2 47.2 273.9 47.9 272.7 48.9 C 272.3 49.0 271.9 49.1 270.8 49.8 C 270.4 50.3 272.7 49.0 271.5 49.8 C 271.4 49.7 270.1 50.3 270.6 50.4 C 268.9 51.1 268.1 51.8 266.6 52.3 C 268.5 51.5 266.9 51.7 266.4 51.9 C 266.0 52.1 265.4 52.4 265.4 52.5 C 265.4 52.6 266.4 52.1 266.5 52.2 C 265.2 52.7 265.0 53.3 264.4 53.3 C 265.0 53.0 265.0 52.8 264.3 53.1 C 264.3 53.6 260.0 55.0 261.4 54.2 C 261.4 54.3 263.0 53.7 263.1 53.5 C 262.6 53.5 260.2 54.7 260.6 54.1 C 262.1 53.5 262.1 53.8 263.6 53.0 C 263.7 52.8 264.6 52.3 265.1 51.9 C 262.7 53.0 262.2 53.6 261.7 53.4 C 260.6 53.9 261.4 54.0 259.4 54.6 C 256.4 55.6 258.7 54.4 257.9 54.6 C 255.3 55.7 256.3 55.8 257.5 55.7 C 255.4 56.4 254.8 56.9 251.9 57.6 C 252.0 57.4 252.4 57.2 253.3 56.8 C 253.4 56.8 255.8 56.3 255.5 56.2 C 255.1 55.8 253.3 56.3 250.2 57.1 C 251.0 57.3 251.1 57.1 247.9 58.0 C 248.6 58.2 246.3 58.3 246.3 58.6 C 246.5 58.7 247.7 58.3 248.8 58.0 C 248.7 58.2 248.4 58.5 247.3 58.8 C 246.6 58.9 246.1 59.2 244.0 59.6 C 243.8 59.4 245.2 59.0 245.5 58.7 C 244.4 59.0 244.2 59.2 243.1 59.5 C 242.0 59.5 242.0 59.1 242.0 58.7 C 243.3 58.2 245.3 57.7 243.6 58.0 C 248.5 56.7 243.5 58.4 245.3 58.0 C 247.2 57.1 246.3 57.9 249.3 57.1 C 250.2 56.8 250.4 56.6 250.8 56.4 C 250.5 56.4 248.8 56.6 250.7 56.0 C 251.2 56.1 252.2 55.9 253.7 55.5 C 253.6 55.4 250.6 56.2 253.6 55.2 C 255.0 54.8 253.9 55.6 255.8 54.9 C 255.8 54.8 256.3 54.6 256.4 54.5 C 253.7 55.5 256.9 54.1 254.9 54.6 C 257.3 53.6 255.5 54.8 257.0 54.2 C 257.0 54.0 259.6 53.5 259.5 53.1 C 258.6 53.6 256.7 54.2 256.9 53.8 C 258.6 53.3 265.6 50.1 263.1 51.8 C 264.0 51.1 268.2 48.6 268.0 49.0 C 266.7 49.6 266.9 49.8 266.8 50.0 C 269.0 48.5 270.3 48.1 272.1 46.3 C 269.9 47.8 271.2 46.3 269.7 46.9 C 269.1 47.3 268.1 47.8 268.0 48.0 C 268.5 48.1 269.5 47.4 269.8 47.0 C 269.9 47.2 270.0 47.5 270.2 47.7 C 267.3 49.1 265.6 50.2 263.9 50.8 C 265.3 50.2 261.0 51.6 262.7 50.8 C 263.5 50.7 265.1 50.0 266.5 49.4 C 266.4 49.3 266.4 49.2 266.3 49.1 C 266.9 48.9 267.7 48.5 267.6 48.3 C 266.0 49.3 264.9 49.5 263.7 50.3 C 263.7 50.2 263.6 50.2 263.6 50.1 C 263.3 50.2 263.0 50.4 263.1 50.2 C 263.7 49.9 264.5 49.6 264.6 49.4 C 263.2 50.0 262.9 49.8 261.2 50.5 C 261.4 50.0 259.1 50.5 261.4 49.4 C 261.9 49.6 263.2 49.1 263.3 49.3 C 264.0 49.1 265.2 48.4 265.7 48.0 C 265.0 48.1 263.7 48.6 263.5 48.4 C 264.5 47.9 265.3 47.4 266.0 47.3 C 264.1 48.5 267.1 47.0 268.0 46.9 C 267.7 46.9 267.3 47.0 266.9 47.0 C 268.4 46.2 269.1 46.1 268.9 45.7 C 270.4 44.6 270.2 45.1 271.2 44.4 C 270.3 44.5 271.7 43.8 270.8 43.9 C 272.3 42.8 271.5 43.9 272.0 43.5 C 272.4 43.2 272.4 43.0 272.7 42.7 C 273.4 42.3 274.3 41.3 274.7 41.4 C 275.1 41.0 275.2 41.0 275.5 40.6 C 275.5 40.4 275.5 40.2 275.6 39.9 C 275.7 39.9 276.0 39.7 275.9 39.5 C 274.9 40.5 275.1 40.1 273.8 41.1 C 273.9 41.3 273.7 41.5 274.1 41.3 C 273.4 42.2 273.0 42.3 272.1 43.1 C 271.8 43.0 271.4 42.8 270.6 43.7 C 270.7 43.3 270.4 43.4 270.7 43.0 C 271.2 42.8 271.9 42.4 272.5 42.0 C 272.5 41.9 272.3 41.8 272.6 41.6 C 272.9 41.4 273.3 41.1 273.5 40.7 C 273.6 40.8 273.6 41.0 273.5 41.2 C 274.6 40.1 273.9 40.3 274.6 39.6 C 274.3 39.6 274.0 40.1 274.1 39.6 C 274.5 38.9 274.7 38.8 275.0 38.6 C 274.9 38.5 274.8 38.5 274.9 38.3 C 275.2 37.9 274.9 39.6 275.7 38.9 C 275.4 38.7 275.8 37.9 276.1 37.9 C 276.2 38.2 275.7 38.6 275.9 38.7 C 276.6 37.1 276.6 38.9 276.9 37.1 C 276.8 37.1 276.6 37.1 276.5 37.1 C 276.5 37.8 276.2 37.7 275.9 37.6 C 275.8 38.1 275.3 38.2 275.3 38.7 C 274.9 38.3 275.5 38.3 275.7 37.8 C 275.4 37.7 275.2 38.1 274.9 38.1 C 275.6 37.1 275.2 36.9 275.5 35.8 C 275.2 36.1 275.3 35.3 275.1 35.4 C 275.4 36.3 274.4 36.0 274.3 36.1 C 274.4 36.6 275.0 36.3 275.1 36.7 C 274.8 36.8 274.7 36.7 274.2 36.6 C 274.4 36.3 274.3 36.3 274.1 36.0 C 274.3 35.7 274.8 35.3 275.1 35.7 C 275.0 35.6 274.6 35.0 274.8 34.9 C 275.1 35.6 275.0 34.8 275.2 35.2 C 275.3 34.6 274.4 33.7 274.1 32.8 C 274.0 33.0 273.7 32.7 273.6 32.8 C 274.4 33.4 274.0 33.9 274.2 34.6 C 274.1 34.3 274.0 34.5 274.0 34.7 C 273.8 34.1 273.4 33.8 273.2 33.2 C 273.1 33.2 273.1 33.3 273.0 33.4 C 272.5 32.4 272.5 32.5 271.6 32.0 C 271.4 31.6 272.2 31.6 272.5 31.5 C 272.0 31.3 270.6 29.9 271.2 30.9 C 270.3 30.2 270.8 30.0 269.7 29.3 C 269.5 29.5 270.5 30.2 269.9 30.3 C 268.9 29.6 269.7 29.7 268.7 29.3 C 268.8 29.1 268.9 28.8 267.9 28.2 C 268.5 28.9 267.7 28.2 267.3 28.2 C 267.8 28.6 268.1 28.9 268.3 29.1 C 266.6 27.9 266.1 27.7 264.2 26.8 C 265.1 26.9 264.1 26.3 265.4 26.7 C 264.2 26.4 262.8 25.3 262.0 25.1 C 262.8 25.6 264.0 26.2 264.4 26.6 C 260.6 24.8 258.0 24.2 253.6 22.3 C 254.4 22.5 255.5 22.9 255.6 22.9 C 255.1 22.7 254.3 22.4 254.3 22.3 C 255.9 22.9 257.3 23.4 258.1 23.6 C 259.4 24.2 257.3 23.5 258.6 24.1 C 258.9 24.0 261.2 25.1 260.5 24.4 C 258.2 23.8 256.1 22.7 255.2 21.9 C 252.7 21.6 255.0 22.3 252.2 22.0 C 252.3 21.9 251.7 21.6 250.9 21.3 C 251.6 22.0 248.3 20.8 248.0 20.7 C 249.3 20.9 254.1 22.1 251.8 21.0 C 252.6 22.0 246.2 19.1 247.4 20.1 C 244.1 19.2 245.4 19.2 243.4 19.0 C 243.4 18.9 243.6 18.8 242.7 18.5 C 241.7 18.3 241.4 18.3 241.0 18.3 C 245.9 19.7 244.3 19.7 247.2 20.6 C 246.7 20.4 246.3 20.3 246.4 20.4 C 246.4 20.5 246.3 20.5 245.6 20.3 C 245.5 19.9 243.2 19.8 242.5 19.3 C 243.5 19.5 244.4 19.8 244.1 19.5 C 242.1 19.0 241.3 18.8 240.3 18.4 C 239.2 18.1 237.8 17.6 236.3 17.2 C 237.2 17.5 236.0 17.3 234.9 17.2 C 233.5 16.8 234.2 16.4 232.4 16.1 C 232.4 16.9 230.5 15.7 228.2 15.7 C 228.5 15.4 225.6 14.7 225.0 14.9 C 224.9 14.8 223.8 14.6 223.1 14.5 C 222.9 14.3 223.8 14.4 223.1 14.2 C 222.5 14.2 223.0 14.6 222.2 14.5 C 221.1 14.2 221.4 13.9 219.8 13.7 C 219.7 13.9 220.6 14.0 219.8 14.1 C 218.4 13.7 217.2 13.6 218.3 14.0 C 216.2 13.8 217.3 13.4 215.4 13.1 C 215.9 13.3 215.9 13.4 214.9 13.3 C 214.2 13.0 214.1 12.9 213.9 12.7 C 213.3 12.9 213.5 12.9 211.9 12.6 C 211.9 12.8 211.8 12.9 211.8 13.0 C 211.1 12.9 210.0 12.8 209.8 12.7 C 211.2 12.9 210.8 12.6 211.4 12.6 C 210.0 12.3 207.4 11.7 209.4 12.3 C 207.4 12.2 208.4 11.9 206.9 11.8 C 207.8 12.2 206.9 11.8 205.3 11.7 C 205.4 12.1 204.2 11.6 203.2 11.5 C 203.4 11.8 203.1 11.9 202.2 11.8 C 202.2 11.7 201.6 11.5 200.6 11.4 C 200.6 11.6 202.8 12.0 200.6 11.8 C 199.6 11.5 199.6 11.2 198.0 11.0 C 197.7 10.6 199.5 10.9 199.1 10.6 C 197.7 10.7 197.4 10.5 195.4 10.2 C 196.1 10.9 191.4 10.6 193.7 11.1 C 193.0 11.0 192.1 11.3 191.6 11.0 C 192.3 11.0 191.0 10.6 191.1 10.5 C 190.1 10.5 187.9 10.1 187.9 10.4 C 189.9 10.4 189.9 10.7 190.5 11.0 C 187.5 10.9 184.9 10.6 185.1 10.2 C 185.1 10.3 184.7 10.3 184.6 10.4 C 185.6 10.4 186.3 11.0 185.0 10.9 C 185.3 10.6 184.4 10.5 183.5 10.3 C 183.4 10.6 179.4 9.9 180.2 10.4 C 181.8 10.2 183.0 10.8 181.8 10.9 C 180.8 10.6 178.6 10.3 179.1 10.0 C 178.5 10.1 178.0 10.2 177.4 10.2 C 176.9 10.5 178.2 10.5 177.9 10.8 C 177.1 10.7 175.9 10.7 175.7 10.5 C 177.9 10.6 174.6 10.3 176.9 10.2 C 175.5 10.1 175.2 9.9 174.1 9.8 C 174.1 9.9 173.7 9.9 173.5 10.0 C 174.5 9.9 175.5 10.1 175.2 10.4 C 173.2 10.3 173.5 10.0 171.9 9.9 C 171.4 10.1 169.1 10.4 167.9 10.1 C 170.2 10.2 167.8 10.0 169.1 9.9 C 171.1 10.2 171.6 9.9 172.4 9.6 C 171.6 9.4 169.9 9.2 169.6 9.6 C 170.7 9.7 170.7 9.5 171.3 9.5 C 171.3 9.7 170.9 9.8 170.2 9.8 C 169.3 9.6 167.2 9.7 168.6 9.4 C 167.1 9.5 165.6 9.1 164.1 9.3 C 165.7 9.4 166.9 9.5 167.4 9.8 C 166.0 9.9 164.7 9.5 164.6 9.7 C 164.8 10.0 167.0 10.0 167.4 10.2 C 165.6 10.4 163.0 9.5 165.1 10.2 C 164.2 10.1 162.8 10.1 162.4 9.9 C 163.6 9.9 162.3 9.5 161.8 9.4 C 160.7 9.4 159.9 9.4 159.5 9.5 C 161.1 9.4 162.3 9.9 161.2 9.9 C 160.9 9.7 160.6 9.9 160.1 9.9 C 160.0 9.8 158.2 9.8 157.9 9.7 C 158.0 9.8 158.8 9.9 159.0 10.0 C 157.9 10.1 156.4 10.5 155.6 10.0 C 156.3 10.0 157.2 10.1 157.2 10.0 C 154.3 9.4 153.4 9.1 149.9 8.8 C 150.4 8.8 150.6 8.7 150.5 8.6 C 148.3 8.6 146.8 8.4 147.1 8.2 C 145.7 8.2 145.0 8.4 144.3 8.6 C 145.7 8.7 146.2 8.5 147.1 8.7 C 146.6 8.7 148.2 9.3 148.8 9.5 C 151.3 9.2 151.4 9.7 153.9 9.6 C 153.2 9.9 155.7 9.7 155.0 10.0 C 152.7 9.5 150.5 9.8 147.1 9.6 C 147.5 9.3 147.9 9.1 146.6 9.0 C 144.4 8.8 145.4 9.2 143.7 9.2 C 143.0 8.9 144.0 8.9 143.1 8.8 C 142.5 8.9 140.9 8.9 140.3 8.6 C 142.6 8.6 139.9 8.3 141.4 8.2 C 140.6 8.2 140.2 8.1 139.7 8.1 C 142.0 8.4 137.4 8.5 139.1 8.8 C 136.0 8.9 138.9 8.0 136.3 8.1 C 137.6 8.3 135.9 8.4 134.0 8.4 C 133.5 8.1 131.6 8.1 130.0 8.0 C 130.9 8.2 131.5 8.2 130.1 8.4 C 130.8 8.5 132.2 8.5 132.9 8.3 C 132.9 8.5 133.2 8.5 133.5 8.6 C 131.6 8.7 132.4 8.9 131.8 9.0 C 131.2 8.8 129.8 8.9 129.5 8.7 C 129.5 8.8 129.0 8.8 129.0 8.9 C 131.3 8.9 128.6 9.3 130.1 9.4 C 131.1 9.3 130.5 9.0 131.8 9.1 C 133.1 9.4 130.7 9.5 130.1 9.8 C 131.2 10.0 132.5 9.6 132.9 9.9 C 131.5 10.3 129.2 10.1 127.3 10.0 C 127.4 10.5 124.1 10.0 123.9 10.5 C 123.6 10.4 123.3 10.3 122.8 10.3 C 122.2 10.6 121.6 10.2 121.1 10.2 C 121.0 10.4 121.2 10.5 121.6 10.6 C 119.3 10.5 118.8 10.6 116.1 10.8 C 115.6 10.7 115.1 10.5 114.9 10.3 C 115.6 10.2 116.1 10.1 116.6 10.0 C 112.9 10.1 115.3 10.9 112.7 10.5 C 112.8 10.6 114.6 10.9 113.3 11.1 C 110.9 10.8 107.6 11.3 107.7 10.5 C 105.6 10.3 104.3 11.0 103.3 10.6 C 102.7 10.7 102.4 10.8 102.2 10.9 C 102.8 11.0 103.6 11.1 104.4 11.3 C 105.6 11.0 106.2 11.3 105.0 10.9 C 106.8 10.8 107.3 11.0 108.3 11.0 C 105.8 11.4 103.4 11.3 103.4 11.7 C 102.5 11.6 101.8 11.4 101.1 11.3 C 100.9 11.5 98.1 11.8 97.9 11.5 C 99.8 11.5 101.7 11.0 100.0 10.9 C 95.3 11.4 92.7 11.1 88.7 11.8 C 88.6 11.7 88.9 11.4 88.2 11.5 C 88.2 11.6 88.0 11.8 87.6 11.9 C 86.4 12.0 85.7 12.0 84.0 12.2 C 84.1 11.9 83.8 11.7 82.9 11.7 C 82.4 12.1 80.8 12.9 79.8 12.9 C 80.8 12.7 79.5 12.5 78.8 12.6 C 79.4 12.9 74.2 12.8 75.7 13.1 C 73.6 13.3 72.7 13.3 72.7 13.1 C 71.9 13.3 71.4 13.5 70.7 13.6 C 70.2 13.2 66.7 14.1 66.2 14.0 C 67.4 13.9 67.6 13.4 66.7 13.6 C 66.0 13.9 63.0 14.7 62.4 14.7 C 62.6 14.5 62.7 14.2 64.2 13.9 C 61.7 14.2 61.8 14.7 61.0 15.1 C 61.0 14.7 59.9 15.2 59.6 15.4 C 58.7 15.3 59.6 15.2 59.5 15.0 C 58.6 15.1 58.3 15.0 57.1 15.2 C 57.5 15.4 56.2 15.5 55.7 15.5 C 55.6 15.8 55.0 16.0 54.0 16.3 C 55.3 15.5 48.2 16.9 49.9 16.9 C 48.6 17.4 48.5 16.8 46.8 17.2 C 46.5 17.5 45.5 17.6 46.4 17.6 C 45.7 17.8 44.8 18.0 44.4 18.0 C 44.1 18.0 43.6 18.0 42.1 18.4 C 43.5 18.5 39.0 19.1 39.8 19.4 C 38.4 19.2 36.1 20.6 33.7 20.8 C 33.7 20.9 33.1 21.1 33.0 21.2 C 32.7 21.5 35.8 20.6 33.8 21.3 C 31.4 21.8 32.7 21.3 32.3 21.3 C 25.9 23.4 19.8 25.8 16.0 28.0 C 16.5 27.8 16.5 27.9 15.8 28.5 C 14.4 28.6 11.3 31.4 11.1 32.0 C 10.6 31.9 9.9 33.4 9.6 33.5 C 9.8 33.3 9.8 32.6 9.5 33.1 C 9.6 33.7 9.1 33.9 9.1 34.5 C 8.7 34.5 8.7 36.0 8.2 35.2 C 8.2 35.5 8.1 35.6 8.0 35.7 C 8.4 35.8 8.3 36.1 8.5 35.7 C 8.1 36.7 8.5 36.9 8.5 37.9 C 8.7 38.0 8.6 37.3 8.9 37.8 C 8.8 37.8 8.7 37.9 8.7 37.9 C 8.7 38.1 8.9 38.1 8.8 38.2 C 8.6 38.3 8.6 37.9 8.2 38.0 C 8.5 38.5 8.2 39.0 8.6 39.0 C 8.3 38.3 9.0 38.5 9.0 39.1 C 8.6 38.8 10.1 40.7 10.9 41.3 C 10.9 41.9 10.1 40.6 10.0 40.8 C 11.2 42.0 11.1 42.1 11.5 41.9 C 12.2 42.7 12.4 43.1 13.8 43.8 C 14.4 44.4 13.2 43.7 13.9 44.3 C 14.4 44.5 14.7 44.5 15.5 45.0 C 17.2 46.8 23.9 48.8 27.4 51.1 C 25.9 50.3 28.0 50.8 30.1 51.6 C 30.2 51.7 29.9 51.8 30.6 52.1 C 30.6 51.8 31.3 52.0 32.8 52.4 C 32.9 52.6 32.6 52.7 33.4 52.9 C 34.2 52.8 36.0 53.7 37.3 53.8 C 37.7 54.3 34.4 53.2 34.2 53.4 C 37.9 54.7 38.7 54.5 41.9 55.4 C 40.2 55.1 43.1 56.0 43.5 56.2 C 42.9 55.7 45.5 56.2 43.7 55.6 C 44.9 55.9 46.6 56.2 46.7 56.3 C 46.3 56.3 45.4 56.1 45.3 56.1 C 46.9 56.5 47.5 56.9 48.0 56.7 C 47.4 56.6 47.1 56.4 47.1 56.2 C 47.4 56.2 47.7 56.1 48.1 56.1 C 46.7 56.6 50.4 57.1 50.7 56.9 C 50.9 57.4 51.2 57.5 51.0 57.7 C 52.6 58.0 52.4 57.6 53.4 57.7 C 53.0 58.0 52.7 58.2 54.1 58.7 C 53.9 58.2 55.6 58.6 55.2 58.1 C 59.0 58.7 59.8 59.3 62.2 59.6 C 62.3 59.5 61.5 59.4 62.2 59.4 C 63.3 59.7 64.3 60.0 65.0 60.3 C 65.7 60.1 64.9 59.9 65.6 60.0 C 67.3 60.5 66.9 60.8 68.4 61.3 C 70.4 61.3 69.7 61.4 71.0 61.2 C 70.4 61.1 69.8 60.9 70.5 61.0 C 71.7 61.4 72.1 61.8 72.4 61.9 C 71.5 61.8 70.8 61.7 70.4 61.6 C 70.1 61.7 68.9 61.6 69.9 61.9 C 68.6 61.6 67.2 61.4 65.4 61.1 C 66.0 61.6 63.8 61.0 64.4 61.4 C 66.4 61.6 66.8 61.9 68.8 62.1 C 68.4 61.7 70.4 62.2 70.8 62.3 C 70.8 62.1 72.2 62.4 71.9 62.1 C 73.4 62.2 73.3 62.4 74.9 62.6 C 75.0 62.7 74.8 62.8 75.3 62.9 C 75.9 62.7 76.4 63.2 76.9 63.2 C 76.6 62.8 78.8 63.3 79.0 63.1 C 78.4 63.0 77.5 62.9 77.4 62.8 C 80.0 63.1 78.0 62.6 77.5 62.3 C 77.6 62.4 76.6 62.7 76.5 62.5 C 78.6 62.5 73.6 61.6 75.5 61.9 C 77.1 62.2 77.0 62.0 78.6 62.2 C 80.4 63.0 78.1 63.0 80.0 63.7 C 81.2 63.6 82.0 63.7 82.1 63.4 C 82.4 63.6 82.7 63.7 83.1 63.8 C 83.7 63.7 81.6 63.3 83.2 63.5 C 84.0 63.6 83.0 63.9 84.7 64.0 C 85.5 63.8 82.7 63.5 84.2 63.6 C 85.8 64.2 83.9 63.4 85.8 63.5 C 86.0 63.6 86.3 63.7 86.9 63.7 C 87.0 63.9 86.7 64.1 87.4 64.2 C 87.8 63.7 88.1 64.5 89.5 64.5 C 90.3 64.2 88.0 64.2 88.5 63.9 C 90.1 64.4 91.1 64.1 91.7 64.2 C 90.3 64.3 93.7 64.6 93.8 64.9 C 93.4 64.5 94.2 64.7 96.0 64.6 C 96.1 65.1 98.3 64.9 98.7 65.4 C 99.0 65.2 99.5 65.2 99.8 65.0 C 99.2 65.0 98.5 64.9 98.8 64.8 C 99.3 64.8 99.8 64.8 100.4 64.9 C 101.3 65.2 98.9 65.7 102.5 65.8 C 102.1 65.4 103.7 65.5 104.7 65.4 C 104.7 65.0 103.3 65.3 103.1 65.1 C 104.4 64.9 105.7 65.3 106.4 65.5 C 108.6 65.5 111.1 65.8 114.2 65.8 C 114.9 66.1 111.6 65.9 113.7 66.2 C 114.5 66.2 114.1 65.9 115.3 66.0 C 114.2 67.3 123.8 66.6 124.4 67.2 C 124.8 66.9 127.5 67.2 127.2 66.8 C 125.4 67.0 124.1 66.6 123.2 66.3 C 121.5 66.5 124.8 66.7 123.2 66.7 C 123.1 66.5 120.7 66.6 121.0 66.4 C 123.4 66.4 119.7 66.0 121.5 65.8 C 123.8 65.9 128.3 65.7 127.2 66.1 C 127.2 66.0 126.2 65.9 126.1 66.0 C 128.7 66.2 130.2 66.0 131.2 65.8 C 132.4 66.1 136.9 65.7 135.8 65.9 C 136.2 66.2 133.1 65.8 133.5 66.1 C 138.2 66.3 138.3 66.0 141.4 66.2 C 140.4 65.9 144.7 65.7 144.3 65.8 C 144.3 66.1 145.3 66.4 147.2 66.0 C 146.9 66.3 147.9 66.4 148.9 66.5 C 149.3 66.2 148.0 66.2 148.3 66.0 C 149.2 66.0 150.2 66.0 151.1 66.0 C 151.2 66.1 151.0 66.3 151.7 66.3 C 152.8 66.1 156.6 65.7 156.2 65.9 C 154.6 66.3 158.9 66.1 156.3 66.5 C 157.0 66.5 157.0 66.6 158.0 66.5 C 158.0 66.4 158.0 66.3 158.0 66.1 C 160.1 66.0 159.0 66.6 160.8 66.5 C 161.0 66.4 161.7 66.4 161.9 66.2 C 161.2 66.2 161.2 66.4 160.2 66.4 C 161.3 65.8 158.3 66.1 158.5 65.8 C 160.5 65.7 160.5 66.0 161.3 66.1 C 163.8 65.8 162.7 66.0 165.3 66.0 C 165.3 65.9 164.6 65.9 164.7 65.7 C 167.9 65.7 167.6 66.3 169.8 66.0 C 169.3 66.0 167.3 66.4 168.7 66.3 C 170.2 66.1 170.6 65.8 172.6 65.7 C 172.7 65.8 172.5 65.9 173.2 65.9 C 174.0 65.8 174.0 65.5 174.8 65.3 C 175.0 65.5 176.0 65.3 176.5 65.2 C 177.2 65.5 176.2 65.6 177.1 65.6 C 178.7 65.5 179.5 64.8 180.9 64.8 C 180.8 65.2 182.3 64.9 183.7 64.8 C 183.9 65.1 186.7 64.9 188.6 64.8 C 188.1 64.5 190.0 64.5 189.6 64.2 C 188.7 64.3 188.2 64.3 188.0 64.1 C 190.1 63.9 190.8 64.5 192.3 63.9 C 193.1 64.0 194.1 64.1 195.6 64.1 C 195.7 63.9 193.0 64.0 194.5 63.8 C 194.6 63.9 195.1 63.8 195.5 63.7 C 195.3 64.0 196.5 64.0 197.2 64.1 C 198.4 63.8 201.0 63.9 199.8 63.7 C 201.7 63.4 200.5 64.1 202.0 63.9 C 201.2 63.6 203.7 63.3 202.4 63.2 C 204.4 62.9 204.3 63.4 203.5 63.6 C 205.3 63.5 205.7 63.2 206.6 63.3 C 205.7 63.1 208.5 62.6 207.1 62.9 C 206.7 63.3 208.8 62.9 209.2 63.0 C 208.5 62.8 209.5 62.7 208.1 62.7 C 209.5 62.4 211.4 62.1 212.7 62.3 C 214.4 61.9 215.9 61.6 215.2 62.0 C 216.8 61.8 216.2 61.8 217.7 61.7 C 217.7 61.6 217.3 61.6 217.2 61.6 C 219.3 61.2 218.9 61.5 221.6 61.1 C 221.4 61.5 223.1 61.2 223.7 61.3 C 222.5 61.5 221.6 61.6 220.7 61.6 C 220.5 61.8 221.5 61.8 220.7 61.9 C 220.6 61.8 220.2 61.8 219.8 61.9 C 221.6 61.9 217.6 62.7 218.8 62.2 C 218.8 62.3 218.9 62.3 219.3 62.2 C 218.9 62.0 218.9 62.1 219.2 61.8 C 218.3 62.0 217.5 61.7 217.2 62.1 C 217.3 62.2 218.2 62.0 218.3 62.1 C 216.1 62.6 217.6 61.8 215.8 62.2 C 215.4 62.6 216.4 62.5 216.8 62.6 C 215.2 62.9 213.8 63.1 213.3 62.9 C 211.8 63.2 213.4 63.2 212.4 63.5 C 211.8 63.4 211.8 63.2 210.8 63.3 C 209.7 63.6 211.5 63.4 210.3 63.6 C 209.1 63.6 211.1 63.1 209.2 63.3 C 209.7 63.7 207.5 63.4 207.7 63.7 C 208.8 63.5 208.9 63.9 208.3 63.7 C 205.7 63.6 204.1 64.9 201.5 64.5 C 201.5 64.6 201.1 64.6 201.0 64.7 C 202.9 64.7 205.7 64.4 206.3 64.8 C 207.8 64.6 207.5 64.3 207.8 64.2 C 209.6 64.3 209.4 64.4 208.4 65.0 C 205.5 65.4 204.2 65.3 202.2 65.4 C 201.1 65.8 202.3 65.5 202.7 65.7 C 196.5 66.0 201.3 66.4 199.0 66.6 C 199.1 66.4 198.6 66.3 198.0 66.4 C 198.0 66.5 197.1 66.5 196.9 66.7 C 197.3 66.6 197.5 66.7 197.4 66.8 C 195.9 67.1 196.5 66.7 196.4 66.5 C 197.6 66.4 198.3 66.3 198.5 66.1 C 196.9 66.4 195.7 66.2 194.7 66.7 C 193.2 66.4 195.4 65.7 194.6 65.5 C 194.9 65.2 193.7 66.3 192.6 66.6 C 190.6 66.7 190.6 67.1 188.8 67.2 C 188.3 66.9 190.6 66.9 190.4 66.7 C 189.9 66.7 189.8 66.6 189.3 66.7 C 188.0 66.8 188.1 67.1 187.1 67.2 C 186.6 67.0 186.3 67.2 185.5 67.4 C 184.3 67.3 186.2 67.1 184.9 67.1 C 183.6 67.1 182.6 67.6 182.2 67.6 C 182.1 67.5 182.3 67.3 181.6 67.3 C 180.1 67.7 179.7 67.7 181.7 67.7 C 179.9 67.8 179.2 68.0 179.5 68.3 C 182.1 68.2 182.7 68.0 183.9 68.4 C 184.4 68.0 185.2 68.2 186.1 68.2 C 185.5 67.7 187.2 68.1 187.8 67.8 C 187.1 67.8 186.5 67.8 186.1 67.7 C 188.8 67.5 188.8 67.6 190.9 66.9 C 191.0 67.1 191.2 67.1 191.5 67.2 C 190.8 67.4 188.9 67.4 188.8 67.7 C 190.4 67.9 190.9 67.3 192.7 67.6 C 193.4 67.3 191.2 67.3 192.6 67.2 C 193.3 67.3 194.2 67.4 195.3 67.4 C 196.5 67.3 197.1 67.1 198.0 66.9 C 198.1 67.0 198.2 67.1 199.1 67.0 C 199.0 66.8 198.1 66.8 199.1 66.7 C 201.9 66.8 203.8 66.8 206.5 66.3 C 205.5 66.4 203.3 66.3 204.4 66.2 C 205.6 66.2 207.2 65.6 208.5 65.8 C 208.9 65.8 207.0 65.8 207.5 66.3 C 208.7 66.1 209.5 66.1 210.1 66.1 C 210.1 65.9 211.5 65.8 211.1 65.5 C 210.1 65.6 209.8 66.0 209.6 65.9 C 210.3 65.0 213.3 65.7 215.2 65.5 C 216.4 65.2 214.2 65.3 215.6 65.0 C 216.5 64.8 217.1 65.4 215.7 65.7 C 214.8 65.7 214.5 66.1 214.2 65.8 C 213.8 65.9 213.2 66.0 213.2 66.1 C 213.9 66.0 213.8 66.2 214.3 66.2 C 213.3 66.3 213.2 66.9 212.3 66.7 C 212.9 66.6 213.0 66.5 213.3 66.4 C 210.6 66.8 209.7 66.7 208.1 66.7 C 209.0 66.8 208.0 66.9 208.1 67.1 C 209.3 66.9 211.6 66.8 210.2 67.1 C 209.3 66.8 208.6 67.9 207.7 67.6 C 208.4 67.5 208.3 67.3 208.6 67.2 C 207.6 67.3 207.6 67.0 206.5 67.1 C 203.2 68.0 200.5 67.5 194.9 68.7 C 193.0 68.8 196.7 68.4 196.5 68.1 C 195.9 68.2 195.8 68.1 195.4 68.1 C 195.4 68.5 194.4 68.2 193.8 68.6 C 193.9 68.2 191.3 68.8 190.0 68.6 C 189.9 68.7 190.1 68.9 189.5 68.9 C 185.4 68.9 178.1 69.9 175.0 69.7 C 175.2 70.0 173.8 70.1 173.4 70.2 C 171.4 70.3 172.3 70.0 169.5 70.4 C 168.0 70.6 169.7 70.2 170.0 70.1 C 165.7 70.4 161.9 70.3 159.2 70.7 C 157.8 70.9 159.2 70.5 156.3 70.5 C 156.3 70.9 151.8 70.4 151.2 70.9 C 149.5 71.0 146.3 70.4 147.8 70.8 C 145.4 70.9 147.0 70.4 146.0 70.4 C 144.4 70.5 146.5 71.2 144.9 71.2 C 145.1 70.9 143.7 71.0 142.6 70.7 C 143.9 70.8 144.7 70.7 144.9 70.5 C 143.8 70.7 143.8 70.5 142.0 70.5 C 140.7 70.7 136.8 71.0 135.7 70.5 C 135.7 70.7 136.0 70.7 136.3 70.8 C 135.2 70.9 133.8 70.5 134.0 70.9 C 131.4 70.9 130.3 70.5 128.8 70.8 C 127.7 70.9 129.2 70.5 126.0 70.4 C 125.9 70.7 120.1 70.5 118.6 70.2 C 118.5 70.6 118.2 70.2 117.5 70.2 C 117.3 70.3 117.5 70.4 116.8 70.4 C 116.7 70.3 116.2 70.3 115.7 70.4 C 116.1 69.9 113.6 70.4 113.5 70.1 C 114.0 70.1 114.0 69.8 113.5 69.8 C 113.3 70.1 111.0 69.5 111.2 69.8 C 111.7 69.9 113.3 69.9 112.9 70.1 C 110.7 70.2 111.6 69.8 110.1 69.7 C 110.2 69.8 111.1 70.0 110.1 70.0 C 108.6 69.9 110.0 69.9 109.0 69.6 C 108.2 69.7 106.7 69.8 106.1 69.8 C 106.3 69.8 105.8 69.6 105.6 69.5 C 102.7 69.2 96.3 69.1 93.5 68.5 C 93.3 68.6 92.7 68.6 92.9 68.8 C 91.3 68.5 91.4 68.6 89.7 68.3 C 89.7 68.5 89.7 68.6 89.7 68.7 C 87.5 68.7 89.5 68.3 88.1 68.2 C 87.9 68.8 87.3 67.9 86.0 67.8 C 85.8 67.9 85.2 67.9 85.3 68.1 C 83.3 67.9 83.5 67.4 81.7 67.4 C 82.1 67.5 82.3 68.5 82.1 68.8 C 81.8 68.6 81.3 68.4 80.5 68.3 C 81.5 68.1 81.1 66.9 78.5 66.9 C 79.9 67.1 80.4 67.2 80.1 67.4 C 78.2 67.2 77.6 67.0 75.9 66.7 C 75.7 67.0 76.8 67.2 76.4 67.5 C 76.0 67.5 75.7 67.5 75.8 67.6 C 74.1 67.4 74.1 67.1 72.2 67.1 C 72.2 66.9 72.7 66.9 73.3 67.1 C 73.2 66.8 73.2 66.6 74.4 66.7 C 74.5 66.9 73.8 67.2 75.4 67.3 C 75.4 67.1 75.4 66.9 75.4 66.8 C 74.3 66.6 71.6 66.0 71.3 66.1 C 71.9 66.3 72.8 66.5 72.3 66.8 C 70.3 66.4 69.8 66.0 68.3 65.6 C 65.5 65.3 60.8 64.5 61.3 65.1 C 59.7 64.7 60.3 64.7 58.9 64.4 C 59.3 64.8 57.3 64.3 57.4 64.6 C 59.1 64.8 58.6 64.8 60.3 65.0 C 60.2 65.2 59.9 65.3 59.2 65.2 C 59.2 65.0 58.5 64.9 57.3 64.7 C 57.5 64.8 58.5 65.3 57.3 65.1 C 57.2 65.0 56.9 64.9 56.4 64.8 C 56.4 64.6 56.4 64.5 56.4 64.3 C 57.1 64.3 57.9 64.4 58.4 64.4 C 57.9 64.3 57.9 64.2 57.4 64.1 C 57.1 64.2 55.2 63.7 55.1 63.9 C 55.8 64.0 56.3 64.2 55.5 64.1 C 55.3 64.1 54.1 63.7 53.6 63.8 C 55.2 64.3 54.6 64.2 55.4 64.6 C 53.5 64.4 53.8 64.0 51.7 63.7 C 51.7 63.5 51.7 63.2 52.3 63.2 C 51.0 62.4 47.8 62.3 46.8 62.0 C 47.5 62.2 48.4 62.0 47.4 61.7 C 47.3 61.8 46.6 61.6 46.4 61.7 C 45.9 62.2 46.8 62.7 47.5 63.2 C 46.7 63.0 46.5 63.1 45.7 62.9 C 45.5 62.6 46.4 62.4 45.4 62.1 C 45.1 62.5 42.1 61.4 41.4 61.6 C 42.7 61.9 43.6 62.3 42.2 62.0 C 42.5 61.8 39.7 61.3 39.7 61.1 C 41.9 61.5 42.6 61.4 44.0 61.7 C 42.2 61.3 45.5 61.8 42.4 61.0 C 41.0 60.9 40.2 61.0 37.2 60.2 C 36.1 59.9 37.2 59.8 35.7 59.4 C 36.0 59.8 32.9 59.0 34.9 59.3 C 33.8 59.0 33.2 58.8 32.6 58.5 C 34.0 59.2 27.0 57.5 28.0 58.0 C 28.1 57.6 27.9 57.2 27.6 56.9 C 26.2 56.8 24.7 56.1 21.7 54.9 C 21.6 55.3 21.2 54.7 19.9 54.2 C 19.6 54.3 20.6 54.8 19.8 54.5 C 18.4 53.8 18.4 53.7 18.2 53.5 C 17.2 53.1 16.5 52.7 16.1 52.4 C 16.0 52.5 16.2 52.7 16.5 52.9 C 13.1 50.9 11.4 50.3 9.2 48.6 C 10.0 49.4 10.5 49.1 9.8 48.6 C 9.3 48.3 8.8 48.0 8.5 47.9 C 8.8 48.5 8.7 48.2 7.7 47.4 C 6.8 46.7 7.7 48.0 7.1 47.5 C 6.4 46.7 7.0 47.0 6.6 46.5 C 6.3 46.2 6.0 45.9 5.7 45.6 C 6.1 46.3 5.4 45.7 4.8 45.2 C 5.5 45.4 5.2 45.1 4.3 44.0 C 4.3 43.7 4.8 44.3 4.5 43.8 C 4.3 43.5 3.3 42.8 3.1 41.7 C 3.3 42.0 3.4 42.1 3.5 42.0 C 2.8 41.1 2.9 40.2 2.7 39.2 C 2.7 40.2 2.4 39.8 2.3 40.3 C 2.2 39.2 1.7 38.1 2.0 37.3 C 2.0 38.7 2.6 37.3 2.6 36.5 C 2.3 36.3 2.4 37.7 2.0 37.3 C 1.7 36.9 2.2 35.8 1.9 35.3 C 1.7 35.3 1.9 35.9 1.8 36.1 C 1.8 35.3 1.6 36.3 1.6 35.7 C 2.0 35.3 1.6 34.8 1.7 34.4 C 1.9 33.8 2.6 32.9 2.5 32.4 C 2.4 32.4 2.2 33.1 2.1 33.1 C 2.6 30.8 3.4 30.5 4.4 28.6 C 4.6 28.4 5.0 28.2 5.4 27.7 C 5.3 27.7 5.5 27.3 5.8 26.9 C 6.6 26.3 7.4 25.8 8.5 25.0 C 8.4 25.4 8.0 25.8 9.4 24.8 C 9.4 24.6 8.8 25.1 9.3 24.6 C 9.3 24.7 9.7 24.5 9.7 24.3 C 9.7 24.3 9.6 24.2 9.6 24.2 C 9.2 24.5 8.8 24.7 8.5 25.0 C 8.4 24.9 8.2 24.8 7.8 25.0 C 9.4 23.6 9.6 24.2 10.7 23.2 C 11.1 23.4 11.6 23.3 10.8 24.2 C 11.8 23.4 12.5 22.8 12.6 22.4 C 11.3 23.3 11.5 22.7 11.1 22.8 C 11.9 22.3 11.9 22.1 12.3 21.8 C 13.4 21.4 11.4 22.9 13.5 21.8 C 11.8 22.3 14.7 20.8 15.9 20.3 C 15.6 20.3 15.2 20.4 15.8 20.0 C 18.8 18.3 19.0 19.4 20.9 18.0 C 20.8 18.3 21.8 17.9 22.2 17.8 C 20.5 18.6 20.1 18.8 19.4 19.2 C 19.5 19.3 20.1 19.1 20.6 18.9 C 20.5 18.7 21.0 18.5 21.8 18.3 C 22.2 17.9 21.9 17.6 23.3 16.8 C 23.4 16.8 23.3 17.0 24.0 16.8 C 24.7 16.3 23.6 17.5 26.8 16.2 C 26.2 16.3 25.8 16.3 26.0 16.0 C 27.5 15.3 27.2 15.6 29.4 14.7 C 30.4 14.9 28.1 15.8 27.6 16.3 C 29.0 15.7 30.2 15.0 31.9 14.7 C 30.6 14.9 31.7 14.3 33.2 13.8 C 34.6 13.5 33.2 14.3 34.9 13.8 C 36.2 13.4 36.8 12.9 35.6 13.1 C 38.5 12.4 37.7 12.3 40.4 11.7 C 40.5 11.8 39.8 12.0 38.8 12.2 C 39.0 12.2 38.7 12.5 39.7 12.3 C 40.5 11.9 41.9 11.5 43.4 11.1 C 44.8 10.7 45.6 10.5 46.2 10.2 C 48.2 10.4 50.5 9.2 52.6 9.0 C 51.8 9.5 55.3 8.6 56.4 8.7 C 57.1 8.5 59.0 7.5 58.3 7.9 C 58.5 8.3 59.8 7.9 60.8 7.9 C 60.8 7.8 60.7 7.7 60.7 7.6 C 62.9 7.1 63.4 7.4 64.2 7.5 C 66.9 6.9 69.9 6.9 73.3 6.1 C 74.2 6.4 74.9 6.2 77.0 6.2 C 76.9 5.9 78.5 5.7 80.1 5.5 C 79.7 5.3 81.1 5.2 81.1 5.0 C 79.7 5.1 80.2 4.7 79.4 4.7 C 81.3 4.8 82.2 4.0 83.7 4.2 C 81.9 4.5 81.4 5.0 81.1 5.5 C 83.3 5.2 84.5 5.2 84.9 5.4 C 85.0 5.1 84.8 5.0 84.3 4.9 C 85.0 4.9 85.7 4.8 86.4 4.7 C 86.6 4.9 85.7 5.1 86.4 5.0 C 86.9 4.9 87.5 4.7 88.0 4.6 C 88.7 4.8 87.2 4.9 87.0 5.1 C 89.9 4.9 88.6 4.4 90.2 4.2 C 90.6 4.3 90.5 4.7 91.9 4.6 C 92.4 4.4 92.5 4.1 94.0 3.9 C 95.0 3.9 94.0 4.4 95.1 4.3 C 95.2 4.2 95.7 4.2 96.2 4.2 C 96.1 4.1 96.6 4.0 97.3 3.9 C 97.4 4.0 98.5 3.8 98.9 3.7 C 99.0 3.9 100.8 4.1 101.2 3.9 C 101.1 3.7 100.2 3.9 100.1 3.8 C 101.3 3.7 102.2 3.6 102.8 3.5 C 103.2 4.1 105.3 3.4 107.8 3.7 C 109.4 3.3 107.5 3.2 109.5 2.9 C 110.7 3.0 109.2 3.2 109.5 3.5 C 109.9 3.5 111.7 3.6 111.8 3.3 C 111.8 3.2 110.8 3.3 110.7 3.2 C 112.1 2.8 112.1 3.2 112.9 3.3 C 112.8 3.0 113.8 2.9 114.0 2.7 C 118.1 2.4 118.0 2.9 119.7 3.1 C 119.7 3.0 120.7 3.0 120.8 2.9 C 119.7 3.0 118.1 2.8 119.7 2.7 C 119.4 2.9 121.8 2.6 122.0 2.5 C 121.7 2.4 120.2 2.5 120.8 2.2 C 123.0 2.0 122.1 2.6 123.7 2.3 C 123.9 2.4 122.9 2.5 122.5 2.6 C 123.2 2.6 124.1 2.5 124.3 2.6 C 123.4 2.8 123.4 3.0 123.1 3.2 C 124.2 2.9 126.2 3.1 124.8 2.7 C 127.1 2.8 129.3 2.5 127.7 2.3 C 129.5 2.1 128.5 2.6 130.0 2.3 C 129.8 2.7 129.3 2.8 130.6 3.1 C 130.8 2.9 131.8 2.8 131.7 2.6 C 134.4 2.5 135.2 2.8 136.3 3.1 C 135.3 2.6 136.6 3.0 138.0 2.7 C 138.8 2.8 138.0 3.2 140.3 3.1 C 137.9 2.7 143.1 3.0 142.0 2.5 C 144.9 2.7 144.8 2.7 147.8 2.8 C 147.5 3.0 146.8 3.2 145.5 3.2 C 146.4 2.9 143.0 2.9 143.2 3.1 C 143.2 3.2 143.2 3.2 143.2 3.3 C 145.4 3.2 146.8 3.3 147.8 3.5 C 148.2 3.3 149.2 3.2 148.9 2.8 C 151.0 3.2 153.1 2.7 154.1 3.1 C 153.4 3.1 152.7 3.1 152.9 3.3 C 153.7 3.2 154.7 3.2 154.6 2.9 C 153.0 2.8 152.6 2.7 151.8 3.0 C 152.5 2.7 150.1 2.5 151.8 2.5 C 151.7 2.9 155.2 2.3 154.1 2.6 C 152.2 2.8 156.1 2.9 156.3 3.1 C 156.3 3.1 156.3 3.1 156.3 3.1 Z M 207.0 67.1 C 208.6 66.7 206.6 66.7 205.5 66.8 C 205.8 66.9 206.0 67.0 206.0 67.2 C 206.5 67.1 206.9 67.0 207.0 67.1 C 207.0 67.1 207.0 67.1 207.0 67.1 Z M 189.6 64.4 C 189.1 64.8 191.8 64.4 192.9 64.3 C 192.6 64.3 192.2 64.2 192.9 64.1 C 191.7 64.0 191.3 64.5 189.6 64.4 C 189.6 64.4 189.6 64.4 189.6 64.4 Z M 127.2 67.3 C 127.6 67.2 128.8 67.1 128.9 67.3 C 129.5 67.3 129.4 67.1 129.5 67.0 C 130.8 67.0 129.1 67.5 131.2 67.3 C 132.0 66.8 127.7 66.6 127.2 67.3 C 127.2 67.3 127.2 67.3 127.2 67.3 Z M 134.6 7.5 C 135.4 7.7 133.5 7.9 134.0 8.2 C 137.2 8.0 134.7 7.6 139.1 7.7 C 138.9 7.6 138.5 7.5 138.6 7.4 C 136.5 7.5 136.4 7.7 136.9 7.2 C 135.9 7.2 135.7 7.8 134.6 7.5 C 134.6 7.5 134.6 7.5 134.6 7.5 Z M 175.2 9.7 C 174.9 9.6 174.7 9.5 174.7 9.4 C 173.4 9.4 173.6 9.5 171.9 9.3 C 172.1 9.8 173.8 9.8 175.2 9.7 C 175.2 9.7 175.2 9.7 175.2 9.7 Z M 272.6 32.6 C 272.7 32.8 272.9 32.9 273.0 33.0 C 273.0 32.8 273.7 32.9 273.0 32.3 C 272.9 32.3 273.0 32.4 273.1 32.6 C 272.9 32.5 272.6 32.2 272.5 32.4 C 272.7 32.5 272.7 32.6 272.6 32.6 C 272.6 32.6 272.6 32.6 272.6 32.6 Z M 262.3 50.0 C 264.3 48.8 258.8 50.4 262.3 50.0 C 262.3 50.0 262.3 50.0 262.3 50.0 C 262.3 50.0 262.3 50.0 262.3 50.0 Z M 268.0 51.2 C 268.1 51.3 268.5 51.0 268.5 51.0 C 270.2 50.2 268.7 51.1 269.6 50.8 C 270.8 49.9 268.8 50.7 270.2 49.7 C 269.8 49.7 269.0 50.7 268.0 51.2 C 268.0 51.2 268.0 51.2 268.0 51.2 Z M 18.6 19.2 C 17.2 20.0 16.9 20.4 16.8 20.8 C 17.8 20.4 18.6 20.0 19.0 20.0 C 20.9 19.0 17.7 20.4 17.3 20.5 C 17.4 20.1 18.8 19.5 18.6 19.2 C 18.6 19.2 18.6 19.2 18.6 19.2 Z M 14.0 21.6 C 13.5 22.0 12.8 22.6 12.9 22.8 C 13.6 22.3 13.8 22.4 13.9 22.4 C 14.6 21.9 13.5 22.2 14.0 21.6 C 14.0 21.6 14.0 21.6 14.0 21.6 Z M 23.6 17.6 C 22.8 17.9 23.2 18.0 23.1 18.2 C 24.2 17.7 24.5 17.8 25.7 17.3 C 25.7 17.2 25.6 17.1 25.6 17.1 C 24.5 17.4 24.5 17.5 23.7 17.9 C 23.6 17.8 23.6 17.7 23.6 17.6 C 23.6 17.6 23.6 17.6 23.6 17.6 Z M 10.3 24.4 C 8.2 25.8 7.8 26.9 7.2 28.2 C 8.2 27.0 9.0 25.6 10.1 25.0 C 11.3 24.0 9.6 25.1 9.6 25.0 C 9.6 24.9 10.0 24.6 10.3 24.4 C 10.3 24.4 10.3 24.4 10.3 24.4 Z M 3.2 40.4 C 3.1 40.8 3.9 41.3 4.4 42.4 C 4.4 42.2 4.3 42.0 4.5 41.9 C 3.7 40.4 3.6 41.5 3.2 40.4 C 3.2 40.4 3.2 40.4 3.2 40.4 Z M 10.0 48.2 C 11.1 48.9 9.6 47.7 10.3 47.9 C 9.2 47.1 8.2 46.2 8.0 46.4 C 9.2 47.2 9.4 47.3 10.0 48.2 C 10.0 48.2 10.0 48.2 10.0 48.2 Z M 18.4 53.0 C 20.1 53.5 17.9 52.3 18.7 52.3 C 18.1 52.0 18.2 52.3 18.1 52.3 C 17.6 52.1 17.2 51.8 16.5 51.5 C 16.9 51.9 18.8 52.7 18.4 53.0 C 18.4 53.0 18.4 53.0 18.4 53.0 Z M 62.4 8.6 C 61.5 8.8 61.8 9.1 60.0 9.3 C 62.7 8.9 61.3 10.0 65.0 9.3 C 64.4 9.3 64.7 9.1 65.0 9.2 C 66.3 8.8 63.6 9.2 64.9 8.7 C 63.9 8.9 64.5 9.1 63.5 9.3 C 62.4 9.2 61.8 9.1 62.4 8.6 C 62.4 8.6 62.4 8.6 62.4 8.6 Z M 65.0 9.6 C 66.0 9.5 66.0 8.9 66.5 9.2 C 67.0 9.1 66.9 9.0 66.9 8.9 C 66.6 9.0 66.5 8.9 66.4 8.9 C 65.6 9.1 64.7 9.3 65.0 9.6 C 65.0 9.6 65.0 9.6 65.0 9.6 Z M 55.9 11.1 C 57.4 10.7 58.0 10.8 58.7 10.4 C 59.3 10.8 59.7 10.0 60.6 10.3 C 62.2 9.9 61.0 10.0 60.6 9.9 C 62.1 9.5 61.0 10.1 62.6 9.8 C 62.8 9.4 60.8 9.8 61.0 9.4 C 59.8 9.6 59.8 9.8 59.1 10.0 C 58.5 10.1 58.7 9.9 58.6 9.8 C 57.3 10.1 57.3 9.9 56.2 10.1 C 56.0 10.5 56.5 10.5 57.7 10.2 C 56.4 10.5 55.9 10.9 54.4 11.0 C 55.4 10.5 50.7 11.3 51.2 11.7 C 52.5 11.5 52.1 11.3 52.5 11.1 C 54.2 11.1 55.2 10.9 55.9 11.1 C 55.9 11.1 55.9 11.1 55.9 11.1 Z M 24.6 18.3 C 24.0 18.4 23.5 18.6 22.7 18.9 C 22.5 18.7 23.6 18.3 22.5 18.5 C 21.2 19.0 21.0 19.2 20.2 19.6 C 20.7 19.5 23.5 18.7 22.2 19.4 C 22.6 19.4 23.5 19.1 24.7 18.7 C 23.2 18.8 26.6 17.9 28.0 17.5 C 27.7 17.1 30.5 16.8 31.5 16.2 C 30.5 16.2 27.7 17.4 26.6 17.8 C 27.1 17.5 23.1 18.3 24.6 18.3 C 24.6 18.3 24.6 18.3 24.6 18.3 Z M 69.0 8.8 C 69.2 8.7 70.4 8.5 69.5 8.5 C 69.9 8.3 70.9 8.4 70.4 8.0 C 71.0 7.9 71.4 7.9 71.9 7.8 C 71.8 8.0 70.4 8.1 71.0 8.3 C 72.0 8.0 71.6 8.2 73.0 8.0 C 72.3 8.4 73.1 8.3 72.6 8.8 C 73.0 8.6 74.2 8.4 74.1 8.2 C 76.0 8.0 73.6 8.7 76.2 8.4 C 76.2 8.6 74.3 8.8 73.6 8.8 C 73.3 9.1 76.8 8.5 78.8 8.3 C 77.0 8.3 78.4 7.9 79.2 7.5 C 79.8 7.5 79.2 7.7 80.3 7.8 C 81.2 7.7 81.6 7.4 81.9 7.6 C 82.6 7.5 82.3 7.3 82.4 7.1 C 83.6 7.0 82.7 7.6 84.5 7.3 C 83.1 7.0 84.7 6.8 87.1 6.6 C 87.0 6.5 86.2 6.6 86.1 6.4 C 86.4 6.2 87.8 6.5 88.2 6.5 C 89.1 6.4 88.5 6.3 87.7 6.4 C 88.2 6.2 88.7 6.1 89.3 5.9 C 86.6 6.1 82.4 6.6 77.6 6.8 C 78.5 6.9 77.5 7.1 76.0 7.2 C 75.8 7.0 76.4 6.9 77.1 6.8 C 75.3 6.7 75.5 7.4 73.0 7.6 C 71.6 7.6 74.5 7.1 72.9 7.2 C 72.0 7.4 71.4 7.7 70.9 7.4 C 69.3 7.8 68.9 8.2 66.4 8.6 C 67.8 8.5 68.6 9.1 70.0 8.8 C 70.0 8.7 69.4 8.8 69.0 8.8 C 69.0 8.8 69.0 8.8 69.0 8.8 Z M 14.0 22.6 C 13.2 23.1 12.9 23.5 12.7 23.4 C 11.4 24.3 13.0 23.6 13.3 23.5 C 13.9 23.1 14.0 22.8 14.0 22.6 C 14.0 22.6 14.0 22.6 14.0 22.6 Z M 134.6 70.0 C 136.7 70.1 136.3 69.7 138.0 69.7 C 136.6 69.6 136.3 69.4 134.0 69.4 C 133.9 69.6 133.9 69.9 134.6 70.0 C 134.6 70.0 134.6 70.0 134.6 70.0 Z M 19.1 20.3 C 20.3 19.4 17.7 21.3 17.6 21.1 C 16.2 22.0 19.1 20.6 17.8 21.5 C 19.0 20.8 19.9 20.7 21.6 19.8 C 21.5 19.6 20.0 20.2 18.7 20.8 C 18.5 20.7 19.2 20.4 19.1 20.3 C 19.1 20.3 19.1 20.3 19.1 20.3 Z M 112.4 68.5 C 110.9 68.7 113.8 69.1 114.6 69.3 C 114.7 68.9 114.3 68.9 112.4 68.5 C 112.4 68.5 112.4 68.5 112.4 68.5 Z M 149.5 69.5 C 150.3 69.1 146.9 69.5 147.7 69.1 C 146.7 69.1 146.6 69.2 146.6 69.3 C 146.1 69.2 144.4 69.3 144.9 69.0 C 144.6 68.8 147.5 69.1 146.6 68.7 C 147.5 68.7 147.6 68.8 148.3 68.8 C 146.6 68.8 147.4 69.1 149.5 69.2 C 149.5 68.9 148.5 69.0 149.5 68.8 C 149.6 68.9 150.6 69.1 150.6 69.6 C 152.4 69.5 151.3 69.0 153.4 69.0 C 153.3 68.8 151.9 68.9 151.1 68.8 C 151.4 68.4 153.4 69.0 152.9 68.5 C 153.3 68.8 154.5 68.9 154.6 69.2 C 153.0 69.4 151.9 69.6 150.6 69.8 C 151.8 70.0 153.6 69.2 155.7 69.5 C 155.5 69.2 156.8 69.2 156.3 69.0 C 158.0 69.0 157.2 69.4 156.9 69.5 C 157.3 69.6 160.5 69.4 160.3 69.2 C 160.5 69.4 164.4 69.2 164.2 68.8 C 165.4 69.0 167.2 68.5 167.7 68.9 C 168.3 68.7 169.6 68.7 171.1 68.6 C 171.4 68.3 169.0 68.6 168.8 68.3 C 168.4 68.1 171.4 68.3 171.0 68.0 C 171.0 68.0 171.0 67.9 171.0 67.8 C 169.9 68.0 168.7 68.1 167.6 68.3 C 166.8 68.3 167.9 68.2 167.6 68.0 C 166.9 68.2 163.2 68.7 163.1 68.2 C 160.7 68.4 159.0 68.4 158.0 68.6 C 156.5 68.6 158.8 68.4 158.0 68.2 C 153.7 68.8 148.5 68.3 144.9 68.8 C 144.1 68.8 144.4 68.6 144.3 68.4 C 139.4 68.7 143.5 69.1 139.7 68.9 C 139.7 68.7 141.5 68.7 141.4 68.4 C 140.1 68.4 139.8 68.6 138.0 68.5 C 138.0 68.7 138.0 68.8 138.0 68.9 C 136.5 68.9 137.1 68.5 136.3 68.4 C 134.5 68.5 134.9 68.7 134.0 68.3 C 132.3 68.4 130.6 68.5 128.8 68.3 C 127.7 68.5 129.9 69.0 131.7 69.0 C 131.6 69.1 131.1 69.1 131.1 69.2 C 129.0 68.9 128.7 68.4 125.5 68.2 C 127.9 68.6 124.2 68.3 123.7 68.1 C 122.4 68.0 123.4 68.5 124.3 68.5 C 124.1 68.6 123.3 68.5 123.2 68.3 C 123.0 68.8 126.1 69.1 129.4 69.0 C 127.9 69.5 131.7 69.0 130.0 69.6 C 132.7 69.6 130.4 69.2 133.4 69.3 C 133.1 69.1 132.6 69.0 132.3 68.9 C 134.6 68.8 133.9 69.3 136.3 69.2 C 136.7 68.9 135.1 69.0 135.1 68.8 C 137.7 69.1 138.6 69.2 140.3 69.5 C 140.6 69.3 140.2 69.0 143.2 69.2 C 143.2 69.3 143.2 69.4 143.2 69.4 C 141.8 69.4 141.4 70.0 144.9 69.9 C 145.1 69.7 144.1 69.7 143.2 69.7 C 143.6 69.5 144.7 69.5 146.0 69.4 C 146.7 69.5 147.5 69.6 146.6 69.6 C 147.1 69.9 147.6 69.4 149.5 69.5 C 149.5 69.5 149.5 69.5 149.5 69.5 Z M 3.3 38.3 C 3.4 38.6 3.5 38.9 3.7 39.4 C 4.0 39.6 3.7 38.6 3.9 38.6 C 3.7 37.8 3.5 38.5 3.3 38.3 C 3.3 38.3 3.3 38.3 3.3 38.3 Z M 6.6 28.8 C 6.4 28.7 6.3 29.4 5.6 30.0 C 5.7 30.4 6.3 29.5 6.4 29.7 C 7.1 28.9 5.9 29.6 6.6 28.8 C 6.6 28.8 6.6 28.8 6.6 28.8 Z M 4.2 32.6 C 3.7 32.9 4.1 33.1 4.4 32.3 C 4.5 32.5 4.6 32.7 4.5 33.2 C 5.0 32.8 4.6 32.3 5.2 31.5 C 4.8 31.7 4.5 32.1 4.2 32.6 C 4.2 32.6 4.2 32.6 4.2 32.6 Z M 3.7 34.0 C 3.8 34.6 3.4 34.9 3.5 35.8 C 3.7 35.6 4.0 33.7 4.0 33.3 C 3.9 33.0 3.3 35.0 3.7 34.0 C 3.7 34.0 3.7 34.0 3.7 34.0 Z M 90.4 66.6 C 90.9 66.6 90.8 66.5 90.9 66.4 C 92.6 67.0 94.9 67.1 93.0 67.4 C 94.8 67.3 96.4 67.8 97.9 68.0 C 99.2 68.1 98.6 67.8 99.6 67.8 C 101.2 68.0 98.7 67.9 99.0 68.1 C 99.3 68.4 99.9 67.9 101.8 68.2 C 101.3 67.6 103.5 68.3 102.9 67.8 C 104.0 68.0 104.3 67.9 105.7 67.9 C 105.6 67.7 104.2 67.7 104.1 67.4 C 103.4 67.1 103.3 67.7 104.6 67.7 C 103.8 67.9 101.9 67.4 101.3 67.6 C 100.6 67.2 103.1 67.6 102.4 67.2 C 101.9 67.2 101.4 67.3 101.3 67.4 C 100.5 67.2 100.0 67.1 99.7 66.9 C 100.1 67.0 100.2 67.0 100.2 67.1 C 101.2 67.1 99.2 66.5 101.4 66.7 C 101.0 66.5 100.1 66.5 100.3 66.3 C 99.6 66.0 100.2 67.1 98.0 66.6 C 96.6 66.8 101.4 67.2 100.2 67.7 C 97.1 67.4 98.8 67.0 96.4 66.8 C 96.4 66.9 96.4 67.1 95.8 67.0 C 95.9 67.2 96.8 67.2 97.4 67.3 C 97.3 67.4 96.4 67.3 95.8 67.2 C 95.9 67.3 96.4 67.4 96.3 67.5 C 94.3 67.2 94.5 66.6 96.4 66.6 C 96.4 66.3 93.8 66.1 93.1 66.2 C 93.8 66.5 93.1 66.4 93.6 66.8 C 94.2 66.8 94.1 66.7 94.2 66.6 C 95.2 66.8 94.3 66.8 94.2 66.9 C 93.1 66.8 93.2 66.5 92.0 66.6 C 92.3 66.6 92.6 66.5 92.6 66.4 C 92.1 66.3 91.5 66.3 91.0 66.2 C 91.0 66.4 90.3 66.4 90.4 66.6 C 90.4 66.6 90.4 66.6 90.4 66.6 Z M 119.2 69.2 C 121.0 69.4 120.1 69.0 119.2 69.0 C 119.6 68.9 120.2 68.9 120.9 68.9 C 120.3 68.7 119.8 68.8 118.1 68.7 C 119.6 68.3 118.1 67.7 115.3 67.6 C 114.4 68.2 116.8 68.4 115.8 68.7 C 117.9 68.6 119.0 68.8 119.2 69.2 C 119.2 69.2 119.2 69.2 119.2 69.2 Z M 13.3 23.6 C 12.5 24.1 11.7 24.6 10.9 25.2 C 11.1 25.4 13.8 23.9 13.3 23.6 C 13.3 23.6 13.3 23.6 13.3 23.6 Z M 91.4 6.1 C 91.9 6.1 91.9 6.1 92.0 6.2 C 93.6 5.9 91.2 6.0 92.0 5.7 C 91.4 5.7 90.8 5.8 90.3 5.8 C 90.2 6.0 92.6 5.9 90.9 6.2 C 91.0 6.3 91.4 6.2 91.4 6.1 C 91.4 6.1 91.4 6.1 91.4 6.1 Z M 3.6 37.6 C 3.8 38.2 4.0 37.7 4.4 39.2 C 4.4 38.6 4.3 38.3 4.1 37.5 C 3.9 37.5 3.8 37.5 3.6 37.6 C 3.6 37.6 3.6 37.6 3.6 37.6 Z M 82.3 66.3 C 83.7 66.7 84.1 66.1 86.6 66.5 C 85.3 66.0 83.9 66.3 82.3 66.3 C 82.3 66.3 82.3 66.3 82.3 66.3 Z M 175.5 67.9 C 174.7 67.9 175.7 67.7 174.4 67.7 C 173.6 67.8 173.3 68.0 172.1 68.1 C 173.7 68.3 176.6 67.8 177.7 68.3 C 179.1 68.1 179.0 67.8 179.4 67.6 C 178.7 67.6 178.4 67.6 178.3 67.5 C 177.5 68.0 176.5 67.4 175.5 67.9 C 175.5 67.9 175.5 67.9 175.5 67.9 Z M 111.9 68.4 C 110.8 68.2 112.6 68.1 113.0 67.9 C 113.8 68.0 113.5 68.2 113.6 68.4 C 114.6 68.4 114.8 68.3 114.7 68.0 C 112.8 67.9 110.5 67.7 111.9 67.4 C 110.1 67.2 111.1 67.7 110.2 67.7 C 109.2 67.4 110.2 67.4 110.2 67.1 C 109.8 67.1 108.4 67.4 108.5 67.0 C 105.9 67.3 107.0 67.8 109.0 68.4 C 110.8 68.2 108.8 68.0 111.9 68.4 C 111.9 68.4 111.9 68.4 111.9 68.4 Z M 46.7 60.2 C 46.9 60.3 47.6 60.4 47.6 60.5 C 48.6 60.5 49.5 60.3 50.5 60.2 C 50.3 59.9 49.1 59.9 49.5 60.2 C 49.2 60.0 48.3 59.7 47.9 59.4 C 47.0 59.1 46.5 59.7 46.5 59.2 C 45.6 59.2 46.6 59.4 43.8 58.7 C 48.2 60.0 42.3 58.5 42.0 58.8 C 44.5 59.4 46.1 59.7 46.0 59.4 C 46.9 59.7 47.9 60.0 48.1 60.3 C 48.0 60.4 47.3 60.3 46.7 60.2 C 46.7 60.2 46.7 60.2 46.7 60.2 Z M 52.3 60.4 C 52.0 60.4 51.6 60.4 51.0 60.2 C 51.3 60.4 51.4 60.5 51.3 60.7 C 52.5 60.9 52.8 60.8 53.2 61.2 C 54.2 61.4 53.0 60.7 54.6 61.1 C 54.5 61.0 53.7 60.9 53.7 60.8 C 53.5 60.9 52.8 60.9 52.3 60.4 C 52.3 60.4 52.3 60.4 52.3 60.4 Z M 67.1 63.5 C 68.4 63.7 66.4 63.2 67.1 63.1 C 66.8 63.1 64.3 62.7 64.7 62.5 C 64.0 61.9 61.5 62.4 61.8 61.9 C 61.2 61.8 61.4 62.0 61.3 62.1 C 63.0 62.3 62.9 62.5 61.7 62.4 C 61.9 62.5 62.9 62.7 63.6 62.8 C 63.7 62.6 63.1 62.5 63.2 62.3 C 64.7 62.7 65.7 63.1 67.1 63.5 C 67.1 63.5 67.1 63.5 67.1 63.5 Z M 152.8 4.7 C 151.5 4.6 150.7 4.6 150.0 4.7 C 150.4 4.9 151.0 4.7 151.7 4.7 C 151.9 4.9 151.3 4.9 150.5 4.9 C 151.2 5.2 153.6 5.0 152.8 4.7 C 152.8 4.7 152.8 4.7 152.8 4.7 Z M 141.4 4.6 C 140.1 4.5 139.3 4.6 139.1 4.8 C 139.6 5.0 139.4 4.7 140.3 4.7 C 140.8 4.7 141.1 4.8 141.4 5.0 C 142.0 5.0 141.8 4.8 142.0 4.8 C 142.5 4.7 142.5 4.8 142.6 4.9 C 144.1 4.6 140.7 4.9 141.4 4.6 C 141.4 4.6 141.4 4.6 141.4 4.6 Z M 58.8 62.0 C 58.4 61.8 58.1 61.6 57.0 61.4 C 57.2 61.6 56.3 61.4 55.5 61.3 C 56.6 61.7 57.1 61.7 58.8 62.0 C 58.8 62.0 58.8 62.0 58.8 62.0 Z M 72.6 9.0 C 71.0 8.9 71.2 9.4 69.1 9.5 C 69.1 9.6 69.1 9.7 69.1 9.8 C 70.4 9.4 71.0 9.5 72.6 9.0 C 72.6 9.0 72.6 9.0 72.6 9.0 Z M 278.1 40.7 C 278.0 40.5 277.6 41.5 277.4 41.4 C 277.7 41.8 276.9 41.8 275.5 43.5 C 275.4 43.4 275.4 43.3 275.6 43.0 C 274.4 44.3 276.2 42.9 276.5 42.9 C 277.3 41.9 277.6 41.8 278.1 40.7 C 278.1 40.7 278.1 40.7 278.1 40.7 Z M 158.6 67.7 C 158.5 67.8 158.8 67.8 159.1 67.8 C 159.5 67.8 159.9 67.8 160.2 67.8 C 160.1 67.4 158.2 67.2 159.6 66.8 C 159.1 66.8 159.1 66.8 159.1 66.9 C 156.3 67.9 154.2 66.4 150.6 67.1 C 150.0 67.1 150.1 67.2 150.0 67.3 C 150.4 67.3 150.5 67.3 150.6 67.4 C 151.0 67.0 154.3 67.4 152.8 67.5 C 153.0 67.7 153.4 67.6 153.4 67.5 C 153.8 67.5 154.2 67.5 154.6 67.5 C 154.3 67.4 153.6 67.4 153.4 67.2 C 155.2 67.3 157.4 67.4 156.3 67.8 C 157.4 67.7 157.8 67.5 158.6 67.4 C 159.3 67.4 159.3 67.7 158.6 67.7 C 158.6 67.7 158.6 67.7 158.6 67.7 Z M 173.2 67.0 C 174.9 67.0 174.3 66.7 176.0 66.7 C 174.9 66.5 173.6 66.9 172.1 66.8 C 172.3 66.9 173.1 66.9 173.2 67.0 C 173.2 67.0 173.2 67.0 173.2 67.0 Z M 140.3 67.4 C 140.7 67.1 139.1 67.0 137.4 67.0 C 137.1 67.4 138.6 67.4 140.3 67.4 C 140.3 67.4 140.3 67.4 140.3 67.4 Z M 147.7 67.4 C 149.4 67.3 145.6 67.3 146.5 67.0 C 145.8 67.0 144.9 67.1 144.9 66.9 C 144.3 67.0 144.3 67.2 143.2 67.1 C 143.2 67.3 145.0 67.2 144.9 67.4 C 146.2 67.2 146.4 67.2 147.7 67.4 C 147.7 67.4 147.7 67.4 147.7 67.4 Z M 148.8 67.4 C 149.9 67.3 148.5 66.8 147.2 66.8 C 147.7 67.0 148.0 67.3 148.8 67.4 C 148.8 67.4 148.8 67.4 148.8 67.4 Z M 18.7 49.8 C 19.4 50.1 18.9 49.6 19.8 49.9 C 19.9 49.8 16.8 48.4 19.4 49.5 C 18.6 48.8 17.9 49.0 16.9 48.4 C 17.1 48.6 17.4 48.9 16.8 48.6 C 16.3 48.7 19.1 49.7 18.7 49.8 C 18.7 49.8 18.7 49.8 18.7 49.8 Z M 21.8 51.2 C 22.5 51.4 22.2 51.2 21.9 51.1 C 22.0 51.0 23.0 51.4 23.7 51.7 C 23.7 51.9 22.6 50.8 22.7 50.6 C 19.8 49.6 21.9 50.8 21.8 51.2 C 21.8 51.2 21.8 51.2 21.8 51.2 Z M 24.8 52.2 C 26.8 53.2 29.9 54.1 31.5 54.3 C 30.0 53.4 25.9 52.1 24.8 52.2 C 24.8 52.2 24.8 52.2 24.8 52.2 Z M 10.1 44.0 C 11.6 45.8 16.2 48.3 12.6 45.5 C 12.6 45.7 10.2 44.1 9.4 43.1 C 9.3 43.2 8.2 42.4 8.4 42.2 C 7.6 41.7 10.3 44.6 10.1 44.0 C 10.1 44.0 10.1 44.0 10.1 44.0 Z M 34.6 54.6 C 33.3 54.4 34.7 55.4 32.9 54.7 C 31.8 54.4 33.2 54.9 32.8 54.9 C 35.1 55.6 40.2 56.6 40.6 57.1 C 42.0 57.3 42.4 57.2 44.9 57.8 C 45.1 57.7 36.1 55.9 34.5 54.8 C 34.7 54.7 37.6 55.5 34.6 54.6 C 34.6 54.6 34.6 54.6 34.6 54.6 Z M 72.8 10.8 C 73.0 10.5 70.9 11.0 71.3 10.6 C 70.2 11.1 69.1 11.1 67.9 11.5 C 67.5 11.5 67.5 11.0 65.8 11.2 C 65.8 11.5 66.7 11.3 65.9 11.6 C 64.3 11.9 64.7 11.5 62.9 11.8 C 63.3 12.3 59.2 12.6 59.6 13.0 C 60.5 12.8 60.4 12.6 62.0 12.4 C 62.5 12.3 62.3 12.5 63.0 12.4 C 62.6 12.8 61.7 12.5 61.1 12.9 C 61.3 13.0 62.4 12.8 62.6 13.0 C 63.3 12.9 62.4 12.9 62.5 12.7 C 64.4 12.3 62.5 13.4 64.6 13.0 C 64.1 12.8 64.1 12.8 64.5 12.4 C 65.3 12.4 67.8 11.8 66.5 12.4 C 66.7 12.6 68.1 12.0 67.9 11.9 C 68.7 11.7 68.9 11.8 68.9 11.9 C 71.0 11.5 71.3 11.2 70.8 11.0 C 71.2 10.6 71.6 11.1 72.8 10.8 C 72.8 10.8 72.8 10.8 72.8 10.8 Z M 6.1 35.7 C 5.9 35.1 6.1 36.4 6.1 37.0 C 6.1 36.3 6.5 36.5 6.6 35.8 C 6.5 36.0 6.4 36.0 6.4 35.5 C 6.3 35.4 6.1 36.5 6.1 35.7 C 6.1 35.7 6.1 35.7 6.1 35.7 Z M 48.1 58.5 C 48.5 58.8 50.8 59.1 52.1 59.4 C 51.9 58.9 48.8 59.0 48.5 58.4 C 47.8 58.3 48.9 58.6 48.1 58.5 C 48.1 58.5 48.1 58.5 48.1 58.5 Z M 54.4 13.3 C 53.9 13.5 54.1 13.5 54.4 13.4 C 54.3 13.6 53.3 13.7 52.6 13.9 C 53.6 13.9 52.4 14.2 52.7 14.5 C 52.1 14.6 51.9 14.7 51.8 14.7 C 51.7 14.2 49.0 15.6 51.9 15.1 C 51.3 14.9 51.5 14.9 52.7 14.6 C 54.0 14.6 55.0 14.1 55.5 14.3 C 56.4 14.1 56.7 13.9 57.8 13.7 C 58.1 13.9 59.2 13.9 58.4 14.4 C 60.5 14.1 59.0 13.6 60.7 13.2 C 62.3 13.1 59.9 13.7 60.3 13.9 C 60.7 13.8 60.6 14.0 60.8 14.0 C 61.4 13.9 61.3 13.6 60.7 13.7 C 60.9 13.6 62.6 13.1 62.1 13.5 C 63.1 13.2 60.5 12.8 59.2 13.4 C 58.4 13.6 58.3 13.0 59.1 12.9 C 58.8 12.7 57.4 13.6 57.7 12.9 C 57.0 13.1 56.4 13.2 55.8 13.3 C 55.9 13.3 56.3 13.3 56.3 13.4 C 55.7 13.5 55.1 13.6 54.4 13.7 C 54.9 13.5 54.9 13.4 54.4 13.3 C 54.4 13.3 54.4 13.3 54.4 13.3 Z M 39.1 56.3 C 41.1 56.8 41.7 56.8 43.3 57.1 C 42.7 56.7 38.2 55.7 39.1 56.3 C 39.1 56.3 39.1 56.3 39.1 56.3 Z M 81.7 10.6 C 81.6 10.5 80.6 10.7 80.6 10.5 C 82.2 10.2 80.4 10.3 81.6 9.6 C 79.5 10.1 78.9 10.9 81.7 10.8 C 83.8 10.5 79.6 10.9 81.7 10.6 C 81.7 10.6 81.7 10.6 81.7 10.6 Z M 75.5 11.2 C 74.2 11.5 77.4 11.2 78.1 11.2 C 78.1 11.3 78.1 11.4 78.1 11.5 C 79.8 10.9 77.5 11.0 79.0 10.2 C 77.0 10.3 76.1 10.3 74.4 10.7 C 74.5 10.8 74.9 10.7 74.9 10.6 C 76.2 10.5 75.3 11.0 73.9 11.1 C 74.3 11.2 75.6 11.0 76.5 10.9 C 76.2 10.9 75.9 10.8 76.0 10.7 C 77.0 10.5 76.7 10.8 77.5 10.7 C 77.5 10.8 75.5 11.3 75.5 11.2 C 75.5 11.2 75.5 11.2 75.5 11.2 Z M 184.7 8.3 C 183.6 8.3 185.8 8.8 185.7 9.3 C 186.9 9.4 187.1 9.3 187.9 9.3 C 187.5 9.1 186.3 9.0 185.7 8.8 C 186.0 8.4 187.4 9.0 187.9 8.7 C 188.7 8.4 185.2 8.7 184.7 8.3 C 184.7 8.3 184.7 8.3 184.7 8.3 Z M 25.1 21.6 C 24.4 21.9 24.8 21.8 25.1 21.7 C 25.1 21.9 24.0 22.2 24.0 22.2 C 23.1 22.5 24.5 22.1 23.5 22.6 C 23.3 22.8 25.1 21.9 25.2 21.8 C 26.5 21.3 25.6 22.0 26.0 22.0 C 27.2 21.6 26.6 21.5 28.4 20.9 C 27.3 21.1 26.3 21.3 25.1 21.6 C 25.1 21.6 25.1 21.6 25.1 21.6 Z M 85.3 9.6 C 85.5 9.5 84.1 10.2 82.7 10.1 C 80.9 10.3 83.8 10.3 82.2 10.5 C 83.6 10.4 85.3 10.0 87.4 9.7 C 87.9 9.5 84.4 10.0 86.4 9.6 C 86.3 9.5 85.8 9.6 85.8 9.7 C 85.4 9.7 85.3 9.7 85.3 9.6 C 85.3 9.6 85.3 9.6 85.3 9.6 Z M 83.3 10.6 C 83.4 10.7 83.8 10.6 83.8 10.5 C 84.5 10.4 84.5 10.7 83.8 10.8 C 84.8 11.0 84.6 10.4 86.5 10.4 C 85.7 10.2 85.3 10.1 86.9 10.2 C 88.3 9.7 83.8 10.3 83.3 10.6 C 83.3 10.6 83.3 10.6 83.3 10.6 Z M 167.0 7.5 C 167.1 7.6 168.3 7.6 169.2 7.7 C 168.1 7.9 163.5 7.5 163.0 7.3 C 162.5 7.4 162.0 7.4 161.8 7.3 C 161.9 7.4 160.6 7.5 161.3 7.6 C 161.2 7.7 160.2 7.6 160.2 7.7 C 158.5 7.6 160.7 7.5 160.2 7.3 C 158.1 7.6 158.6 7.3 156.2 7.2 C 156.6 7.5 159.2 7.5 159.0 7.9 C 160.9 7.6 162.9 7.9 164.1 8.3 C 162.3 7.7 168.9 7.8 172.0 8.0 C 171.8 8.2 172.9 8.2 174.2 8.4 C 175.0 8.8 174.8 8.1 173.1 8.2 C 173.2 8.0 175.4 8.3 176.4 8.3 C 175.3 8.0 175.9 7.9 175.3 7.8 C 173.2 7.7 175.1 7.9 174.7 8.1 C 174.2 8.0 173.7 8.0 173.1 8.0 C 176.0 7.6 168.8 7.7 171.4 7.8 C 169.1 7.7 169.1 7.4 167.0 7.5 C 167.0 7.5 167.0 7.5 167.0 7.5 Z M 113.7 7.5 C 113.3 7.6 111.5 7.9 111.4 7.6 C 109.2 8.0 111.2 8.1 108.7 8.3 C 108.8 8.4 109.8 8.3 109.8 8.4 C 110.8 8.3 111.7 8.1 111.5 7.8 C 112.6 7.8 112.9 7.7 113.7 7.6 C 113.4 7.8 113.0 7.9 112.0 7.9 C 111.9 8.2 112.2 8.3 113.7 8.2 C 114.4 7.9 113.9 7.7 113.7 7.5 C 113.7 7.5 113.7 7.5 113.7 7.5 Z M 108.1 8.2 C 107.8 8.2 107.5 8.1 107.5 8.0 C 106.7 7.7 107.2 8.4 106.4 8.4 C 105.8 8.4 106.0 8.3 105.9 8.1 C 104.9 8.3 104.2 8.4 103.7 8.3 C 102.2 8.6 105.4 8.5 105.9 8.5 C 107.0 8.5 106.6 8.2 108.1 8.2 C 108.1 8.2 108.1 8.2 108.1 8.2 Z M 91.7 9.1 C 91.4 8.9 90.9 9.4 90.1 9.4 C 90.7 9.6 92.2 9.3 91.2 9.8 C 92.8 9.7 92.9 9.7 94.5 9.5 C 95.5 9.7 94.5 9.2 92.8 9.5 C 93.0 9.4 93.8 9.3 93.8 9.1 C 94.9 9.6 97.6 8.5 96.0 9.1 C 95.5 9.0 95.2 8.9 94.9 8.8 C 94.6 9.1 90.9 9.3 91.7 9.1 C 91.7 9.1 91.7 9.1 91.7 9.1 Z M 40.2 17.6 C 41.8 17.1 42.6 16.9 43.5 16.7 C 44.3 16.5 45.6 16.2 46.5 16.1 C 46.6 16.2 46.5 16.3 46.1 16.4 C 46.6 16.4 47.1 16.2 47.9 16.0 C 47.8 15.9 47.4 16.0 47.4 16.1 C 46.0 16.2 47.2 15.9 47.3 15.6 C 45.6 15.7 42.4 17.0 40.9 17.0 C 39.7 17.4 41.1 17.1 40.2 17.6 C 40.2 17.6 40.2 17.6 40.2 17.6 Z M 276.3 38.6 C 276.4 38.8 276.2 39.2 276.4 39.2 C 276.5 38.8 276.5 38.6 276.6 38.2 C 276.3 38.8 276.0 38.6 275.6 39.3 C 275.8 39.2 276.1 39.3 276.3 38.6 C 276.3 38.6 276.3 38.6 276.3 38.6 Z M 97.1 8.8 C 97.2 8.9 97.2 9.0 96.6 9.1 C 96.4 9.4 98.1 9.1 98.2 9.3 C 98.8 9.2 98.6 9.1 99.3 9.0 C 99.0 8.9 97.6 9.0 98.2 8.7 C 98.6 8.6 98.7 8.7 98.8 8.7 C 99.9 8.5 98.2 8.6 97.1 8.8 C 97.1 8.8 97.1 8.8 97.1 8.8 Z M 190.1 9.0 C 189.3 9.0 190.1 9.2 190.6 9.3 C 189.0 9.5 191.5 9.8 191.6 10.2 C 191.0 9.8 188.8 9.8 188.4 9.7 C 187.8 9.7 188.5 10.0 186.8 10.0 C 187.0 10.2 188.9 10.1 188.4 9.9 C 188.9 10.3 190.7 10.0 190.6 10.4 C 193.0 10.7 193.5 10.5 193.8 10.2 C 191.4 10.1 192.7 9.7 190.6 9.6 C 190.6 9.5 191.3 9.6 191.7 9.6 C 191.5 9.4 190.7 9.2 190.1 9.0 C 190.1 9.0 190.1 9.0 190.1 9.0 Z M 131.7 7.1 C 130.5 7.2 130.5 7.4 130.6 7.7 C 131.1 7.6 131.9 7.5 132.9 7.5 C 132.6 7.4 131.1 7.5 131.7 7.1 C 131.7 7.1 131.7 7.1 131.7 7.1 Z M 181.3 8.8 C 181.2 8.6 180.8 8.7 180.8 8.7 C 179.4 8.6 179.1 8.5 178.6 8.3 C 177.9 8.3 178.1 8.5 178.1 8.7 C 179.4 8.5 179.1 8.9 180.8 8.9 C 180.7 8.8 180.9 8.8 181.3 8.8 C 181.3 8.8 181.3 8.8 181.3 8.8 Z M 143.7 7.3 C 143.0 7.3 143.3 7.4 143.7 7.4 C 142.9 7.7 140.6 7.4 139.7 7.6 C 139.6 7.8 142.5 7.8 139.1 7.9 C 139.7 8.1 142.7 7.9 144.2 8.0 C 143.9 8.2 141.8 8.2 142.0 8.6 C 143.7 8.4 145.7 8.2 146.0 7.8 C 143.4 7.7 144.3 7.5 143.7 7.3 C 143.7 7.3 143.7 7.3 143.7 7.3 Z M 146.5 7.5 C 146.3 7.3 145.8 7.5 144.8 7.5 C 146.2 7.8 147.1 7.7 149.9 7.8 C 149.9 7.7 149.9 7.7 149.9 7.6 C 150.5 7.6 151.1 7.6 151.7 7.6 C 149.2 7.3 148.6 7.5 146.0 7.6 C 145.8 7.5 146.2 7.5 146.5 7.5 C 146.5 7.5 146.5 7.5 146.5 7.5 Z M 73.0 11.7 C 73.7 11.8 74.3 11.9 75.5 11.8 C 75.4 11.5 74.6 11.4 73.0 11.7 C 73.0 11.7 73.0 11.7 73.0 11.7 Z M 183.5 9.1 C 185.0 9.0 182.1 9.0 183.0 9.4 C 184.1 9.6 185.4 9.8 185.6 10.1 C 187.8 9.8 183.2 9.5 183.5 9.1 C 183.5 9.1 183.5 9.1 183.5 9.1 Z M 173.6 9.2 C 172.9 9.1 173.0 8.7 173.6 9.0 C 175.2 9.1 172.3 8.6 174.7 8.9 C 173.7 8.7 171.3 8.4 170.2 8.5 C 170.3 8.8 172.4 8.8 172.5 9.0 C 172.6 9.1 172.2 9.1 171.9 9.1 C 172.1 9.3 172.6 9.1 173.6 9.2 C 173.6 9.2 173.6 9.2 173.6 9.2 Z M 165.2 8.3 C 166.1 8.5 167.2 8.7 169.1 8.8 C 167.9 8.5 167.2 8.2 165.2 8.3 C 165.2 8.3 165.2 8.3 165.2 8.3 Z M 267.7 27.5 C 266.8 26.9 267.5 27.7 267.5 27.8 C 268.5 28.4 268.6 28.2 269.5 28.9 C 269.4 28.4 268.2 28.1 267.7 27.5 C 267.7 27.5 267.7 27.5 267.7 27.5 Z M 270.8 29.7 C 270.8 29.9 271.8 30.6 271.8 30.8 C 272.7 30.8 272.7 32.2 273.0 31.9 C 273.1 32.1 273.2 32.3 273.5 32.6 C 273.4 31.7 271.8 30.4 270.8 29.7 C 270.8 29.7 270.8 29.7 270.8 29.7 Z M 155.6 8.6 C 154.1 8.5 156.0 9.1 154.5 9.0 C 154.3 9.1 157.3 9.3 155.6 9.3 C 157.9 9.6 155.4 8.7 155.6 8.6 C 155.6 8.6 155.6 8.6 155.6 8.6 Z M 127.8 8.9 C 127.9 8.7 125.8 8.9 125.0 8.9 C 125.0 9.0 125.7 9.0 126.1 9.0 C 125.9 9.1 125.6 9.2 125.0 9.2 C 125.4 9.4 127.0 9.0 127.8 8.9 C 127.8 8.9 127.8 8.9 127.8 8.9 Z M 158.6 3.5 C 159.5 3.8 160.7 4.1 161.4 3.7 C 162.4 4.0 160.7 4.0 161.9 4.2 C 163.6 4.1 162.8 4.4 165.4 4.3 C 164.9 4.7 166.7 4.7 167.1 5.0 C 166.0 5.0 164.7 4.6 164.2 4.9 C 165.1 4.9 164.6 5.2 164.2 5.0 C 162.5 4.7 166.3 4.7 164.2 4.4 C 163.6 4.8 160.6 3.9 158.6 3.9 C 159.4 3.7 157.1 3.5 158.6 3.5 C 158.6 3.5 158.6 3.5 158.6 3.5 Z M 168.7 4.4 C 170.1 4.5 170.8 5.2 170.4 5.1 C 170.4 5.0 168.9 4.9 168.7 5.0 C 169.1 5.1 169.4 5.1 169.3 5.2 C 166.8 5.0 167.7 4.8 167.1 4.6 C 168.5 4.5 168.8 4.7 169.3 4.6 C 169.0 4.6 168.7 4.5 168.7 4.4 C 168.7 4.4 168.7 4.4 168.7 4.4 Z M 197.4 11.5 C 197.2 11.3 196.8 11.5 196.3 11.5 C 196.3 11.1 193.5 11.4 193.2 11.1 C 193.8 11.0 195.2 11.1 195.8 11.1 C 195.1 10.9 195.0 10.8 194.2 10.9 C 194.4 10.6 196.0 10.8 196.4 10.6 C 196.5 10.8 197.3 10.6 197.5 10.8 C 195.4 10.8 198.6 11.6 197.4 11.5 C 197.4 11.5 197.4 11.5 197.4 11.5 Z M 142.6 8.9 C 142.3 9.2 144.8 9.9 142.6 10.3 C 142.1 10.0 141.8 9.7 142.0 9.4 C 140.6 9.6 140.0 9.3 139.1 9.6 C 136.5 8.7 141.1 9.7 142.6 8.9 C 142.6 8.9 142.6 8.9 142.6 8.9 Z M 133.4 9.2 C 133.9 8.9 132.7 9.0 132.9 8.7 C 134.0 8.9 137.5 8.6 136.3 8.8 C 135.1 8.9 135.2 9.2 133.4 9.2 C 133.4 9.2 133.4 9.2 133.4 9.2 Z M 76.4 62.8 C 74.8 62.8 74.0 62.1 75.0 62.1 C 74.5 62.4 77.0 62.5 76.4 62.8 C 76.4 62.8 76.4 62.8 76.4 62.8 Z M 10.7 49.9 C 11.8 50.8 12.7 51.1 12.7 51.5 C 11.4 50.8 11.6 50.7 10.6 50.0 C 10.4 50.1 9.7 49.8 9.7 49.6 C 10.3 49.9 10.3 49.7 10.7 49.9 C 10.7 49.9 10.7 49.9 10.7 49.9 Z M 98.9 3.6 C 98.7 3.5 98.1 3.5 98.4 3.3 C 100.0 3.3 101.9 2.9 103.3 2.6 C 103.3 2.7 103.3 2.9 103.3 3.0 C 100.7 3.1 100.0 3.4 98.9 3.6 C 98.9 3.6 98.9 3.6 98.9 3.6 Z M 95.5 3.3 C 95.3 3.4 96.2 3.7 95.1 3.8 C 95.1 3.6 93.0 3.4 93.9 3.3 C 94.3 3.5 94.8 3.4 95.5 3.3 C 95.5 3.3 95.5 3.3 95.5 3.3 Z M 190.4 5.0 C 191.8 5.1 189.9 4.7 189.9 4.6 C 190.9 4.7 192.2 4.8 192.6 5.0 C 191.7 4.9 190.9 5.4 190.4 5.0 C 190.4 5.0 190.4 5.0 190.4 5.0 Z M 169.9 4.4 C 167.0 4.3 168.3 3.8 165.4 3.6 C 166.6 3.5 169.2 3.6 169.9 3.4 C 169.8 3.6 170.5 3.7 170.5 3.8 C 169.4 3.8 169.3 3.7 168.2 3.6 C 168.6 4.0 168.6 3.8 168.2 4.1 C 169.0 4.2 169.5 4.1 169.9 4.1 C 169.7 4.3 170.7 4.4 169.9 4.4 C 169.9 4.4 169.9 4.4 169.9 4.4 Z M 189.8 5.8 C 190.9 5.8 191.9 6.3 190.9 6.2 C 190.8 6.0 190.0 6.2 189.8 6.0 C 191.4 6.0 188.5 5.7 189.3 5.5 C 190.3 5.6 190.6 5.6 190.4 5.3 C 191.0 5.4 192.0 5.5 192.0 5.6 C 191.6 5.6 191.0 5.5 191.0 5.6 C 191.3 5.6 191.6 5.7 191.5 5.7 C 190.5 5.6 190.1 5.7 189.8 5.8 C 189.8 5.8 189.8 5.8 189.8 5.8 Z M 182.2 5.2 C 183.7 5.3 183.8 5.6 184.3 5.9 C 182.3 5.6 182.0 5.2 180.5 4.9 C 182.2 5.1 183.9 4.8 184.4 5.1 C 183.6 5.1 182.3 5.0 182.2 5.2 C 182.2 5.2 182.2 5.2 182.2 5.2 Z M 218.9 63.2 C 217.7 63.2 216.7 63.2 215.4 63.2 C 215.0 63.6 217.5 63.8 216.5 63.8 C 215.1 64.0 216.0 63.5 214.9 63.6 C 216.0 63.9 210.2 64.7 209.9 64.3 C 210.8 64.2 211.0 64.0 210.8 63.9 C 213.2 63.6 214.1 63.2 215.8 62.9 C 217.2 63.1 220.8 62.6 222.7 61.9 C 224.0 62.3 226.2 61.2 228.0 61.4 C 228.4 61.1 226.5 61.3 227.9 61.0 C 228.9 61.2 228.2 61.4 229.4 61.3 C 229.5 61.2 229.2 61.0 229.8 60.8 C 229.8 61.1 230.5 60.9 230.8 61.0 C 228.3 61.4 231.1 61.4 229.1 61.8 C 228.2 61.8 229.8 61.1 227.6 61.6 C 226.7 61.8 226.0 62.0 226.2 62.3 C 225.6 62.4 225.2 62.5 224.8 62.7 C 225.6 62.1 221.5 63.3 223.3 62.6 C 223.5 62.6 224.8 62.4 225.7 62.1 C 224.8 61.9 223.8 62.3 222.3 62.7 C 221.7 62.5 222.6 62.3 221.8 62.4 C 220.6 62.8 222.3 62.7 221.4 63.0 C 221.8 63.0 222.4 62.9 222.4 63.0 C 220.3 63.0 219.5 63.5 218.5 63.6 C 219.2 63.3 217.2 63.5 218.9 63.2 C 218.9 63.2 218.9 63.2 218.9 63.2 Z M 235.8 59.8 C 236.2 59.7 236.7 59.6 237.1 59.5 C 237.3 59.7 235.6 60.2 236.8 60.2 C 234.8 60.5 236.8 59.8 235.8 59.8 C 235.8 59.8 235.8 59.8 235.8 59.8 Z M 226.4 60.5 C 225.7 60.3 226.2 60.9 225.5 61.0 C 226.7 60.8 227.7 60.5 227.9 60.8 C 226.5 60.9 225.9 61.0 224.6 61.4 C 225.8 60.7 223.0 61.3 222.5 61.0 C 223.6 60.8 224.4 60.5 225.9 60.3 C 225.6 60.4 227.7 60.2 226.4 60.5 C 226.4 60.5 226.4 60.5 226.4 60.5 Z M 230.1 59.4 C 230.4 59.5 232.3 59.0 232.0 59.4 C 230.8 59.6 230.3 59.8 230.6 60.0 C 229.7 60.2 229.6 60.1 228.8 60.2 C 228.2 60.0 229.7 59.7 230.1 59.5 C 229.8 59.5 229.5 59.5 230.1 59.4 C 230.1 59.4 230.1 59.4 230.1 59.4 Z M 271.3 43.2 C 271.7 43.3 270.4 44.1 270.1 44.2 C 270.6 44.2 270.5 44.4 269.6 45.1 C 269.8 44.5 268.5 45.5 267.4 45.7 C 267.3 46.1 268.6 45.5 267.2 46.3 C 266.0 46.9 265.0 47.5 263.0 48.5 C 262.4 48.4 263.3 48.0 263.8 47.6 C 262.4 48.3 262.7 47.9 261.6 48.4 C 261.9 48.4 261.0 48.9 260.6 48.9 C 262.5 48.0 257.8 49.6 259.9 48.7 C 260.0 48.7 260.5 48.5 260.9 48.2 C 260.6 48.8 263.1 47.6 263.7 47.5 C 264.4 46.4 266.9 45.5 269.2 44.3 C 269.4 44.4 268.8 44.9 269.3 44.6 C 269.3 44.4 270.0 44.0 270.2 43.7 C 270.3 43.9 270.6 43.8 271.0 43.5 C 271.0 43.4 271.0 43.4 271.3 43.2 C 271.3 43.2 271.3 43.2 271.3 43.2 Z M 128.9 65.1 C 129.0 64.6 125.4 64.8 124.4 64.9 C 124.6 64.3 131.0 64.6 128.9 65.1 C 128.9 65.1 128.9 65.1 128.9 65.1 Z M 151.1 64.8 C 150.1 64.8 150.8 65.1 150.0 65.1 C 149.9 64.8 147.8 65.4 147.7 65.1 C 148.7 64.8 149.4 64.8 151.1 64.8 C 151.1 64.8 151.1 64.8 151.1 64.8 Z M 171.4 64.2 C 169.8 64.4 172.3 64.3 172.0 64.5 C 170.5 64.5 169.1 64.6 169.2 64.3 C 170.4 64.4 171.2 64.0 171.4 64.2 C 171.4 64.2 171.4 64.2 171.4 64.2 Z M 140.9 64.5 C 139.5 64.4 141.8 64.0 142.0 64.2 C 140.5 64.3 143.0 64.5 144.3 64.4 C 144.2 64.8 143.6 64.7 144.3 65.0 C 142.3 65.2 143.9 64.7 142.5 64.7 C 141.6 64.9 142.6 64.9 142.5 65.1 C 142.0 65.1 141.4 65.1 140.9 65.1 C 140.9 65.0 140.9 64.8 140.9 64.6 C 141.5 64.6 142.2 64.6 142.0 64.4 C 141.4 64.4 141.3 64.5 140.9 64.5 C 140.9 64.5 140.9 64.5 140.9 64.5 Z M 241.8 54.3 C 240.6 54.6 241.7 54.5 242.7 54.3 C 242.9 54.1 243.6 53.3 245.0 53.3 C 242.0 54.3 246.1 53.4 244.4 54.0 C 243.6 53.9 241.8 54.8 240.2 55.1 C 239.5 55.0 241.1 54.2 241.8 54.3 C 241.8 54.3 241.8 54.3 241.8 54.3 Z M 247.4 53.0 C 247.3 53.0 246.7 53.1 245.8 53.3 C 246.8 52.8 245.4 53.1 246.6 52.7 C 246.4 52.9 250.4 51.9 248.1 52.6 C 246.0 53.0 248.7 52.6 249.7 52.4 C 248.7 52.6 246.9 53.5 246.6 53.3 C 247.2 53.2 247.6 53.1 247.4 53.0 C 247.4 53.0 247.4 53.0 247.4 53.0 Z M 274.4 38.5 C 274.3 38.4 274.1 38.7 274.0 38.7 C 274.5 37.9 274.6 37.3 274.7 36.9 C 274.7 37.2 274.9 37.3 275.1 37.1 C 274.9 37.5 275.0 37.6 274.8 37.7 C 274.7 37.3 274.7 38.0 274.4 38.5 C 274.4 38.5 274.4 38.5 274.4 38.5 Z M 274.4 38.5 " fill="#72FA78"></path></g></svg>