<?xml version="1.0" encoding="UTF-8" standalone="no"?><svg xmlns="http://www.w3.org/2000/svg" xmlns:xlink="http://www.w3.org/1999/xlink" clip-rule="evenodd" stroke-miterlimit="10" viewBox="0 0 1024 768"><desc>SVG generated by Keynote</desc><defs></defs><g transform="matrix(1.00, 0.00, -0.00, -1.00, 0.0, 768.0)"><path d="M 0.0 768.0 L 1024.0 768.0 L 1024.0 0.0 L 0.0 0.0 Z M 0.0 768.0 " fill="#FEFFFF"></path><image xlink:href="../../248649AA-AA50-4FAD-A07A-79D5A9FB76E4/assets/19C2984BE4622D1FD950ABFCF22D54D2.jpeg" width="1024.00" height="768.00" transform="matrix(1.00, 0.00, -0.00, -1.00, 0.0, 768.0)"></image><text xml:space="preserve" font-family="CourierNewPS-BoldMT,Courier New" font-weight="bold" font-size="60.0" fill="#000000" transform="matrix(1.00, 0.00, -0.00, -1.00, 111.5, 438.0)">3</text><text xml:space="preserve" font-family="CourierNewPS-BoldMT,Courier New" font-weight="bold" font-size="60.0" fill="#000000" transform="matrix(1.00, 0.00, -0.00, -1.00, 147.5, 438.0)"> </text><text xml:space="preserve" font-family="CourierNewPS-BoldMT,Courier New" font-weight="bold" font-size="60.0" fill="#000000" transform="matrix(1.00, 0.00, -0.00, -1.00, 183.5, 438.0)">v</text><text xml:space="preserve" font-family="CourierNewPS-BoldMT,Courier New" font-weight="bold" font-size="60.0" fill="#000000" transform="matrix(1.00, 0.00, -0.00, -1.00, 219.5, 438.0)">o</text><text xml:space="preserve" font-family="CourierNewPS-BoldMT,Courier New" font-weight="bold" font-size="60.0" fill="#000000" transform="matrix(1.00, 0.00, -0.00, -1.00, 255.5, 438.0)">l</text><text xml:space="preserve" font-family="CourierNewPS-BoldMT,Courier New" font-weight="bold" font-size="60.0" fill="#000000" transform="matrix(1.00, 0.00, -0.00, -1.00, 291.5, 438.0)">t</text><text xml:space="preserve" font-family="CourierNewPS-BoldMT,Courier New" font-weight="bold" font-size="60.0" fill="#000000" transform="matrix(1.00, 0.00, -0.00, -1.00, 327.6, 438.0)">s</text><path d="M 125.3 72.1 L 121.8 70.1 L 0.0 0.0 " fill="none" stroke="#000000" stroke-width="8.00" transform="matrix(1.00, 0.00, 0.00, -1.00, 243.7, 403.5)"></path><path d="M 350.9 323.8 L 385.8 321.7 L 366.5 350.8 L 365.5 333.4 Z M 350.9 323.8 " fill="#000000"></path><text xml:space="preserve" font-family="CourierNewPS-BoldMT,Courier New" font-weight="bold" font-size="60.0" fill="#E22400" transform="matrix(1.00, 0.00, -0.00, -1.00, 698.5, 665.0)">e</text><text xml:space="preserve" font-family="CourierNewPS-BoldMT,Courier New" font-weight="bold" font-size="60.0" fill="#E22400" transform="matrix(1.00, 0.00, -0.00, -1.00, 734.5, 665.0)">a</text><text xml:space="preserve" font-family="CourierNewPS-BoldMT,Courier New" font-weight="bold" font-size="60.0" fill="#E22400" transform="matrix(1.00, 0.00, -0.00, -1.00, 770.5, 665.0)">t</text><text xml:space="preserve" font-family="CourierNewPS-BoldMT,Courier New" font-weight="bold" font-size="60.0" fill="#E22400" transform="matrix(1.00, 0.00, -0.00, -1.00, 806.5, 665.0)">s</text><text xml:space="preserve" font-family="CourierNewPS-BoldMT,Courier New" font-weight="bold" font-size="60.0" fill="#E22400" transform="matrix(1.00, 0.00, -0.00, -1.00, 842.5, 665.0)"> </text><text xml:space="preserve" font-family="CourierNewPS-BoldMT,Courier New" font-weight="bold" font-size="60.0" fill="#E22400" transform="matrix(1.00, 0.00, -0.00, -1.00, 878.5, 665.0)">1</text><text xml:space="preserve" font-family="CourierNewPS-BoldMT,Courier New" font-weight="bold" font-size="60.0" fill="#E22400" transform="matrix(1.00, 0.00, -0.00, -1.00, 914.5, 665.0)">.</text><text xml:space="preserve" font-family="CourierNewPS-BoldMT,Courier New" font-weight="bold" font-size="60.0" fill="#E22400" transform="matrix(1.00, 0.00, -0.00, -1.00, 950.6, 665.0)">7</text><text xml:space="preserve" font-family="CourierNewPS-BoldMT,Courier New" font-weight="bold" font-size="60.0" fill="#E22400" transform="matrix(1.00, 0.00, -0.00, -1.00, 986.6, 665.0)"> </text><text xml:space="preserve" font-family="CourierNewPS-BoldMT,Courier New" font-weight="bold" font-size="60.0" fill="#E22400" transform="matrix(1.00, 0.00, -0.00, -1.00, 752.5, 597.0)">-</text><text xml:space="preserve" font-family="CourierNewPS-BoldMT,Courier New" font-weight="bold" font-size="60.0" fill="#E22400" transform="matrix(1.00, 0.00, -0.00, -1.00, 788.5, 597.0)"> </text><text xml:space="preserve" font-family="CourierNewPS-BoldMT,Courier New" font-weight="bold" font-size="60.0" fill="#E22400" transform="matrix(1.00, 0.00, -0.00, -1.00, 824.5, 597.0)">2</text><text xml:space="preserve" font-family="CourierNewPS-BoldMT,Courier New" font-weight="bold" font-size="60.0" fill="#E22400" transform="matrix(1.00, 0.00, -0.00, -1.00, 860.5, 597.0)">.</text><text xml:space="preserve" font-family="CourierNewPS-BoldMT,Courier New" font-weight="bold" font-size="60.0" fill="#E22400" transform="matrix(1.00, 0.00, -0.00, -1.00, 896.5, 597.0)">5</text><text xml:space="preserve" font-family="CourierNewPS-BoldMT,Courier New" font-weight="bold" font-size="60.0" fill="#E22400" transform="matrix(1.00, 0.00, -0.00, -1.00, 932.5, 597.0)"> </text><text xml:space="preserve" font-family="CourierNewPS-BoldMT,Courier New" font-weight="bold" font-size="60.0" fill="#E22400" transform="matrix(1.00, 0.00, -0.00, -1.00, 752.5, 529.0)">v</text><text xml:space="preserve" font-family="CourierNewPS-BoldMT,Courier New" font-weight="bold" font-size="60.0" fill="#E22400" transform="matrix(1.00, 0.00, -0.00, -1.00, 788.5, 529.0)">o</text><text xml:space="preserve" font-family="CourierNewPS-BoldMT,Courier New" font-weight="bold" font-size="60.0" fill="#E22400" transform="matrix(1.00, 0.00, -0.00, -1.00, 824.5, 529.0)">l</text><text xml:space="preserve" font-family="CourierNewPS-BoldMT,Courier New" font-weight="bold" font-size="60.0" fill="#E22400" transform="matrix(1.00, 0.00, -0.00, -1.00, 860.5, 529.0)">t</text><text xml:space="preserve" font-family="CourierNewPS-BoldMT,Courier New" font-weight="bold" font-size="60.0" fill="#E22400" transform="matrix(1.00, 0.00, -0.00, -1.00, 896.5, 529.0)">s</text><path d="M 16.4 65.5 L 19.8 63.3 L 120.3 0.0 " fill="none" stroke="#E22400" stroke-width="8.00" transform="matrix(1.00, 0.00, 0.00, -1.00, 575.6, 638.5)"></path><path d="M 593.7 592.6 L 575.6 562.8 L 610.3 566.2 L 595.4 575.2 Z M 593.7 592.6 " fill="#E22400"></path></g></svg>