<?xml version="1.0" encoding="UTF-8" standalone="no"?><svg xmlns="http://www.w3.org/2000/svg" xmlns:xlink="http://www.w3.org/1999/xlink" clip-rule="evenodd" stroke-miterlimit="10" viewBox="0 0 1024 768"><desc>SVG generated by Keynote</desc><defs></defs><g transform="matrix(1.00, 0.00, -0.00, -1.00, 0.0, 768.0)"><path d="M 0.0 768.0 L 1024.0 768.0 L 1024.0 0.0 L 0.0 0.0 Z M 0.0 768.0 " fill="#FEFFFF"></path><text xml:space="preserve" font-family="CourierNewPS-BoldMT,Courier New" font-weight="bold" font-size="70.0" fill="#AAAAAA" transform="matrix(1.00, 0.00, -0.00, -1.00, 154.4, 405.5)">l</text><text xml:space="preserve" font-family="CourierNewPS-BoldMT,Courier New" font-weight="bold" font-size="70.0" fill="#AAAAAA" transform="matrix(1.00, 0.00, -0.00, -1.00, 196.5, 405.5)">o</text><text xml:space="preserve" font-family="CourierNewPS-BoldMT,Courier New" font-weight="bold" font-size="70.0" fill="#AAAAAA" transform="matrix(1.00, 0.00, -0.00, -1.00, 238.5, 405.5)">o</text><text xml:space="preserve" font-family="CourierNewPS-BoldMT,Courier New" font-weight="bold" font-size="70.0" fill="#AAAAAA" transform="matrix(1.00, 0.00, -0.00, -1.00, 280.5, 405.5)">k</text><text xml:space="preserve" font-family="CourierNewPS-BoldMT,Courier New" font-weight="bold" font-size="70.0" fill="#AAAAAA" transform="matrix(1.00, 0.00, -0.00, -1.00, 322.5, 405.5)"> </text><text xml:space="preserve" font-family="CourierNewPS-BoldMT,Courier New" font-weight="bold" font-size="70.0" fill="#AAAAAA" transform="matrix(1.00, 0.00, -0.00, -1.00, 364.5, 405.5)">a</text><text xml:space="preserve" font-family="CourierNewPS-BoldMT,Courier New" font-weight="bold" font-size="70.0" fill="#AAAAAA" transform="matrix(1.00, 0.00, -0.00, -1.00, 406.5, 405.5)">t</text><text xml:space="preserve" font-family="CourierNewPS-BoldMT,Courier New" font-weight="bold" font-size="70.0" fill="#AAAAAA" transform="matrix(1.00, 0.00, -0.00, -1.00, 448.5, 405.5)"> </text><text xml:space="preserve" font-family="CourierNewPS-BoldMT,Courier New" font-weight="bold" font-size="70.0" fill="#AAAAAA" transform="matrix(1.00, 0.00, -0.00, -1.00, 490.6, 405.5)">y</text><text xml:space="preserve" font-family="CourierNewPS-BoldMT,Courier New" font-weight="bold" font-size="70.0" fill="#AAAAAA" transform="matrix(1.00, 0.00, -0.00, -1.00, 532.6, 405.5)">o</text><text xml:space="preserve" font-family="CourierNewPS-BoldMT,Courier New" font-weight="bold" font-size="70.0" fill="#AAAAAA" transform="matrix(1.00, 0.00, -0.00, -1.00, 574.6, 405.5)">u</text><text xml:space="preserve" font-family="CourierNewPS-BoldMT,Courier New" font-weight="bold" font-size="70.0" fill="#AAAAAA" transform="matrix(1.00, 0.00, -0.00, -1.00, 616.6, 405.5)">r</text><text xml:space="preserve" font-family="CourierNewPS-BoldMT,Courier New" font-weight="bold" font-size="70.0" fill="#AAAAAA" transform="matrix(1.00, 0.00, -0.00, -1.00, 658.6, 405.5)"> </text><text xml:space="preserve" font-family="CourierNewPS-BoldMT,Courier New" font-weight="bold" font-size="70.0" fill="#AAAAAA" transform="matrix(1.00, 0.00, -0.00, -1.00, 700.6, 405.5)">L</text><text xml:space="preserve" font-family="CourierNewPS-BoldMT,Courier New" font-weight="bold" font-size="70.0" fill="#AAAAAA" transform="matrix(1.00, 0.00, -0.00, -1.00, 742.6, 405.5)">E</text><text xml:space="preserve" font-family="CourierNewPS-BoldMT,Courier New" font-weight="bold" font-size="70.0" fill="#AAAAAA" transform="matrix(1.00, 0.00, -0.00, -1.00, 784.6, 405.5)">D</text><text xml:space="preserve" font-family="CourierNewPS-BoldMT,Courier New" font-weight="bold" font-size="70.0" fill="#AAAAAA" transform="matrix(1.00, 0.00, -0.00, -1.00, 826.7, 405.5)">.</text><text xml:space="preserve" font-family="CourierNewPS-BoldMT,Courier New" font-weight="bold" font-size="70.0" fill="#AAAAAA" transform="matrix(1.00, 0.00, -0.00, -1.00, 868.7, 405.5)"> </text><text xml:space="preserve" font-family="CourierNewPS-BoldMT,Courier New" font-weight="bold" font-size="70.0" fill="#AAAAAA" transform="matrix(1.00, 0.00, -0.00, -1.00, 112.4, 326.5)">w</text><text xml:space="preserve" font-family="CourierNewPS-BoldMT,Courier New" font-weight="bold" font-size="70.0" fill="#AAAAAA" transform="matrix(1.00, 0.00, -0.00, -1.00, 154.4, 326.5)">h</text><text xml:space="preserve" font-family="CourierNewPS-BoldMT,Courier New" font-weight="bold" font-size="70.0" fill="#AAAAAA" transform="matrix(1.00, 0.00, -0.00, -1.00, 196.5, 326.5)">a</text><text xml:space="preserve" font-family="CourierNewPS-BoldMT,Courier New" font-weight="bold" font-size="70.0" fill="#AAAAAA" transform="matrix(1.00, 0.00, -0.00, -1.00, 238.5, 326.5)">t</text><text xml:space="preserve" font-family="CourierNewPS-BoldMT,Courier New" font-weight="bold" font-size="70.0" fill="#AAAAAA" transform="matrix(1.00, 0.00, -0.00, -1.00, 280.5, 326.5)"> </text><text xml:space="preserve" font-family="CourierNewPS-BoldMT,Courier New" font-weight="bold" font-size="70.0" fill="#AAAAAA" transform="matrix(1.00, 0.00, -0.00, -1.00, 322.5, 326.5)">d</text><text xml:space="preserve" font-family="CourierNewPS-BoldMT,Courier New" font-weight="bold" font-size="70.0" fill="#AAAAAA" transform="matrix(1.00, 0.00, -0.00, -1.00, 364.5, 326.5)">o</text><text xml:space="preserve" font-family="CourierNewPS-BoldMT,Courier New" font-weight="bold" font-size="70.0" fill="#AAAAAA" transform="matrix(1.00, 0.00, -0.00, -1.00, 406.5, 326.5)"> </text><text xml:space="preserve" font-family="CourierNewPS-BoldMT,Courier New" font-weight="bold" font-size="70.0" fill="#AAAAAA" transform="matrix(1.00, 0.00, -0.00, -1.00, 448.5, 326.5)">y</text><text xml:space="preserve" font-family="CourierNewPS-BoldMT,Courier New" font-weight="bold" font-size="70.0" fill="#AAAAAA" transform="matrix(1.00, 0.00, -0.00, -1.00, 490.6, 326.5)">o</text><text xml:space="preserve" font-family="CourierNewPS-BoldMT,Courier New" font-weight="bold" font-size="70.0" fill="#AAAAAA" transform="matrix(1.00, 0.00, -0.00, -1.00, 532.6, 326.5)">u</text><text xml:space="preserve" font-family="CourierNewPS-BoldMT,Courier New" font-weight="bold" font-size="70.0" fill="#AAAAAA" transform="matrix(1.00, 0.00, -0.00, -1.00, 574.6, 326.5)"> </text><text xml:space="preserve" font-family="CourierNewPS-BoldMT,Courier New" font-weight="bold" font-size="70.0" fill="#AAAAAA" transform="matrix(1.00, 0.00, -0.00, -1.00, 616.6, 326.5)">n</text><text xml:space="preserve" font-family="CourierNewPS-BoldMT,Courier New" font-weight="bold" font-size="70.0" fill="#AAAAAA" transform="matrix(1.00, 0.00, -0.00, -1.00, 658.6, 326.5)">o</text><text xml:space="preserve" font-family="CourierNewPS-BoldMT,Courier New" font-weight="bold" font-size="70.0" fill="#AAAAAA" transform="matrix(1.00, 0.00, -0.00, -1.00, 700.6, 326.5)">t</text><text xml:space="preserve" font-family="CourierNewPS-BoldMT,Courier New" font-weight="bold" font-size="70.0" fill="#AAAAAA" transform="matrix(1.00, 0.00, -0.00, -1.00, 742.6, 326.5)">i</text><text xml:space="preserve" font-family="CourierNewPS-BoldMT,Courier New" font-weight="bold" font-size="70.0" fill="#AAAAAA" transform="matrix(1.00, 0.00, -0.00, -1.00, 784.7, 326.5)">c</text><text xml:space="preserve" font-family="CourierNewPS-BoldMT,Courier New" font-weight="bold" font-size="70.0" fill="#AAAAAA" transform="matrix(1.00, 0.00, -0.00, -1.00, 826.7, 326.5)">e</text><text xml:space="preserve" font-family="CourierNewPS-BoldMT,Courier New" font-weight="bold" font-size="70.0" fill="#AAAAAA" transform="matrix(1.00, 0.00, -0.00, -1.00, 868.7, 326.5)">?</text></g></svg>