<?xml version="1.0" encoding="UTF-8" standalone="no"?><svg xmlns="http://www.w3.org/2000/svg" xmlns:xlink="http://www.w3.org/1999/xlink" clip-rule="evenodd" stroke-miterlimit="10" viewBox="0 0 1024 768"><desc>SVG generated by Keynote</desc><defs></defs><g transform="matrix(1.00, 0.00, -0.00, -1.00, 0.0, 768.0)"><path d="M 0.0 768.0 L 1024.0 768.0 L 1024.0 0.0 L 0.0 0.0 Z M 0.0 768.0 " fill="#FEFFFF"></path><g><clipPath id="clip0x7f915846e290"><path d="M 335.2 455.8 L 330.8 468.0 L 335.4 468.0 C 337.9 467.8 342.0 467.8 344.6 468.0 L 349.2 468.0 L 344.7 455.8 C 342.3 448.9 340.1 443.2 340.0 443.2 C 339.8 443.2 337.6 448.9 335.2 455.8 M 288.4 464.5 C 288.4 464.7 299.5 488.3 299.8 488.6 C 299.9 488.7 302.8 485.9 306.4 482.3 L 312.8 475.8 L 300.8 470.1 C 289.0 464.3 288.4 464.1 288.4 464.5 M 384.3 467.7 C 380.5 469.5 375.1 472.1 372.3 473.4 L 367.2 475.8 L 373.6 482.3 C 377.1 485.9 380.1 488.7 380.2 488.6 C 380.7 488.1 391.6 464.7 391.4 464.5 C 391.3 464.4 388.1 465.8 384.3 467.7 M 330.1 475.3 C 324.0 476.8 316.5 480.8 312.1 484.8 C 306.3 490.1 302.7 495.7 300.0 503.6 C 298.5 508.2 297.9 519.6 298.9 524.9 C 302.0 540.6 314.2 553.6 329.7 557.4 C 335.6 558.9 344.3 558.9 350.3 557.4 C 365.3 553.7 376.6 542.3 380.5 527.1 C 381.9 521.7 382.0 512.3 380.8 506.8 C 377.8 493.8 368.8 482.9 356.9 477.6 C 349.3 474.3 338.2 473.3 330.1 475.3 M 280.2 511.6 C 273.5 514.1 267.8 516.3 267.6 516.5 C 267.5 516.6 271.7 518.4 277.2 520.3 C 282.6 522.2 288.2 524.2 289.7 524.8 L 292.0 525.9 L 292.0 520.4 C 291.8 517.5 291.9 513.2 292.2 511.0 C 292.4 508.8 292.6 507.0 292.6 507.0 C 292.6 507.1 287.0 509.1 280.2 511.6 M 387.9 516.4 C 387.9 521.3 388.0 525.3 388.2 525.3 C 388.9 525.3 412.6 516.7 412.6 516.4 C 412.6 516.1 388.9 507.5 388.2 507.5 C 388.0 507.5 387.9 511.5 387.9 516.4 M 294.1 556.2 C 291.0 562.8 288.5 568.3 288.6 568.4 C 288.7 568.5 294.2 566.0 300.8 562.8 L 312.8 557.0 L 306.4 550.5 C 302.9 547.0 300.0 544.1 299.9 544.1 C 299.8 544.1 297.2 549.5 294.1 556.2 M 373.4 550.6 L 367.3 556.9 L 370.1 558.4 C 371.7 559.2 377.2 561.9 382.5 564.4 L 391.9 568.9 L 386.1 556.5 C 382.9 549.7 380.1 544.2 379.9 544.2 C 379.8 544.2 376.8 547.1 373.4 550.6 M 331.9 567.7 C 332.6 569.5 334.6 575.2 336.4 580.3 C 338.2 585.4 339.8 589.6 340.0 589.6 C 340.1 589.6 342.3 583.9 344.7 577.0 L 349.2 564.0 L 344.6 565.0 C 342.0 565.2 337.9 565.2 335.3 565.0 L 330.7 564.0 L 331.9 567.7 "></path></clipPath><g clip-path="url(#clip0x7f915846e290)"><image xlink:href="../../DB345B19-1111-4FAA-B578-A0E58809D588/assets/680A7B1E2D115D2266B719FCEA089AC9.png" width="340.00" height="329.00" transform="matrix(0.55, 0.00, -0.00, -0.55, 248.5, 607.3)"></image></g></g><g><clipPath id="clip0x7f915846af10"><path d="M 802.2 430.5 C 804.1 435.7 810.9 438.1 827.3 439.4 C 836.2 440.1 836.6 440.2 838.7 442.6 L 841.0 445.1 L 841.0 487.0 L 841.0 528.8 L 857.4 547.3 C 866.5 557.4 874.2 565.8 874.6 565.9 C 875.3 566.2 880.2 560.5 880.2 559.5 C 880.2 559.1 873.4 551.0 865.0 541.4 L 850.0 524.0 L 850.0 484.2 L 850.0 444.3 L 852.2 442.3 C 854.1 440.4 855.2 440.1 863.6 439.5 C 873.6 438.6 878.8 437.7 883.0 435.9 C 886.2 434.6 889.0 431.9 889.0 430.3 C 889.0 429.2 883.6 429.1 845.4 429.1 C 804.2 429.1 801.8 429.1 802.2 430.5 M 900.9 511.6 C 893.5 519.8 890.2 525.1 888.6 531.6 C 886.6 539.5 887.7 549.2 891.5 555.9 C 892.7 558.1 891.5 559.2 889.7 557.6 C 888.8 556.8 887.9 556.5 887.5 556.9 C 886.5 558.1 867.1 581.6 866.0 583.0 C 865.1 584.1 865.6 584.7 869.5 587.3 C 871.9 589.0 876.0 592.7 878.5 595.4 L 883.1 600.5 L 897.0 586.5 L 910.9 573.0 L 917.8 573.0 C 925.8 573.5 932.7 572.1 938.4 568.8 C 940.3 567.7 945.4 563.1 949.6 558.6 L 957.3 550.5 L 946.6 540.1 C 924.5 518.8 909.2 505.2 907.4 505.2 C 907.1 505.2 904.1 508.1 900.9 511.6 M 867.9 595.6 C 865.5 598.1 865.1 600.9 867.1 601.7 C 868.7 602.3 870.9 601.0 872.9 598.3 L 874.4 596.1 L 872.6 594.7 C 870.2 593.0 870.5 592.9 867.9 595.6 "></path></clipPath><g clip-path="url(#clip0x7f915846af10)"><image xlink:href="../../DB345B19-1111-4FAA-B578-A0E58809D588/assets/15C39075F870A48772D47032BA2E1694.png" width="297.00" height="288.00" transform="matrix(0.80, 0.00, -0.00, -0.80, 752.0, 635.0)"></image></g></g><g><clipPath id="clip0x7f9158471b00"><path d="M 179.9 449.2 L 176.0 453.2 L 179.6 457.3 C 191.8 471.8 197.4 487.0 197.4 505.5 C 197.4 523.9 191.8 539.1 179.6 553.6 L 176.0 557.8 L 179.9 561.7 C 182.1 563.8 184.1 565.6 184.5 565.6 C 185.4 565.6 191.9 557.8 195.4 552.3 C 201.1 543.7 205.3 533.2 207.8 521.9 C 208.6 518.1 208.8 514.6 208.8 505.5 C 208.8 496.3 208.6 492.8 207.8 489.0 C 205.3 477.7 201.1 467.3 195.4 458.6 C 192.0 453.3 185.4 445.3 184.4 445.3 C 184.1 445.3 182.1 447.1 179.9 449.2 M 106.6 465.2 L 89.4 481.0 L 73.5 481.0 L 58.0 481.0 L 58.0 505.5 L 58.0 530.0 L 73.9 530.0 L 90.2 530.0 L 107.0 545.8 L 124.0 561.6 L 124.0 533.5 C 124.1 518.1 124.1 492.8 124.0 477.4 L 124.0 449.3 L 106.6 465.2 M 162.7 466.5 L 158.7 470.6 L 161.5 473.9 C 170.1 484.0 174.4 498.2 172.8 510.7 C 171.6 520.6 167.7 529.7 161.5 537.1 L 158.7 540.4 L 162.9 544.7 L 167.1 548.9 L 169.1 546.6 C 175.5 539.1 180.4 530.0 182.8 520.9 C 184.2 515.9 184.3 514.4 184.3 505.5 C 184.3 496.5 184.2 495.0 182.8 490.0 C 181.2 484.0 177.9 476.5 175.0 472.2 C 172.6 468.6 167.6 462.3 167.1 462.3 C 166.9 462.3 165.0 464.2 162.7 466.5 M 145.4 483.8 C 143.3 485.9 141.6 487.8 141.6 488.1 C 141.6 488.4 142.4 489.5 143.4 490.6 C 150.1 498.3 150.1 512.6 143.4 520.3 C 142.4 521.4 141.6 522.6 141.6 522.9 C 141.6 523.6 149.1 531.0 149.8 531.0 C 151.5 531.0 157.1 521.4 158.9 515.4 C 160.4 510.7 160.4 500.2 158.9 495.5 C 157.1 489.5 151.4 479.9 149.7 479.9 C 149.4 479.9 147.5 481.7 145.4 483.8 "></path></clipPath><g clip-path="url(#clip0x7f9158471b00)"><image xlink:href="../../DB345B19-1111-4FAA-B578-A0E58809D588/assets/3E5D9E438027E031ED099B0ED8054589.png" width="399.00" height="299.00" transform="matrix(0.57, 0.00, -0.00, -0.57, 13.9, 591.7)"></image></g></g><g><clipPath id="clip0x7f9158075f80"><path d="M 110.3 163.4 C 109.5 163.9 108.3 165.1 107.7 166.0 C 106.8 167.5 107.0 168.5 107.0 180.8 L 107.0 194.0 L 103.7 204.4 C 102.1 210.0 100.5 214.9 100.3 215.1 C 100.0 215.4 99.5 215.3 99.1 214.9 C 98.7 214.5 92.6 203.7 85.5 190.9 C 71.6 165.6 71.7 165.8 67.5 165.7 C 63.1 165.7 60.5 168.2 60.4 172.5 C 60.4 174.9 61.1 176.2 74.1 199.8 L 87.8 224.6 L 92.1 243.7 C 94.5 254.2 96.7 263.9 97.1 265.3 C 98.3 269.6 100.5 269.9 112.9 266.9 C 120.1 265.2 122.2 264.9 126.6 265.0 C 134.9 265.0 159.4 266.0 159.9 266.3 C 160.1 266.4 160.3 268.1 160.3 270.0 C 160.3 274.1 161.3 275.3 163.9 275.0 L 165.0 275.0 L 166.0 285.2 L 166.0 295.0 L 170.7 295.0 L 176.0 295.0 L 176.0 228.8 L 176.0 162.0 L 170.7 162.0 L 166.0 162.0 L 166.0 207.1 L 165.0 252.0 L 162.8 252.0 C 159.6 252.5 124.1 251.8 123.5 251.2 C 123.3 250.9 121.3 242.9 119.1 233.3 L 115.0 215.9 L 117.4 207.6 C 118.6 203.0 120.0 198.2 120.4 196.8 C 121.0 194.7 121.2 191.7 121.0 180.9 C 120.9 169.2 120.8 167.4 120.0 166.0 C 118.1 162.6 113.6 161.4 110.3 163.4 M 113.4 268.9 C 111.0 269.5 108.8 271.0 107.4 273.1 C 106.3 274.7 106.0 275.7 105.8 278.6 C 105.6 282.5 106.5 285.0 108.8 287.1 C 112.5 290.6 119.8 290.6 123.5 287.1 C 128.3 282.6 127.6 273.7 122.1 270.3 C 119.7 268.9 115.9 268.2 113.4 268.9 "></path></clipPath><g clip-path="url(#clip0x7f9158075f80)"><image xlink:href="../../DB345B19-1111-4FAA-B578-A0E58809D588/assets/F8F4FF5F34A3B59BA9289C7D859DEAA0.png" width="329.00" height="363.00" transform="matrix(0.50, 0.00, -0.00, -0.50, 36.4, 321.5)"></image></g></g><g><clipPath id="clip0x7f915853a860"><path d="M 669.6 580.8 C 661.9 580.8 655.8 578.3 650.6 573.1 C 641.6 564.0 640.4 550.4 647.7 539.2 L 649.0 536.6 L 650.0 542.4 C 650.1 545.5 649.5 549.1 649.2 550.2 C 647.6 556.7 650.1 564.4 655.5 569.4 C 660.4 573.9 666.1 575.8 672.4 574.9 C 678.8 574.0 685.1 569.4 688.1 563.2 C 690.2 559.0 690.6 555.5 689.8 550.2 C 689.5 548.0 688.9 544.0 689.0 541.4 L 690.0 536.6 L 691.6 539.7 C 698.5 550.3 697.2 564.3 688.4 573.1 C 683.0 578.4 677.1 580.8 669.6 580.8 Z M 669.5 567.7 C 664.5 567.7 659.6 564.7 657.3 560.1 L 656.0 557.8 L 656.0 527.4 C 655.9 510.6 655.8 496.6 655.7 496.2 C 655.5 495.8 653.8 497.2 650.7 500.4 C 645.5 505.8 643.5 506.9 639.2 507.2 C 631.2 507.7 625.3 502.2 625.3 494.3 C 625.3 488.5 625.9 487.6 642.5 470.9 C 656.2 457.1 657.4 456.0 660.8 454.4 C 662.8 453.4 665.5 452.3 666.8 451.9 C 669.9 451.1 722.3 450.9 725.2 451.7 C 728.1 452.5 731.0 455.0 732.6 458.2 L 734.0 461.0 L 734.0 483.0 C 734.1 497.9 734.1 505.8 733.8 507.6 C 732.2 515.1 725.0 519.4 717.6 517.2 C 714.9 516.4 714.8 516.5 713.8 517.4 C 710.6 520.4 704.8 521.4 700.5 520.0 L 698.1 519.0 L 695.6 521.1 C 692.5 523.2 690.1 524.1 686.0 524.0 L 683.0 524.0 L 683.0 541.2 C 682.8 558.2 682.3 558.9 681.2 560.8 C 679.1 564.8 674.1 567.7 669.5 567.7 Z M 668.8 562.1 C 669.6 562.2 670.4 562.1 671.2 561.9 C 673.0 561.4 675.5 559.5 676.4 557.9 C 676.8 557.1 677.0 551.1 677.2 535.3 C 677.4 515.3 677.5 513.8 678.3 513.7 C 678.8 513.6 679.7 514.2 680.5 515.1 C 682.0 516.8 685.0 518.4 687.1 518.4 C 690.4 518.4 694.2 515.5 695.1 512.2 C 695.6 510.3 696.8 510.4 699.0 512.6 C 701.6 515.2 704.0 515.9 706.9 514.8 C 709.5 513.8 711.3 511.9 712.0 509.2 C 712.6 506.9 713.6 506.8 715.0 508.8 C 718.5 513.5 725.0 513.2 727.6 508.3 C 728.4 506.7 728.5 505.1 728.5 484.4 C 728.5 459.9 728.6 460.7 725.3 458.1 L 723.5 457.0 L 697.1 457.0 C 670.9 456.9 670.7 456.5 667.5 457.6 C 665.8 458.2 663.3 459.4 661.9 460.3 C 659.4 461.9 632.4 489.2 631.3 491.2 C 629.8 494.1 631.2 498.7 634.3 500.5 C 639.0 503.4 640.2 502.8 650.7 492.0 C 657.3 485.4 659.8 483.1 660.5 483.2 C 661.5 483.4 661.5 483.5 661.7 520.1 C 661.9 546.8 662.1 557.1 662.5 557.8 C 663.9 560.2 666.3 561.8 668.8 562.1 Z M 668.8 562.1 "></path></clipPath><g clip-path="url(#clip0x7f915853a860)"><image xlink:href="../../DB345B19-1111-4FAA-B578-A0E58809D588/assets/AEBFE5845093347B0BB8C8D3510E9C55.png" width="401.00" height="344.00" transform="matrix(0.48, 0.00, -0.00, -0.48, 587.8, 596.8)"></image></g></g><g><clipPath id="clip0x7f91585554b0"><path d="M 886.8 154.2 C 886.8 163.3 887.2 168.7 888.3 174.0 C 889.1 177.9 889.5 181.4 889.2 181.8 C 888.5 182.5 879.0 172.6 877.9 170.1 C 877.5 169.1 876.4 163.6 875.5 157.7 L 873.7 147.0 L 871.6 148.0 C 870.5 148.2 868.2 148.2 866.5 148.4 C 864.9 148.7 863.5 149.2 863.5 149.5 C 863.5 150.2 867.4 172.8 868.0 175.0 C 868.2 176.0 872.3 181.0 877.2 186.2 C 885.0 194.5 886.6 196.6 890.8 205.0 C 893.5 210.4 895.3 214.8 894.9 215.2 C 894.6 215.6 892.3 215.5 889.8 215.0 C 885.6 214.1 884.6 214.2 875.7 216.7 C 870.4 218.1 865.7 219.6 865.1 219.9 C 864.5 220.3 864.4 221.4 864.7 223.1 C 865.2 225.3 865.5 225.6 867.4 225.2 C 868.6 224.9 873.1 224.2 877.4 223.5 L 885.3 222.3 L 896.2 224.8 C 909.2 227.8 912.3 227.7 914.7 223.7 C 915.6 222.3 916.3 220.1 916.3 218.8 C 916.3 217.4 913.3 210.6 909.1 202.3 C 902.4 189.0 901.8 187.4 899.5 176.8 C 897.5 167.1 897.0 163.8 897.0 153.5 L 897.0 142.0 L 891.9 142.0 L 887.0 142.0 L 887.0 154.0 M 867.6 228.8 C 858.1 230.6 850.2 232.2 850.0 232.4 C 849.7 232.7 853.7 256.7 854.2 257.2 C 854.3 257.4 862.5 256.0 872.4 254.3 C 882.2 252.5 890.3 251.1 890.4 251.1 C 890.5 251.1 887.9 235.7 886.7 229.7 C 886.2 227.4 885.6 225.6 885.3 225.6 C 885.0 225.6 877.0 227.1 867.6 228.8 M 909.3 232.7 C 903.0 234.2 900.1 241.1 903.2 247.5 C 906.3 254.1 917.7 254.3 921.2 247.8 C 922.4 245.4 922.2 239.7 920.8 236.8 C 919.1 233.5 913.8 231.6 909.3 232.7 M 881.5 257.0 C 871.9 258.7 863.8 260.2 863.6 260.4 C 863.4 260.6 864.7 268.8 866.4 278.7 C 868.8 292.2 869.8 296.7 870.7 296.7 C 873.1 296.7 904.8 290.8 905.4 290.3 C 906.0 289.8 901.0 259.2 899.7 255.5 C 899.1 253.9 898.9 253.9 881.5 257.0 M 876.2 299.8 C 869.7 301.0 864.2 302.1 864.0 302.3 C 863.7 302.6 867.4 324.8 867.9 325.2 C 868.2 325.6 893.2 320.9 893.6 320.4 C 893.9 320.1 893.2 315.0 892.2 308.9 C 890.8 300.8 890.0 297.8 889.1 297.7 C 888.5 297.7 882.6 298.6 876.2 299.8 M 877.3 327.7 C 862.6 330.4 861.1 330.8 861.2 332.2 C 861.2 334.4 865.1 355.2 865.5 355.7 C 865.9 356.0 898.2 350.7 900.8 349.9 C 901.5 349.6 900.0 339.0 897.2 324.8 C 897.1 324.3 892.3 325.0 877.3 327.7 "></path></clipPath><g clip-path="url(#clip0x7f91585554b0)"><image xlink:href="../../DB345B19-1111-4FAA-B578-A0E58809D588/assets/96AFC5621E1CC7D9D11E1A094CE5C286.png" width="234.00" height="349.00" transform="matrix(0.80, 0.00, -0.00, -0.80, 786.0, 391.0)"></image></g></g><g><clipPath id="clip0x7f9158559ad0"><path d="M 633.8 295.6 C 628.8 295.5 623.9 295.3 621.1 294.6 C 606.8 291.4 596.0 285.5 586.4 275.6 C 577.0 265.8 570.9 253.6 568.7 240.1 C 567.4 231.9 567.9 220.8 569.9 213.0 C 573.9 198.0 582.1 185.5 594.3 176.3 C 601.6 170.8 612.9 166.1 622.9 164.2 C 628.0 163.3 639.3 163.3 645.2 164.3 C 658.2 166.4 670.5 172.6 680.2 181.9 C 690.0 191.4 696.1 202.7 699.1 216.7 C 700.4 222.7 700.4 236.1 699.2 242.2 C 693.4 269.4 673.5 289.3 646.8 294.7 C 643.8 295.3 638.7 295.6 633.8 295.6 Z M 632.1 281.4 C 633.5 281.5 635.0 281.5 636.4 281.4 C 641.9 281.2 647.4 280.0 652.8 277.9 C 665.0 273.2 676.8 261.7 682.0 249.4 C 684.8 242.6 685.8 237.6 685.7 229.1 C 685.7 218.9 684.0 212.6 679.0 204.0 C 671.5 191.0 658.8 181.7 644.4 178.7 C 638.9 177.6 629.1 177.5 624.2 178.6 C 604.7 182.8 589.9 196.5 584.0 215.9 C 582.7 220.1 582.6 221.1 582.6 229.4 C 582.6 237.2 582.7 238.8 583.7 242.4 C 590.5 265.7 610.2 280.6 632.1 281.4 Z M 662.8 261.0 C 662.7 261.1 622.0 241.7 621.5 241.2 C 621.2 240.9 605.3 198.9 605.3 198.4 C 605.3 198.3 605.4 198.2 605.6 198.2 C 606.3 198.2 646.5 217.7 646.9 218.3 C 647.4 219.1 663.0 260.8 662.8 261.0 Z M 655.1 252.4 C 655.3 252.2 653.1 245.9 650.2 238.3 C 647.4 230.7 644.9 224.4 644.7 224.1 C 644.5 223.9 640.5 227.3 635.8 231.5 C 631.1 235.8 627.4 239.5 627.6 239.7 C 628.6 240.6 654.9 252.8 655.1 252.4 Z M 655.1 252.4 "></path></clipPath><g clip-path="url(#clip0x7f9158559ad0)"><image xlink:href="../../DB345B19-1111-4FAA-B578-A0E58809D588/assets/8573916E4D9233215F6BF975690FA952.png" width="373.00" height="367.00" transform="matrix(0.51, 0.00, -0.00, -0.51, 537.3, 320.4)"></image></g></g><g><clipPath id="clip0x7f9158473160"><path d="M 516.3 446.4 C 506.4 449.0 499.6 457.0 498.0 468.0 L 498.0 470.0 L 501.5 470.0 L 505.0 470.0 L 506.0 468.0 C 506.9 462.6 510.5 457.2 515.8 454.4 C 517.8 453.3 518.9 453.1 523.1 453.1 C 527.5 453.1 528.4 453.3 530.7 454.5 C 534.0 456.3 538.1 460.5 539.6 463.8 C 540.4 465.7 540.7 467.3 540.7 470.5 C 540.7 473.7 540.4 475.3 539.6 477.2 C 538.1 480.5 534.0 484.7 530.7 486.4 L 528.1 488.0 L 508.7 488.0 C 498.0 488.1 489.0 488.0 488.6 487.9 C 488.1 487.7 488.3 486.9 489.3 484.6 C 490.5 482.1 490.7 480.8 490.7 477.3 C 490.7 473.7 490.5 472.6 489.1 469.6 C 487.1 465.4 484.5 462.6 480.6 460.8 C 478.0 459.6 477.0 459.5 472.4 459.5 C 467.4 459.5 467.0 459.5 463.8 461.2 C 462.0 462.2 459.8 463.9 458.9 464.9 C 456.8 467.3 455.5 471.3 455.0 474.6 L 454.0 477.0 L 457.8 477.0 L 461.0 477.0 L 462.0 474.7 C 462.7 471.9 465.6 468.6 468.3 467.3 C 474.0 464.6 481.4 468.3 483.2 474.7 C 484.4 479.0 482.4 483.6 478.2 486.4 L 475.7 488.0 L 460.2 488.0 L 445.0 488.0 L 445.0 491.8 L 445.0 495.0 L 484.2 495.0 C 526.7 495.0 526.1 495.4 528.0 498.1 C 528.5 498.8 528.9 500.3 528.9 501.4 C 528.9 503.0 528.5 503.8 527.1 505.2 C 524.6 507.7 522.1 507.7 519.6 505.2 C 518.7 504.2 517.9 503.1 517.9 502.6 C 517.9 501.9 517.2 502.0 514.1 502.0 L 510.0 502.0 L 511.0 503.9 C 511.4 507.1 513.5 510.7 516.5 512.5 C 518.8 514.0 519.5 514.1 523.4 514.1 C 527.2 514.1 527.9 514.0 530.2 512.5 C 531.8 511.5 533.4 510.0 534.4 508.4 C 535.8 506.1 536.0 505.4 536.0 501.5 C 536.0 498.5 535.7 496.8 535.0 495.5 L 534.0 493.6 L 535.5 492.6 C 540.3 489.0 541.4 488.1 543.2 485.7 C 550.9 475.6 549.4 460.1 540.0 451.8 C 533.8 446.3 524.5 444.2 516.3 446.4 M 552.1 498.4 C 543.5 500.7 537.2 507.4 536.0 515.9 L 536.0 519.0 L 539.4 519.0 L 543.0 519.0 L 544.0 516.5 C 545.2 511.6 548.6 507.4 553.4 505.7 C 562.1 502.6 572.0 510.0 572.0 519.7 C 572.0 523.1 569.3 528.2 566.3 530.5 C 561.8 534.0 564.6 534.0 501.7 534.0 L 445.0 534.0 L 445.0 537.5 L 445.0 541.0 L 473.1 541.0 L 501.3 541.0 L 503.8 542.7 C 507.7 544.6 511.3 548.2 513.2 552.1 C 514.8 555.2 515.0 556.1 515.0 560.1 C 515.0 563.8 514.7 565.1 513.6 567.6 C 511.6 571.7 508.4 575.0 504.3 577.1 C 501.1 578.6 500.3 578.8 496.1 578.8 C 491.9 578.8 490.9 578.6 488.3 577.3 C 482.7 574.5 477.0 567.2 477.0 562.2 L 477.0 561.0 L 473.7 561.0 L 470.0 561.0 L 470.0 562.4 C 470.0 564.9 471.5 569.9 473.1 572.9 C 475.0 576.5 480.2 581.6 483.7 583.3 C 500.5 591.7 519.5 582.0 522.2 563.8 C 523.2 556.9 521.6 550.2 517.6 544.5 C 516.6 543.2 515.9 541.9 516.1 541.6 C 516.2 541.4 523.0 541.0 531.2 541.0 L 546.1 541.0 L 548.7 542.9 C 552.9 545.7 554.8 550.3 553.6 554.6 C 551.8 561.0 544.4 564.7 538.7 562.0 C 536.0 560.7 532.7 557.4 532.0 554.6 L 532.0 552.0 L 528.2 552.0 L 525.0 552.0 L 525.0 554.7 C 525.5 558.4 528.1 563.4 530.6 565.6 C 534.5 569.0 536.9 569.8 542.8 569.8 C 547.4 569.8 548.5 569.7 551.0 568.5 C 554.9 566.6 557.6 563.9 559.5 559.7 C 560.9 556.8 561.1 555.7 561.1 552.0 C 561.2 548.5 560.9 547.2 559.8 544.7 C 559.0 543.0 558.4 541.4 558.6 541.2 C 558.7 541.0 560.1 540.7 561.6 540.5 C 565.5 540.0 570.3 537.5 573.3 534.3 C 579.5 527.6 581.0 517.7 576.9 509.3 C 572.6 500.5 561.8 495.8 552.1 498.4 M 486.9 502.2 C 485.7 503.6 484.7 504.9 484.7 505.1 C 484.7 505.2 486.3 506.6 488.1 508.1 C 490.0 509.7 491.4 511.1 491.2 511.3 C 491.1 511.6 480.6 512.0 467.9 512.0 L 445.0 512.0 L 445.0 515.2 L 445.0 519.0 L 467.9 519.0 C 480.6 519.0 491.1 518.8 491.3 519.0 C 491.4 519.3 490.0 520.7 488.1 522.2 C 486.3 523.8 484.7 525.1 484.7 525.3 C 484.7 525.8 489.1 530.7 489.6 530.7 C 490.3 530.7 507.8 515.8 507.8 515.2 C 507.8 514.5 490.3 499.7 489.6 499.7 C 489.3 499.7 488.1 500.8 486.9 502.2 "></path></clipPath><g clip-path="url(#clip0x7f9158473160)"><image xlink:href="../../DB345B19-1111-4FAA-B578-A0E58809D588/assets/781C59ED84DA08A1DEB12A3CAB049565.png" width="370.00" height="335.00" transform="matrix(0.53, 0.00, -0.00, -0.53, 408.5, 606.4)"></image></g></g><g><clipPath id="clip0x7f9158474500"><path d="M 287.2 157.4 C 287.2 159.0 287.7 159.0 311.6 159.0 C 335.5 159.0 336.0 159.0 336.0 157.4 C 336.0 155.8 335.5 155.8 311.6 155.8 C 287.7 155.8 287.2 155.8 287.2 157.4 M 366.1 156.3 C 365.8 156.6 365.6 158.2 365.6 159.9 C 365.6 163.4 365.2 162.9 383.2 182.7 L 396.4 197.2 L 402.4 211.8 C 405.7 219.8 411.7 233.3 415.7 241.7 C 419.7 250.1 422.7 257.3 422.4 257.7 C 422.1 258.0 418.2 256.6 413.9 254.5 L 406.1 250.6 L 401.1 239.4 C 398.4 233.3 395.5 227.8 394.7 227.2 C 393.9 226.7 392.1 226.2 390.7 226.2 C 386.0 226.2 386.3 228.5 392.8 242.7 C 395.9 249.7 398.9 255.8 399.5 256.3 C 400.0 256.9 409.0 261.3 419.6 266.3 C 440.7 276.1 444.2 277.0 448.6 273.7 C 450.6 272.2 451.1 270.6 454.0 257.7 L 457.2 243.4 L 466.3 238.7 C 475.4 234.1 475.4 234.1 474.9 231.5 C 474.3 228.5 471.8 226.2 469.1 226.2 C 468.1 226.2 463.1 228.3 458.1 230.8 L 448.9 235.3 L 447.9 240.4 C 446.0 249.9 445.6 249.7 438.8 235.5 L 432.7 222.8 L 440.5 209.2 L 448.0 195.6 L 447.0 178.3 C 446.5 168.8 445.9 160.4 445.5 159.7 C 444.3 157.4 441.4 155.8 438.7 155.8 C 434.2 155.8 434.2 156.5 435.0 174.0 L 436.0 189.8 L 428.5 202.4 C 422.8 212.4 421.0 215.1 419.2 215.7 C 417.5 216.3 416.7 216.2 416.2 215.5 C 415.8 215.0 413.4 209.7 410.9 203.8 C 408.4 197.9 405.9 192.2 405.4 191.3 C 403.6 188.1 375.7 158.1 373.5 156.9 C 371.2 155.8 367.1 155.4 366.1 156.3 M 287.0 173.0 L 287.0 176.0 L 314.8 176.0 L 342.0 176.0 L 342.0 173.4 L 342.0 171.0 L 314.8 171.0 L 287.0 171.0 L 287.0 173.0 M 287.2 189.8 C 287.2 190.8 291.9 191.0 324.8 191.0 C 357.7 191.0 362.4 190.8 362.4 189.8 C 362.4 188.8 357.7 188.6 324.8 188.6 C 291.9 188.6 287.2 188.8 287.2 189.8 M 287.0 213.0 L 287.0 215.0 L 331.6 215.0 L 376.0 215.0 L 376.0 212.6 L 376.0 210.0 L 331.6 210.0 L 287.0 210.0 L 287.0 213.0 M 287.2 227.0 C 287.2 227.5 299.9 227.8 323.6 227.8 C 347.3 227.8 360.0 227.5 360.0 227.0 C 360.0 226.5 347.3 226.2 323.6 226.2 C 299.9 226.2 287.2 226.5 287.2 227.0 M 287.2 247.4 C 287.2 248.5 292.2 248.6 327.6 248.6 C 363.0 248.6 368.0 248.5 368.0 247.4 C 368.0 246.3 363.0 246.2 327.6 246.2 C 292.2 246.2 287.2 246.3 287.2 247.4 M 287.2 266.2 C 287.2 267.8 287.7 267.8 336.0 267.8 C 384.3 267.8 384.8 267.8 384.8 266.2 C 384.8 264.6 384.3 264.6 336.0 264.6 C 287.7 264.6 287.2 264.6 287.2 266.2 M 443.7 279.9 C 438.7 284.2 440.7 294.2 447.4 299.0 C 450.9 301.6 456.5 302.8 460.2 301.7 C 468.1 299.4 467.5 286.4 459.1 280.8 C 456.6 279.2 454.5 278.6 450.8 278.3 C 446.5 278.1 445.6 278.3 443.7 279.9 M 287.0 283.0 L 287.0 285.0 L 351.2 285.0 L 415.0 285.0 L 415.0 282.6 L 415.0 281.0 L 351.2 281.0 L 287.0 281.0 L 287.0 283.0 M 287.2 301.0 C 287.2 302.1 295.3 302.2 355.2 302.2 C 415.1 302.2 423.2 302.1 423.2 301.0 C 423.2 299.9 415.1 299.8 355.2 299.8 C 295.3 299.8 287.2 299.9 287.2 301.0 "></path></clipPath><g clip-path="url(#clip0x7f9158474500)"><image xlink:href="../../DB345B19-1111-4FAA-B578-A0E58809D588/assets/05C22C69B3F71BBDADF1DA8C9F3C6007.png" width="314.00" height="265.00" transform="matrix(0.80, 0.00, -0.00, -0.80, 256.0, 335.0)"></image></g></g></g></svg>