<?xml version="1.0" encoding="UTF-8" standalone="no"?><svg xmlns="http://www.w3.org/2000/svg" xmlns:xlink="http://www.w3.org/1999/xlink" clip-rule="evenodd" stroke-miterlimit="10" viewBox="0 0 1024 768"><desc>SVG generated by Keynote</desc><defs></defs><g transform="matrix(1.00, 0.00, -0.00, -1.00, 0.0, 768.0)"><path d="M 0.0 768.0 L 1024.0 768.0 L 1024.0 0.0 L 0.0 0.0 Z M 0.0 768.0 " fill="#FEFFFF"></path><text xml:space="preserve" font-family="CourierNewPS-BoldMT,Courier New" font-weight="bold" font-size="70.0" fill="#AAAAAA" transform="matrix(1.00, 0.00, -0.00, -1.00, 259.5, 445.0)">e</text><text xml:space="preserve" font-family="CourierNewPS-BoldMT,Courier New" font-weight="bold" font-size="70.0" fill="#AAAAAA" transform="matrix(1.00, 0.00, -0.00, -1.00, 301.5, 445.0)">l</text><text xml:space="preserve" font-family="CourierNewPS-BoldMT,Courier New" font-weight="bold" font-size="70.0" fill="#AAAAAA" transform="matrix(1.00, 0.00, -0.00, -1.00, 343.5, 445.0)">e</text><text xml:space="preserve" font-family="CourierNewPS-BoldMT,Courier New" font-weight="bold" font-size="70.0" fill="#AAAAAA" transform="matrix(1.00, 0.00, -0.00, -1.00, 385.5, 445.0)">c</text><text xml:space="preserve" font-family="CourierNewPS-BoldMT,Courier New" font-weight="bold" font-size="70.0" fill="#AAAAAA" transform="matrix(1.00, 0.00, -0.00, -1.00, 427.5, 445.0)">t</text><text xml:space="preserve" font-family="CourierNewPS-BoldMT,Courier New" font-weight="bold" font-size="70.0" fill="#AAAAAA" transform="matrix(1.00, 0.00, -0.00, -1.00, 469.5, 445.0)">r</text><text xml:space="preserve" font-family="CourierNewPS-BoldMT,Courier New" font-weight="bold" font-size="70.0" fill="#AAAAAA" transform="matrix(1.00, 0.00, -0.00, -1.00, 511.5, 445.0)">i</text><text xml:space="preserve" font-family="CourierNewPS-BoldMT,Courier New" font-weight="bold" font-size="70.0" fill="#AAAAAA" transform="matrix(1.00, 0.00, -0.00, -1.00, 553.6, 445.0)">c</text><text xml:space="preserve" font-family="CourierNewPS-BoldMT,Courier New" font-weight="bold" font-size="70.0" fill="#AAAAAA" transform="matrix(1.00, 0.00, -0.00, -1.00, 595.6, 445.0)">i</text><text xml:space="preserve" font-family="CourierNewPS-BoldMT,Courier New" font-weight="bold" font-size="70.0" fill="#AAAAAA" transform="matrix(1.00, 0.00, -0.00, -1.00, 637.6, 445.0)">t</text><text xml:space="preserve" font-family="CourierNewPS-BoldMT,Courier New" font-weight="bold" font-size="70.0" fill="#AAAAAA" transform="matrix(1.00, 0.00, -0.00, -1.00, 679.6, 445.0)">y</text><text xml:space="preserve" font-family="CourierNewPS-BoldMT,Courier New" font-weight="bold" font-size="70.0" fill="#AAAAAA" transform="matrix(1.00, 0.00, -0.00, -1.00, 721.6, 445.0)">.</text><text xml:space="preserve" font-family="CourierNewPS-BoldMT,Courier New" font-weight="bold" font-size="70.0" fill="#AAAAAA" transform="matrix(1.00, 0.00, -0.00, -1.00, 763.6, 445.0)"> </text><text xml:space="preserve" font-family="CourierNewPS-BoldMT,Courier New" font-weight="bold" font-size="70.0" fill="#AAAAAA" transform="matrix(1.00, 0.00, -0.00, -1.00, 196.4, 366.0)">[</text><text xml:space="preserve" font-family="CourierNewPS-BoldMT,Courier New" font-weight="bold" font-size="70.0" fill="#AAAAAA" transform="matrix(1.00, 0.00, -0.00, -1.00, 238.5, 366.0)">d</text><text xml:space="preserve" font-family="CourierNewPS-BoldMT,Courier New" font-weight="bold" font-size="70.0" fill="#AAAAAA" transform="matrix(1.00, 0.00, -0.00, -1.00, 280.5, 366.0)">o</text><text xml:space="preserve" font-family="CourierNewPS-BoldMT,Courier New" font-weight="bold" font-size="70.0" fill="#AAAAAA" transform="matrix(1.00, 0.00, -0.00, -1.00, 322.5, 366.0)">n</text><text xml:space="preserve" font-family="CourierNewPS-BoldMT,Courier New" font-weight="bold" font-size="70.0" fill="#AAAAAA" transform="matrix(1.00, 0.00, -0.00, -1.00, 364.5, 366.0)">’</text><text xml:space="preserve" font-family="CourierNewPS-BoldMT,Courier New" font-weight="bold" font-size="70.0" fill="#AAAAAA" transform="matrix(1.00, 0.00, -0.00, -1.00, 406.5, 366.0)">t</text><text xml:space="preserve" font-family="CourierNewPS-BoldMT,Courier New" font-weight="bold" font-size="70.0" fill="#AAAAAA" transform="matrix(1.00, 0.00, -0.00, -1.00, 448.5, 366.0)"> </text><text xml:space="preserve" font-family="CourierNewPS-BoldMT,Courier New" font-weight="bold" font-size="70.0" fill="#AAAAAA" transform="matrix(1.00, 0.00, -0.00, -1.00, 490.5, 366.0)">r</text><text xml:space="preserve" font-family="CourierNewPS-BoldMT,Courier New" font-weight="bold" font-size="70.0" fill="#AAAAAA" transform="matrix(1.00, 0.00, -0.00, -1.00, 532.6, 366.0)">u</text><text xml:space="preserve" font-family="CourierNewPS-BoldMT,Courier New" font-weight="bold" font-size="70.0" fill="#AAAAAA" transform="matrix(1.00, 0.00, -0.00, -1.00, 574.6, 366.0)">n</text><text xml:space="preserve" font-family="CourierNewPS-BoldMT,Courier New" font-weight="bold" font-size="70.0" fill="#AAAAAA" transform="matrix(1.00, 0.00, -0.00, -1.00, 616.6, 366.0)"> </text><text xml:space="preserve" font-family="CourierNewPS-BoldMT,Courier New" font-weight="bold" font-size="70.0" fill="#AAAAAA" transform="matrix(1.00, 0.00, -0.00, -1.00, 658.6, 366.0)">a</text><text xml:space="preserve" font-family="CourierNewPS-BoldMT,Courier New" font-weight="bold" font-size="70.0" fill="#AAAAAA" transform="matrix(1.00, 0.00, -0.00, -1.00, 700.6, 366.0)">w</text><text xml:space="preserve" font-family="CourierNewPS-BoldMT,Courier New" font-weight="bold" font-size="70.0" fill="#AAAAAA" transform="matrix(1.00, 0.00, -0.00, -1.00, 742.6, 366.0)">a</text><text xml:space="preserve" font-family="CourierNewPS-BoldMT,Courier New" font-weight="bold" font-size="70.0" fill="#AAAAAA" transform="matrix(1.00, 0.00, -0.00, -1.00, 784.6, 366.0)">y</text><text xml:space="preserve" font-family="CourierNewPS-BoldMT,Courier New" font-weight="bold" font-size="70.0" fill="#AAAAAA" transform="matrix(1.00, 0.00, -0.00, -1.00, 826.7, 366.0)"> </text><text xml:space="preserve" font-family="CourierNewPS-BoldMT,Courier New" font-weight="bold" font-size="70.0" fill="#AAAAAA" transform="matrix(1.00, 0.00, -0.00, -1.00, 868.7, 366.0)"> </text><text xml:space="preserve" font-family="CourierNewPS-BoldMT,Courier New" font-weight="bold" font-size="70.0" fill="#AAAAAA" transform="matrix(1.00, 0.00, -0.00, -1.00, 322.5, 287.0)">j</text><text xml:space="preserve" font-family="CourierNewPS-BoldMT,Courier New" font-weight="bold" font-size="70.0" fill="#AAAAAA" transform="matrix(1.00, 0.00, -0.00, -1.00, 364.5, 287.0)">u</text><text xml:space="preserve" font-family="CourierNewPS-BoldMT,Courier New" font-weight="bold" font-size="70.0" fill="#AAAAAA" transform="matrix(1.00, 0.00, -0.00, -1.00, 406.5, 287.0)">s</text><text xml:space="preserve" font-family="CourierNewPS-BoldMT,Courier New" font-weight="bold" font-size="70.0" fill="#AAAAAA" transform="matrix(1.00, 0.00, -0.00, -1.00, 448.5, 287.0)">t</text><text xml:space="preserve" font-family="CourierNewPS-BoldMT,Courier New" font-weight="bold" font-size="70.0" fill="#AAAAAA" transform="matrix(1.00, 0.00, -0.00, -1.00, 490.5, 287.0)"> </text><text xml:space="preserve" font-family="CourierNewPS-BoldMT,Courier New" font-weight="bold" font-size="70.0" fill="#AAAAAA" transform="matrix(1.00, 0.00, -0.00, -1.00, 532.5, 287.0)">y</text><text xml:space="preserve" font-family="CourierNewPS-BoldMT,Courier New" font-weight="bold" font-size="70.0" fill="#AAAAAA" transform="matrix(1.00, 0.00, -0.00, -1.00, 574.6, 287.0)">e</text><text xml:space="preserve" font-family="CourierNewPS-BoldMT,Courier New" font-weight="bold" font-size="70.0" fill="#AAAAAA" transform="matrix(1.00, 0.00, -0.00, -1.00, 616.6, 287.0)">t</text><text xml:space="preserve" font-family="CourierNewPS-BoldMT,Courier New" font-weight="bold" font-size="70.0" fill="#AAAAAA" transform="matrix(1.00, 0.00, -0.00, -1.00, 658.6, 287.0)">]</text></g></svg>