<?xml version="1.0" encoding="UTF-8" standalone="no"?><svg xmlns="http://www.w3.org/2000/svg" xmlns:xlink="http://www.w3.org/1999/xlink" clip-rule="evenodd" stroke-miterlimit="10" viewBox="0 0 1024 768"><desc>SVG generated by Keynote</desc><defs></defs><g transform="matrix(1.00, 0.00, -0.00, -1.00, 0.0, 768.0)"><path d="M 0.0 768.0 L 1024.0 768.0 L 1024.0 0.0 L 0.0 0.0 Z M 0.0 768.0 " fill="#FEFFFF"></path><image xlink:href="4BA6814BBEB0D48BB794269A141251DA.jpeg" width="1024.00" height="768.00" transform="matrix(-1.00, 0.00, 0.00, -1.00, 1024.0, 768.0)"></image><text xml:space="preserve" font-family="CourierNewPS-BoldMT,Courier New" font-weight="bold" font-size="64.0" fill="#E22400" transform="matrix(1.00, 0.00, -0.00, -1.00, 705.0, 304.2)">a</text><text xml:space="preserve" font-family="CourierNewPS-BoldMT,Courier New" font-weight="bold" font-size="64.0" fill="#E22400" transform="matrix(1.00, 0.00, -0.00, -1.00, 743.4, 304.2)">n</text><text xml:space="preserve" font-family="CourierNewPS-BoldMT,Courier New" font-weight="bold" font-size="64.0" fill="#E22400" transform="matrix(1.00, 0.00, -0.00, -1.00, 781.8, 304.2)">o</text><text xml:space="preserve" font-family="CourierNewPS-BoldMT,Courier New" font-weight="bold" font-size="64.0" fill="#E22400" transform="matrix(1.00, 0.00, -0.00, -1.00, 820.2, 304.2)">d</text><text xml:space="preserve" font-family="CourierNewPS-BoldMT,Courier New" font-weight="bold" font-size="64.0" fill="#E22400" transform="matrix(1.00, 0.00, -0.00, -1.00, 858.6, 304.2)">e</text><text xml:space="preserve" font-family="CourierNewPS-BoldMT,Courier New" font-weight="bold" font-size="60.0" fill="#000000" transform="matrix(1.00, 0.00, -0.00, -1.00, 130.5, 407.0)">c</text><text xml:space="preserve" font-family="CourierNewPS-BoldMT,Courier New" font-weight="bold" font-size="60.0" fill="#000000" transform="matrix(1.00, 0.00, -0.00, -1.00, 166.5, 407.0)">a</text><text xml:space="preserve" font-family="CourierNewPS-BoldMT,Courier New" font-weight="bold" font-size="60.0" fill="#000000" transform="matrix(1.00, 0.00, -0.00, -1.00, 202.5, 407.0)">t</text><text xml:space="preserve" font-family="CourierNewPS-BoldMT,Courier New" font-weight="bold" font-size="60.0" fill="#000000" transform="matrix(1.00, 0.00, -0.00, -1.00, 238.5, 407.0)">h</text><text xml:space="preserve" font-family="CourierNewPS-BoldMT,Courier New" font-weight="bold" font-size="60.0" fill="#000000" transform="matrix(1.00, 0.00, -0.00, -1.00, 274.5, 407.0)">o</text><text xml:space="preserve" font-family="CourierNewPS-BoldMT,Courier New" font-weight="bold" font-size="60.0" fill="#000000" transform="matrix(1.00, 0.00, -0.00, -1.00, 310.5, 407.0)">d</text><text xml:space="preserve" font-family="CourierNewPS-BoldMT,Courier New" font-weight="bold" font-size="60.0" fill="#000000" transform="matrix(1.00, 0.00, -0.00, -1.00, 346.6, 407.0)">e</text><path d="M 16.4 65.5 L 19.8 63.3 L 120.3 0.0 " fill="none" stroke="#E22400" stroke-width="8.00" transform="matrix(1.00, 0.00, 0.00, -1.00, 559.6, 282.5)"></path><path d="M 577.7 236.6 L 559.6 206.8 L 594.3 210.2 L 579.4 219.2 Z M 577.7 236.6 " fill="#E22400"></path><path d="M 107.7 64.4 L 104.3 62.3 L 0.0 0.0 " fill="none" stroke="#000000" stroke-width="8.00" transform="matrix(1.00, 0.00, 0.00, -1.00, 325.7, 383.5)"></path><path d="M 415.2 311.8 L 450.0 309.2 L 431.2 338.6 L 429.9 321.2 Z M 415.2 311.8 " fill="#000000"></path><text xml:space="preserve" font-family="CourierNewPS-BoldMT,Courier New" font-weight="bold" font-size="36.0" fill="#000000" transform="matrix(1.00, 0.00, -0.00, -1.00, 138.7, 88.8)">a</text><text xml:space="preserve" font-family="CourierNewPS-BoldMT,Courier New" font-weight="bold" font-size="36.0" fill="#000000" transform="matrix(1.00, 0.00, -0.00, -1.00, 160.3, 88.8)">l</text><text xml:space="preserve" font-family="CourierNewPS-BoldMT,Courier New" font-weight="bold" font-size="36.0" fill="#000000" transform="matrix(1.00, 0.00, -0.00, -1.00, 181.9, 88.8)">w</text><text xml:space="preserve" font-family="CourierNewPS-BoldMT,Courier New" font-weight="bold" font-size="36.0" fill="#000000" transform="matrix(1.00, 0.00, -0.00, -1.00, 203.5, 88.8)">a</text><text xml:space="preserve" font-family="CourierNewPS-BoldMT,Courier New" font-weight="bold" font-size="36.0" fill="#000000" transform="matrix(1.00, 0.00, -0.00, -1.00, 225.1, 88.8)">y</text><text xml:space="preserve" font-family="CourierNewPS-BoldMT,Courier New" font-weight="bold" font-size="36.0" fill="#000000" transform="matrix(1.00, 0.00, -0.00, -1.00, 246.7, 88.8)">s</text><text xml:space="preserve" font-family="CourierNewPS-BoldMT,Courier New" font-weight="bold" font-size="36.0" fill="#000000" transform="matrix(1.00, 0.00, -0.00, -1.00, 268.3, 88.8)"> </text><text xml:space="preserve" font-family="CourierNewPS-BoldMT,Courier New" font-weight="bold" font-size="36.0" fill="#000000" transform="matrix(1.00, 0.00, -0.00, -1.00, 289.9, 88.8)">g</text><text xml:space="preserve" font-family="CourierNewPS-BoldMT,Courier New" font-weight="bold" font-size="36.0" fill="#000000" transform="matrix(1.00, 0.00, -0.00, -1.00, 311.5, 88.8)">o</text><text xml:space="preserve" font-family="CourierNewPS-BoldMT,Courier New" font-weight="bold" font-size="36.0" fill="#000000" transform="matrix(1.00, 0.00, -0.00, -1.00, 333.1, 88.8)">e</text><text xml:space="preserve" font-family="CourierNewPS-BoldMT,Courier New" font-weight="bold" font-size="36.0" fill="#000000" transform="matrix(1.00, 0.00, -0.00, -1.00, 354.8, 88.8)">s</text><text xml:space="preserve" font-family="CourierNewPS-BoldMT,Courier New" font-weight="bold" font-size="36.0" fill="#000000" transform="matrix(1.00, 0.00, -0.00, -1.00, 376.4, 88.8)"> </text><text xml:space="preserve" font-family="CourierNewPS-BoldMT,Courier New" font-weight="bold" font-size="36.0" fill="#000000" transform="matrix(1.00, 0.00, -0.00, -1.00, 160.3, 47.8)">t</text><text xml:space="preserve" font-family="CourierNewPS-BoldMT,Courier New" font-weight="bold" font-size="36.0" fill="#000000" transform="matrix(1.00, 0.00, -0.00, -1.00, 181.9, 47.8)">o</text><text xml:space="preserve" font-family="CourierNewPS-BoldMT,Courier New" font-weight="bold" font-size="36.0" fill="#000000" transform="matrix(1.00, 0.00, -0.00, -1.00, 203.5, 47.8)"> </text><text xml:space="preserve" font-family="CourierNewPS-BoldMT,Courier New" font-weight="bold" font-size="36.0" fill="#000000" transform="matrix(1.00, 0.00, -0.00, -1.00, 225.1, 47.8)">G</text><text xml:space="preserve" font-family="CourierNewPS-BoldMT,Courier New" font-weight="bold" font-size="36.0" fill="#000000" transform="matrix(1.00, 0.00, -0.00, -1.00, 246.7, 47.8)">R</text><text xml:space="preserve" font-family="CourierNewPS-BoldMT,Courier New" font-weight="bold" font-size="36.0" fill="#000000" transform="matrix(1.00, 0.00, -0.00, -1.00, 268.3, 47.8)">O</text><text xml:space="preserve" font-family="CourierNewPS-BoldMT,Courier New" font-weight="bold" font-size="36.0" fill="#000000" transform="matrix(1.00, 0.00, -0.00, -1.00, 289.9, 47.8)">U</text><text xml:space="preserve" font-family="CourierNewPS-BoldMT,Courier New" font-weight="bold" font-size="36.0" fill="#000000" transform="matrix(1.00, 0.00, -0.00, -1.00, 311.5, 47.8)">N</text><text xml:space="preserve" font-family="CourierNewPS-BoldMT,Courier New" font-weight="bold" font-size="36.0" fill="#000000" transform="matrix(1.00, 0.00, -0.00, -1.00, 333.1, 47.8)">D</text><text xml:space="preserve" font-family="CourierNewPS-BoldMT,Courier New" font-weight="bold" font-size="36.0" fill="#E22400" transform="matrix(1.00, 0.00, -0.00, -1.00, 649.3, 88.8)">a</text><text xml:space="preserve" font-family="CourierNewPS-BoldMT,Courier New" font-weight="bold" font-size="36.0" fill="#E22400" transform="matrix(1.00, 0.00, -0.00, -1.00, 670.9, 88.8)">l</text><text xml:space="preserve" font-family="CourierNewPS-BoldMT,Courier New" font-weight="bold" font-size="36.0" fill="#E22400" transform="matrix(1.00, 0.00, -0.00, -1.00, 692.5, 88.8)">w</text><text xml:space="preserve" font-family="CourierNewPS-BoldMT,Courier New" font-weight="bold" font-size="36.0" fill="#E22400" transform="matrix(1.00, 0.00, -0.00, -1.00, 714.1, 88.8)">a</text><text xml:space="preserve" font-family="CourierNewPS-BoldMT,Courier New" font-weight="bold" font-size="36.0" fill="#E22400" transform="matrix(1.00, 0.00, -0.00, -1.00, 735.7, 88.8)">y</text><text xml:space="preserve" font-family="CourierNewPS-BoldMT,Courier New" font-weight="bold" font-size="36.0" fill="#E22400" transform="matrix(1.00, 0.00, -0.00, -1.00, 757.3, 88.8)">s</text><text xml:space="preserve" font-family="CourierNewPS-BoldMT,Courier New" font-weight="bold" font-size="36.0" fill="#E22400" transform="matrix(1.00, 0.00, -0.00, -1.00, 778.9, 88.8)"> </text><text xml:space="preserve" font-family="CourierNewPS-BoldMT,Courier New" font-weight="bold" font-size="36.0" fill="#E22400" transform="matrix(1.00, 0.00, -0.00, -1.00, 800.5, 88.8)">g</text><text xml:space="preserve" font-family="CourierNewPS-BoldMT,Courier New" font-weight="bold" font-size="36.0" fill="#E22400" transform="matrix(1.00, 0.00, -0.00, -1.00, 822.1, 88.8)">o</text><text xml:space="preserve" font-family="CourierNewPS-BoldMT,Courier New" font-weight="bold" font-size="36.0" fill="#E22400" transform="matrix(1.00, 0.00, -0.00, -1.00, 843.7, 88.8)">e</text><text xml:space="preserve" font-family="CourierNewPS-BoldMT,Courier New" font-weight="bold" font-size="36.0" fill="#E22400" transform="matrix(1.00, 0.00, -0.00, -1.00, 865.3, 88.8)">s</text><text xml:space="preserve" font-family="CourierNewPS-BoldMT,Courier New" font-weight="bold" font-size="36.0" fill="#E22400" transform="matrix(1.00, 0.00, -0.00, -1.00, 887.0, 88.8)"> </text><text xml:space="preserve" font-family="CourierNewPS-BoldMT,Courier New" font-weight="bold" font-size="36.0" fill="#E22400" transform="matrix(1.00, 0.00, -0.00, -1.00, 908.6, 88.8)">t</text><text xml:space="preserve" font-family="CourierNewPS-BoldMT,Courier New" font-weight="bold" font-size="36.0" fill="#E22400" transform="matrix(1.00, 0.00, -0.00, -1.00, 930.2, 88.8)">o</text><text xml:space="preserve" font-family="CourierNewPS-BoldMT,Courier New" font-weight="bold" font-size="36.0" fill="#E22400" transform="matrix(1.00, 0.00, -0.00, -1.00, 951.8, 88.8)"> </text><text xml:space="preserve" font-family="CourierNewPS-BoldMT,Courier New" font-weight="bold" font-size="36.0" fill="#E22400" transform="matrix(1.00, 0.00, -0.00, -1.00, 649.3, 47.8)">P</text><text xml:space="preserve" font-family="CourierNewPS-BoldMT,Courier New" font-weight="bold" font-size="36.0" fill="#E22400" transform="matrix(1.00, 0.00, -0.00, -1.00, 670.9, 47.8)">O</text><text xml:space="preserve" font-family="CourierNewPS-BoldMT,Courier New" font-weight="bold" font-size="36.0" fill="#E22400" transform="matrix(1.00, 0.00, -0.00, -1.00, 692.5, 47.8)">W</text><text xml:space="preserve" font-family="CourierNewPS-BoldMT,Courier New" font-weight="bold" font-size="36.0" fill="#E22400" transform="matrix(1.00, 0.00, -0.00, -1.00, 714.1, 47.8)">E</text><text xml:space="preserve" font-family="CourierNewPS-BoldMT,Courier New" font-weight="bold" font-size="36.0" fill="#E22400" transform="matrix(1.00, 0.00, -0.00, -1.00, 735.7, 47.8)">R</text><text xml:space="preserve" font-family="CourierNewPS-BoldMT,Courier New" font-weight="bold" font-size="36.0" fill="#E22400" transform="matrix(1.00, 0.00, -0.00, -1.00, 757.3, 47.8)"> </text><text xml:space="preserve" font-family="CourierNewPS-BoldMT,Courier New" font-weight="bold" font-size="36.0" fill="#E22400" transform="matrix(1.00, 0.00, -0.00, -1.00, 778.9, 47.8)">o</text><text xml:space="preserve" font-family="CourierNewPS-BoldMT,Courier New" font-weight="bold" font-size="36.0" fill="#E22400" transform="matrix(1.00, 0.00, -0.00, -1.00, 800.5, 47.8)">r</text><text xml:space="preserve" font-family="CourierNewPS-BoldMT,Courier New" font-weight="bold" font-size="36.0" fill="#E22400" transform="matrix(1.00, 0.00, -0.00, -1.00, 822.1, 47.8)"> </text><text xml:space="preserve" font-family="CourierNewPS-BoldMT,Courier New" font-weight="bold" font-size="36.0" fill="#E22400" transform="matrix(1.00, 0.00, -0.00, -1.00, 843.7, 47.8)">a</text><text xml:space="preserve" font-family="CourierNewPS-BoldMT,Courier New" font-weight="bold" font-size="36.0" fill="#E22400" transform="matrix(1.00, 0.00, -0.00, -1.00, 865.3, 47.8)"> </text><text xml:space="preserve" font-family="CourierNewPS-BoldMT,Courier New" font-weight="bold" font-size="36.0" fill="#E22400" transform="matrix(1.00, 0.00, -0.00, -1.00, 887.0, 47.8)">P</text><text xml:space="preserve" font-family="CourierNewPS-BoldMT,Courier New" font-weight="bold" font-size="36.0" fill="#E22400" transform="matrix(1.00, 0.00, -0.00, -1.00, 908.6, 47.8)">I</text><text xml:space="preserve" font-family="CourierNewPS-BoldMT,Courier New" font-weight="bold" font-size="36.0" fill="#E22400" transform="matrix(1.00, 0.00, -0.00, -1.00, 930.2, 47.8)">N</text><text xml:space="preserve" font-family="CourierNewPS-BoldMT,Courier New" font-weight="bold" font-size="100.0" fill="#E22400" transform="matrix(1.00, 0.00, -0.00, -1.00, 755.0, 397.5)">+</text><text xml:space="preserve" font-family="CourierNewPS-BoldMT,Courier New" font-weight="bold" font-size="100.0" fill="#000000" transform="matrix(1.00, 0.00, -0.00, -1.00, 228.0, 503.0)">-</text></g></svg>