<?xml version="1.0" encoding="UTF-8" standalone="no"?><svg xmlns="http://www.w3.org/2000/svg" xmlns:xlink="http://www.w3.org/1999/xlink" clip-rule="evenodd" stroke-miterlimit="10" viewBox="0 0 1024 768"><desc>SVG generated by Keynote</desc><defs></defs><g transform="matrix(1.00, 0.00, -0.00, -1.00, 0.0, 768.0)"><path d="M 0.0 768.0 L 1024.0 768.0 L 1024.0 0.0 L 0.0 0.0 Z M 0.0 768.0 " fill="#FEFFFF"></path><image xlink:href="../../96218A69-86EC-43A0-820F-EE96FE401823/assets/50776D5898E9A8A6B350AEC15AFCA990.png" width="400.00" height="401.00" transform="matrix(1.20, 0.00, -0.00, -1.20, 62.0, 503.0)"></image><image xlink:href="../../D9108B47-1192-49D9-BB8F-E050F307AC0A/assets/6CD122234913132D57156996D86B19BB.png" width="400.00" height="401.00" transform="matrix(1.20, 0.00, -0.00, -1.20, 484.0, 503.0)"></image><text xml:space="preserve" font-family="CourierNewPSMT,Courier New" font-size="10.0" fill="#7A7A7A" transform="matrix(1.00, 0.00, -0.00, -1.00, 22.5, 16.0)">I</text><text xml:space="preserve" font-family="CourierNewPSMT,Courier New" font-size="10.0" fill="#7A7A7A" transform="matrix(1.00, 0.00, -0.00, -1.00, 28.5, 16.0)">m</text><text xml:space="preserve" font-family="CourierNewPSMT,Courier New" font-size="10.0" fill="#7A7A7A" transform="matrix(1.00, 0.00, -0.00, -1.00, 34.5, 16.0)">a</text><text xml:space="preserve" font-family="CourierNewPSMT,Courier New" font-size="10.0" fill="#7A7A7A" transform="matrix(1.00, 0.00, -0.00, -1.00, 40.5, 16.0)">g</text><text xml:space="preserve" font-family="CourierNewPSMT,Courier New" font-size="10.0" fill="#7A7A7A" transform="matrix(1.00, 0.00, -0.00, -1.00, 46.5, 16.0)">e</text><text xml:space="preserve" font-family="CourierNewPSMT,Courier New" font-size="10.0" fill="#7A7A7A" transform="matrix(1.00, 0.00, -0.00, -1.00, 52.5, 16.0)">s</text><text xml:space="preserve" font-family="CourierNewPSMT,Courier New" font-size="10.0" fill="#7A7A7A" transform="matrix(1.00, 0.00, -0.00, -1.00, 58.5, 16.0)"> </text><text xml:space="preserve" font-family="CourierNewPSMT,Courier New" font-size="10.0" fill="#7A7A7A" transform="matrix(1.00, 0.00, -0.00, -1.00, 64.5, 16.0)">t</text><text xml:space="preserve" font-family="CourierNewPSMT,Courier New" font-size="10.0" fill="#7A7A7A" transform="matrix(1.00, 0.00, -0.00, -1.00, 70.6, 16.0)">a</text><text xml:space="preserve" font-family="CourierNewPSMT,Courier New" font-size="10.0" fill="#7A7A7A" transform="matrix(1.00, 0.00, -0.00, -1.00, 76.6, 16.0)">k</text><text xml:space="preserve" font-family="CourierNewPSMT,Courier New" font-size="10.0" fill="#7A7A7A" transform="matrix(1.00, 0.00, -0.00, -1.00, 82.6, 16.0)">e</text><text xml:space="preserve" font-family="CourierNewPSMT,Courier New" font-size="10.0" fill="#7A7A7A" transform="matrix(1.00, 0.00, -0.00, -1.00, 88.6, 16.0)">n</text><text xml:space="preserve" font-family="CourierNewPSMT,Courier New" font-size="10.0" fill="#7A7A7A" transform="matrix(1.00, 0.00, -0.00, -1.00, 94.6, 16.0)"> </text><text xml:space="preserve" font-family="CourierNewPSMT,Courier New" font-size="10.0" fill="#7A7A7A" transform="matrix(1.00, 0.00, -0.00, -1.00, 100.6, 16.0)">f</text><text xml:space="preserve" font-family="CourierNewPSMT,Courier New" font-size="10.0" fill="#7A7A7A" transform="matrix(1.00, 0.00, -0.00, -1.00, 106.6, 16.0)">r</text><text xml:space="preserve" font-family="CourierNewPSMT,Courier New" font-size="10.0" fill="#7A7A7A" transform="matrix(1.00, 0.00, -0.00, -1.00, 112.6, 16.0)">o</text><text xml:space="preserve" font-family="CourierNewPSMT,Courier New" font-size="10.0" fill="#7A7A7A" transform="matrix(1.00, 0.00, -0.00, -1.00, 118.6, 16.0)">m</text><text xml:space="preserve" font-family="CourierNewPSMT,Courier New" font-size="10.0" fill="#7A7A7A" transform="matrix(1.00, 0.00, -0.00, -1.00, 124.6, 16.0)"> </text><text xml:space="preserve" font-family="CourierNewPSMT,Courier New" font-size="10.0" fill="#7A7A7A" transform="matrix(1.00, 0.00, -0.00, -1.00, 130.6, 16.0)">S</text><text xml:space="preserve" font-family="CourierNewPSMT,Courier New" font-size="10.0" fill="#7A7A7A" transform="matrix(1.00, 0.00, -0.00, -1.00, 136.6, 16.0)">p</text><text xml:space="preserve" font-family="CourierNewPSMT,Courier New" font-size="10.0" fill="#7A7A7A" transform="matrix(1.00, 0.00, -0.00, -1.00, 142.6, 16.0)">a</text><text xml:space="preserve" font-family="CourierNewPSMT,Courier New" font-size="10.0" fill="#7A7A7A" transform="matrix(1.00, 0.00, -0.00, -1.00, 148.6, 16.0)">r</text><text xml:space="preserve" font-family="CourierNewPSMT,Courier New" font-size="10.0" fill="#7A7A7A" transform="matrix(1.00, 0.00, -0.00, -1.00, 154.6, 16.0)">k</text><text xml:space="preserve" font-family="CourierNewPSMT,Courier New" font-size="10.0" fill="#7A7A7A" transform="matrix(1.00, 0.00, -0.00, -1.00, 160.6, 16.0)">f</text><text xml:space="preserve" font-family="CourierNewPSMT,Courier New" font-size="10.0" fill="#7A7A7A" transform="matrix(1.00, 0.00, -0.00, -1.00, 166.6, 16.0)">u</text><text xml:space="preserve" font-family="CourierNewPSMT,Courier New" font-size="10.0" fill="#7A7A7A" transform="matrix(1.00, 0.00, -0.00, -1.00, 172.6, 16.0)">n</text><text xml:space="preserve" font-family="CourierNewPSMT,Courier New" font-size="10.0" fill="#7A7A7A" transform="matrix(1.00, 0.00, -0.00, -1.00, 178.6, 16.0)">:</text><text xml:space="preserve" font-family="CourierNewPSMT,Courier New" font-size="10.0" fill="#7A7A7A" transform="matrix(1.00, 0.00, -0.00, -1.00, 184.6, 16.0)"> </text><text xml:space="preserve" font-family="CourierNewPSMT,Courier New" font-size="10.0" fill="#7A7A7A" transform="matrix(1.00, 0.00, -0.00, -1.00, 190.6, 16.0)">h</text><text xml:space="preserve" font-family="CourierNewPSMT,Courier New" font-size="10.0" fill="#7A7A7A" transform="matrix(1.00, 0.00, -0.00, -1.00, 196.6, 16.0)">t</text><text xml:space="preserve" font-family="CourierNewPSMT,Courier New" font-size="10.0" fill="#7A7A7A" transform="matrix(1.00, 0.00, -0.00, -1.00, 202.6, 16.0)">t</text><text xml:space="preserve" font-family="CourierNewPSMT,Courier New" font-size="10.0" fill="#7A7A7A" transform="matrix(1.00, 0.00, -0.00, -1.00, 208.6, 16.0)">p</text><text xml:space="preserve" font-family="CourierNewPSMT,Courier New" font-size="10.0" fill="#7A7A7A" transform="matrix(1.00, 0.00, -0.00, -1.00, 214.6, 16.0)">s</text><text xml:space="preserve" font-family="CourierNewPSMT,Courier New" font-size="10.0" fill="#7A7A7A" transform="matrix(1.00, 0.00, -0.00, -1.00, 220.6, 16.0)">:</text><text xml:space="preserve" font-family="CourierNewPSMT,Courier New" font-size="10.0" fill="#7A7A7A" transform="matrix(1.00, 0.00, -0.00, -1.00, 226.6, 16.0)">/</text><text xml:space="preserve" font-family="CourierNewPSMT,Courier New" font-size="10.0" fill="#7A7A7A" transform="matrix(1.00, 0.00, -0.00, -1.00, 232.6, 16.0)">/</text><text xml:space="preserve" font-family="CourierNewPSMT,Courier New" font-size="10.0" fill="#7A7A7A" transform="matrix(1.00, 0.00, -0.00, -1.00, 238.6, 16.0)">l</text><text xml:space="preserve" font-family="CourierNewPSMT,Courier New" font-size="10.0" fill="#7A7A7A" transform="matrix(1.00, 0.00, -0.00, -1.00, 244.6, 16.0)">e</text><text xml:space="preserve" font-family="CourierNewPSMT,Courier New" font-size="10.0" fill="#7A7A7A" transform="matrix(1.00, 0.00, -0.00, -1.00, 250.6, 16.0)">a</text><text xml:space="preserve" font-family="CourierNewPSMT,Courier New" font-size="10.0" fill="#7A7A7A" transform="matrix(1.00, 0.00, -0.00, -1.00, 256.6, 16.0)">r</text><text xml:space="preserve" font-family="CourierNewPSMT,Courier New" font-size="10.0" fill="#7A7A7A" transform="matrix(1.00, 0.00, -0.00, -1.00, 262.6, 16.0)">n</text><text xml:space="preserve" font-family="CourierNewPSMT,Courier New" font-size="10.0" fill="#7A7A7A" transform="matrix(1.00, 0.00, -0.00, -1.00, 268.6, 16.0)">.</text><text xml:space="preserve" font-family="CourierNewPSMT,Courier New" font-size="10.0" fill="#7A7A7A" transform="matrix(1.00, 0.00, -0.00, -1.00, 274.6, 16.0)">s</text><text xml:space="preserve" font-family="CourierNewPSMT,Courier New" font-size="10.0" fill="#7A7A7A" transform="matrix(1.00, 0.00, -0.00, -1.00, 280.6, 16.0)">p</text><text xml:space="preserve" font-family="CourierNewPSMT,Courier New" font-size="10.0" fill="#7A7A7A" transform="matrix(1.00, 0.00, -0.00, -1.00, 286.6, 16.0)">a</text><text xml:space="preserve" font-family="CourierNewPSMT,Courier New" font-size="10.0" fill="#7A7A7A" transform="matrix(1.00, 0.00, -0.00, -1.00, 292.6, 16.0)">r</text><text xml:space="preserve" font-family="CourierNewPSMT,Courier New" font-size="10.0" fill="#7A7A7A" transform="matrix(1.00, 0.00, -0.00, -1.00, 298.6, 16.0)">k</text><text xml:space="preserve" font-family="CourierNewPSMT,Courier New" font-size="10.0" fill="#7A7A7A" transform="matrix(1.00, 0.00, -0.00, -1.00, 304.6, 16.0)">f</text><text xml:space="preserve" font-family="CourierNewPSMT,Courier New" font-size="10.0" fill="#7A7A7A" transform="matrix(1.00, 0.00, -0.00, -1.00, 310.6, 16.0)">u</text><text xml:space="preserve" font-family="CourierNewPSMT,Courier New" font-size="10.0" fill="#7A7A7A" transform="matrix(1.00, 0.00, -0.00, -1.00, 316.6, 16.0)">n</text><text xml:space="preserve" font-family="CourierNewPSMT,Courier New" font-size="10.0" fill="#7A7A7A" transform="matrix(1.00, 0.00, -0.00, -1.00, 322.6, 16.0)">.</text><text xml:space="preserve" font-family="CourierNewPSMT,Courier New" font-size="10.0" fill="#7A7A7A" transform="matrix(1.00, 0.00, -0.00, -1.00, 328.6, 16.0)">c</text><text xml:space="preserve" font-family="CourierNewPSMT,Courier New" font-size="10.0" fill="#7A7A7A" transform="matrix(1.00, 0.00, -0.00, -1.00, 334.6, 16.0)">o</text><text xml:space="preserve" font-family="CourierNewPSMT,Courier New" font-size="10.0" fill="#7A7A7A" transform="matrix(1.00, 0.00, -0.00, -1.00, 340.6, 16.0)">m</text><text xml:space="preserve" font-family="CourierNewPSMT,Courier New" font-size="10.0" fill="#7A7A7A" transform="matrix(1.00, 0.00, -0.00, -1.00, 346.6, 16.0)">/</text><text xml:space="preserve" font-family="CourierNewPSMT,Courier New" font-size="10.0" fill="#7A7A7A" transform="matrix(1.00, 0.00, -0.00, -1.00, 352.6, 16.0)">t</text><text xml:space="preserve" font-family="CourierNewPSMT,Courier New" font-size="10.0" fill="#7A7A7A" transform="matrix(1.00, 0.00, -0.00, -1.00, 358.6, 16.0)">u</text><text xml:space="preserve" font-family="CourierNewPSMT,Courier New" font-size="10.0" fill="#7A7A7A" transform="matrix(1.00, 0.00, -0.00, -1.00, 364.6, 16.0)">t</text><text xml:space="preserve" font-family="CourierNewPSMT,Courier New" font-size="10.0" fill="#7A7A7A" transform="matrix(1.00, 0.00, -0.00, -1.00, 370.6, 16.0)">o</text><text xml:space="preserve" font-family="CourierNewPSMT,Courier New" font-size="10.0" fill="#7A7A7A" transform="matrix(1.00, 0.00, -0.00, -1.00, 376.6, 16.0)">r</text><text xml:space="preserve" font-family="CourierNewPSMT,Courier New" font-size="10.0" fill="#7A7A7A" transform="matrix(1.00, 0.00, -0.00, -1.00, 382.6, 16.0)">i</text><text xml:space="preserve" font-family="CourierNewPSMT,Courier New" font-size="10.0" fill="#7A7A7A" transform="matrix(1.00, 0.00, -0.00, -1.00, 388.6, 16.0)">a</text><text xml:space="preserve" font-family="CourierNewPSMT,Courier New" font-size="10.0" fill="#7A7A7A" transform="matrix(1.00, 0.00, -0.00, -1.00, 394.6, 16.0)">l</text><text xml:space="preserve" font-family="CourierNewPSMT,Courier New" font-size="10.0" fill="#7A7A7A" transform="matrix(1.00, 0.00, -0.00, -1.00, 400.6, 16.0)">s</text><text xml:space="preserve" font-family="CourierNewPSMT,Courier New" font-size="10.0" fill="#7A7A7A" transform="matrix(1.00, 0.00, -0.00, -1.00, 406.6, 16.0)">/</text><text xml:space="preserve" font-family="CourierNewPSMT,Courier New" font-size="10.0" fill="#7A7A7A" transform="matrix(1.00, 0.00, -0.00, -1.00, 412.6, 16.0)">v</text><text xml:space="preserve" font-family="CourierNewPSMT,Courier New" font-size="10.0" fill="#7A7A7A" transform="matrix(1.00, 0.00, -0.00, -1.00, 418.6, 16.0)">o</text><text xml:space="preserve" font-family="CourierNewPSMT,Courier New" font-size="10.0" fill="#7A7A7A" transform="matrix(1.00, 0.00, -0.00, -1.00, 424.6, 16.0)">l</text><text xml:space="preserve" font-family="CourierNewPSMT,Courier New" font-size="10.0" fill="#7A7A7A" transform="matrix(1.00, 0.00, -0.00, -1.00, 430.6, 16.0)">t</text><text xml:space="preserve" font-family="CourierNewPSMT,Courier New" font-size="10.0" fill="#7A7A7A" transform="matrix(1.00, 0.00, -0.00, -1.00, 436.6, 16.0)">a</text><text xml:space="preserve" font-family="CourierNewPSMT,Courier New" font-size="10.0" fill="#7A7A7A" transform="matrix(1.00, 0.00, -0.00, -1.00, 442.6, 16.0)">g</text><text xml:space="preserve" font-family="CourierNewPSMT,Courier New" font-size="10.0" fill="#7A7A7A" transform="matrix(1.00, 0.00, -0.00, -1.00, 448.6, 16.0)">e</text><text xml:space="preserve" font-family="CourierNewPSMT,Courier New" font-size="10.0" fill="#7A7A7A" transform="matrix(1.00, 0.00, -0.00, -1.00, 454.6, 16.0)">-</text><text xml:space="preserve" font-family="CourierNewPSMT,Courier New" font-size="10.0" fill="#7A7A7A" transform="matrix(1.00, 0.00, -0.00, -1.00, 460.7, 16.0)">c</text><text xml:space="preserve" font-family="CourierNewPSMT,Courier New" font-size="10.0" fill="#7A7A7A" transform="matrix(1.00, 0.00, -0.00, -1.00, 466.7, 16.0)">u</text><text xml:space="preserve" font-family="CourierNewPSMT,Courier New" font-size="10.0" fill="#7A7A7A" transform="matrix(1.00, 0.00, -0.00, -1.00, 472.7, 16.0)">r</text><text xml:space="preserve" font-family="CourierNewPSMT,Courier New" font-size="10.0" fill="#7A7A7A" transform="matrix(1.00, 0.00, -0.00, -1.00, 478.7, 16.0)">r</text><text xml:space="preserve" font-family="CourierNewPSMT,Courier New" font-size="10.0" fill="#7A7A7A" transform="matrix(1.00, 0.00, -0.00, -1.00, 484.7, 16.0)">e</text><text xml:space="preserve" font-family="CourierNewPSMT,Courier New" font-size="10.0" fill="#7A7A7A" transform="matrix(1.00, 0.00, -0.00, -1.00, 490.7, 16.0)">n</text><text xml:space="preserve" font-family="CourierNewPSMT,Courier New" font-size="10.0" fill="#7A7A7A" transform="matrix(1.00, 0.00, -0.00, -1.00, 496.7, 16.0)">t</text><text xml:space="preserve" font-family="CourierNewPSMT,Courier New" font-size="10.0" fill="#7A7A7A" transform="matrix(1.00, 0.00, -0.00, -1.00, 502.7, 16.0)">-</text><text xml:space="preserve" font-family="CourierNewPSMT,Courier New" font-size="10.0" fill="#7A7A7A" transform="matrix(1.00, 0.00, -0.00, -1.00, 508.7, 16.0)">r</text><text xml:space="preserve" font-family="CourierNewPSMT,Courier New" font-size="10.0" fill="#7A7A7A" transform="matrix(1.00, 0.00, -0.00, -1.00, 514.7, 16.0)">e</text><text xml:space="preserve" font-family="CourierNewPSMT,Courier New" font-size="10.0" fill="#7A7A7A" transform="matrix(1.00, 0.00, -0.00, -1.00, 520.7, 16.0)">s</text><text xml:space="preserve" font-family="CourierNewPSMT,Courier New" font-size="10.0" fill="#7A7A7A" transform="matrix(1.00, 0.00, -0.00, -1.00, 526.7, 16.0)">i</text><text xml:space="preserve" font-family="CourierNewPSMT,Courier New" font-size="10.0" fill="#7A7A7A" transform="matrix(1.00, 0.00, -0.00, -1.00, 532.7, 16.0)">s</text><text xml:space="preserve" font-family="CourierNewPSMT,Courier New" font-size="10.0" fill="#7A7A7A" transform="matrix(1.00, 0.00, -0.00, -1.00, 538.7, 16.0)">t</text><text xml:space="preserve" font-family="CourierNewPSMT,Courier New" font-size="10.0" fill="#7A7A7A" transform="matrix(1.00, 0.00, -0.00, -1.00, 544.7, 16.0)">a</text><text xml:space="preserve" font-family="CourierNewPSMT,Courier New" font-size="10.0" fill="#7A7A7A" transform="matrix(1.00, 0.00, -0.00, -1.00, 550.7, 16.0)">n</text><text xml:space="preserve" font-family="CourierNewPSMT,Courier New" font-size="10.0" fill="#7A7A7A" transform="matrix(1.00, 0.00, -0.00, -1.00, 556.7, 16.0)">c</text><text xml:space="preserve" font-family="CourierNewPSMT,Courier New" font-size="10.0" fill="#7A7A7A" transform="matrix(1.00, 0.00, -0.00, -1.00, 562.7, 16.0)">e</text><text xml:space="preserve" font-family="CourierNewPSMT,Courier New" font-size="10.0" fill="#7A7A7A" transform="matrix(1.00, 0.00, -0.00, -1.00, 568.7, 16.0)">-</text><text xml:space="preserve" font-family="CourierNewPSMT,Courier New" font-size="10.0" fill="#7A7A7A" transform="matrix(1.00, 0.00, -0.00, -1.00, 574.7, 16.0)">a</text><text xml:space="preserve" font-family="CourierNewPSMT,Courier New" font-size="10.0" fill="#7A7A7A" transform="matrix(1.00, 0.00, -0.00, -1.00, 580.7, 16.0)">n</text><text xml:space="preserve" font-family="CourierNewPSMT,Courier New" font-size="10.0" fill="#7A7A7A" transform="matrix(1.00, 0.00, -0.00, -1.00, 586.7, 16.0)">d</text><text xml:space="preserve" font-family="CourierNewPSMT,Courier New" font-size="10.0" fill="#7A7A7A" transform="matrix(1.00, 0.00, -0.00, -1.00, 592.7, 16.0)">-</text><text xml:space="preserve" font-family="CourierNewPSMT,Courier New" font-size="10.0" fill="#7A7A7A" transform="matrix(1.00, 0.00, -0.00, -1.00, 598.7, 16.0)">o</text><text xml:space="preserve" font-family="CourierNewPSMT,Courier New" font-size="10.0" fill="#7A7A7A" transform="matrix(1.00, 0.00, -0.00, -1.00, 604.7, 16.0)">h</text><text xml:space="preserve" font-family="CourierNewPSMT,Courier New" font-size="10.0" fill="#7A7A7A" transform="matrix(1.00, 0.00, -0.00, -1.00, 610.7, 16.0)">m</text><text xml:space="preserve" font-family="CourierNewPSMT,Courier New" font-size="10.0" fill="#7A7A7A" transform="matrix(1.00, 0.00, -0.00, -1.00, 616.7, 16.0)">s</text><text xml:space="preserve" font-family="CourierNewPSMT,Courier New" font-size="10.0" fill="#7A7A7A" transform="matrix(1.00, 0.00, -0.00, -1.00, 622.7, 16.0)">-</text><text xml:space="preserve" font-family="CourierNewPSMT,Courier New" font-size="10.0" fill="#7A7A7A" transform="matrix(1.00, 0.00, -0.00, -1.00, 628.7, 16.0)">l</text><text xml:space="preserve" font-family="CourierNewPSMT,Courier New" font-size="10.0" fill="#7A7A7A" transform="matrix(1.00, 0.00, -0.00, -1.00, 634.7, 16.0)">a</text><text xml:space="preserve" font-family="CourierNewPSMT,Courier New" font-size="10.0" fill="#7A7A7A" transform="matrix(1.00, 0.00, -0.00, -1.00, 640.7, 16.0)">w</text><text xml:space="preserve" font-family="CourierNewPSMT,Courier New" font-size="10.0" fill="#7A7A7A" transform="matrix(1.00, 0.00, -0.00, -1.00, 646.7, 16.0)">/</text><text xml:space="preserve" font-family="CourierNewPSMT,Courier New" font-size="10.0" fill="#7A7A7A" transform="matrix(1.00, 0.00, -0.00, -1.00, 652.7, 16.0)">a</text><text xml:space="preserve" font-family="CourierNewPSMT,Courier New" font-size="10.0" fill="#7A7A7A" transform="matrix(1.00, 0.00, -0.00, -1.00, 658.7, 16.0)">l</text><text xml:space="preserve" font-family="CourierNewPSMT,Courier New" font-size="10.0" fill="#7A7A7A" transform="matrix(1.00, 0.00, -0.00, -1.00, 664.7, 16.0)">l</text><text xml:space="preserve" font-family="CourierNewPSMT,Courier New" font-size="10.0" fill="#7A7A7A" transform="matrix(1.00, 0.00, -0.00, -1.00, 670.6, 16.0)"> </text><g><clipPath id="clip0x7f9157cf72f0"><path d="M 189.6 12.5 L 670.6 12.5 L 670.6 14.9 L 189.6 14.9 Z M 189.6 12.5 "></path></clipPath><g clip-path="url(#clip0x7f9157cf72f0)"><path d="M 175.5 14.3 L 655.6 14.3 " fill="none" stroke="#7A7A7A" stroke-width="0.41" transform="matrix(1.00, 0.00, 0.00, -1.00, 15.0, 28.0)"></path></g></g><text xml:space="preserve" font-family="CourierNewPS-BoldMT,Courier New" font-weight="bold" font-size="60.0" fill="#E22400" transform="matrix(1.00, 0.00, -0.00, -1.00, 187.4, 656.0)">f</text><text xml:space="preserve" font-family="CourierNewPS-BoldMT,Courier New" font-weight="bold" font-size="60.0" fill="#E22400" transform="matrix(1.00, 0.00, -0.00, -1.00, 223.5, 656.0)">i</text><text xml:space="preserve" font-family="CourierNewPS-BoldMT,Courier New" font-weight="bold" font-size="60.0" fill="#E22400" transform="matrix(1.00, 0.00, -0.00, -1.00, 259.5, 656.0)">l</text><text xml:space="preserve" font-family="CourierNewPS-BoldMT,Courier New" font-weight="bold" font-size="60.0" fill="#E22400" transform="matrix(1.00, 0.00, -0.00, -1.00, 295.5, 656.0)">l</text><text xml:space="preserve" font-family="CourierNewPS-BoldMT,Courier New" font-weight="bold" font-size="60.0" fill="#E22400" transform="matrix(1.00, 0.00, -0.00, -1.00, 331.5, 656.0)"> </text><text xml:space="preserve" font-family="CourierNewPS-BoldMT,Courier New" font-weight="bold" font-size="60.0" fill="#E22400" transform="matrix(1.00, 0.00, -0.00, -1.00, 367.5, 656.0)">i</text><text xml:space="preserve" font-family="CourierNewPS-BoldMT,Courier New" font-weight="bold" font-size="60.0" fill="#E22400" transform="matrix(1.00, 0.00, -0.00, -1.00, 403.5, 656.0)">n</text><text xml:space="preserve" font-family="CourierNewPS-BoldMT,Courier New" font-weight="bold" font-size="60.0" fill="#E22400" transform="matrix(1.00, 0.00, -0.00, -1.00, 439.5, 656.0)"> </text><text xml:space="preserve" font-family="CourierNewPS-BoldMT,Courier New" font-weight="bold" font-size="60.0" fill="#E22400" transform="matrix(1.00, 0.00, -0.00, -1.00, 475.5, 656.0)">t</text><text xml:space="preserve" font-family="CourierNewPS-BoldMT,Courier New" font-weight="bold" font-size="60.0" fill="#E22400" transform="matrix(1.00, 0.00, -0.00, -1.00, 511.6, 656.0)">h</text><text xml:space="preserve" font-family="CourierNewPS-BoldMT,Courier New" font-weight="bold" font-size="60.0" fill="#E22400" transform="matrix(1.00, 0.00, -0.00, -1.00, 547.6, 656.0)">e</text><text xml:space="preserve" font-family="CourierNewPS-BoldMT,Courier New" font-weight="bold" font-size="60.0" fill="#E22400" transform="matrix(1.00, 0.00, -0.00, -1.00, 583.6, 656.0)"> </text><text xml:space="preserve" font-family="CourierNewPS-BoldMT,Courier New" font-weight="bold" font-size="60.0" fill="#E22400" transform="matrix(1.00, 0.00, -0.00, -1.00, 619.6, 656.0)">b</text><text xml:space="preserve" font-family="CourierNewPS-BoldMT,Courier New" font-weight="bold" font-size="60.0" fill="#E22400" transform="matrix(1.00, 0.00, -0.00, -1.00, 655.6, 656.0)">l</text><text xml:space="preserve" font-family="CourierNewPS-BoldMT,Courier New" font-weight="bold" font-size="60.0" fill="#E22400" transform="matrix(1.00, 0.00, -0.00, -1.00, 691.6, 656.0)">a</text><text xml:space="preserve" font-family="CourierNewPS-BoldMT,Courier New" font-weight="bold" font-size="60.0" fill="#E22400" transform="matrix(1.00, 0.00, -0.00, -1.00, 727.6, 656.0)">n</text><text xml:space="preserve" font-family="CourierNewPS-BoldMT,Courier New" font-weight="bold" font-size="60.0" fill="#E22400" transform="matrix(1.00, 0.00, -0.00, -1.00, 763.6, 656.0)">k</text><text xml:space="preserve" font-family="CourierNewPS-BoldMT,Courier New" font-weight="bold" font-size="60.0" fill="#E22400" transform="matrix(1.00, 0.00, -0.00, -1.00, 799.6, 656.0)">:</text><text xml:space="preserve" font-family="CourierNewPS-BoldMT,Courier New" font-weight="bold" font-size="60.0" fill="#E22400" transform="matrix(1.00, 0.00, -0.00, -1.00, 835.7, 656.0)"> </text><text xml:space="preserve" font-family="CourierNewPS-BoldMT,Courier New" font-weight="bold" font-size="60.0" fill="#000000" transform="matrix(1.00, 0.00, -0.00, -1.00, 115.4, 588.0)">w</text><text xml:space="preserve" font-family="CourierNewPS-BoldMT,Courier New" font-weight="bold" font-size="60.0" fill="#000000" transform="matrix(1.00, 0.00, -0.00, -1.00, 151.4, 588.0)">e</text><text xml:space="preserve" font-family="CourierNewPS-BoldMT,Courier New" font-weight="bold" font-size="60.0" fill="#000000" transform="matrix(1.00, 0.00, -0.00, -1.00, 187.5, 588.0)"> </text><text xml:space="preserve" font-family="CourierNewPS-BoldMT,Courier New" font-weight="bold" font-size="60.0" fill="#000000" transform="matrix(1.00, 0.00, -0.00, -1.00, 223.5, 588.0)">n</text><text xml:space="preserve" font-family="CourierNewPS-BoldMT,Courier New" font-weight="bold" font-size="60.0" fill="#000000" transform="matrix(1.00, 0.00, -0.00, -1.00, 259.5, 588.0)">e</text><text xml:space="preserve" font-family="CourierNewPS-BoldMT,Courier New" font-weight="bold" font-size="60.0" fill="#000000" transform="matrix(1.00, 0.00, -0.00, -1.00, 295.5, 588.0)">e</text><text xml:space="preserve" font-family="CourierNewPS-BoldMT,Courier New" font-weight="bold" font-size="60.0" fill="#000000" transform="matrix(1.00, 0.00, -0.00, -1.00, 331.5, 588.0)">d</text><text xml:space="preserve" font-family="CourierNewPS-BoldMT,Courier New" font-weight="bold" font-size="60.0" fill="#000000" transform="matrix(1.00, 0.00, -0.00, -1.00, 367.5, 588.0)"> </text><text xml:space="preserve" font-family="CourierNewPS-BoldMT,Courier New" font-weight="bold" font-size="60.0" fill="#000000" transform="matrix(1.00, 0.00, -0.00, -1.00, 403.5, 588.0)">m</text><text xml:space="preserve" font-family="CourierNewPS-BoldMT,Courier New" font-weight="bold" font-size="60.0" fill="#000000" transform="matrix(1.00, 0.00, -0.00, -1.00, 439.5, 588.0)">o</text><text xml:space="preserve" font-family="CourierNewPS-BoldMT,Courier New" font-weight="bold" font-size="60.0" fill="#000000" transform="matrix(1.00, 0.00, -0.00, -1.00, 475.6, 588.0)">r</text><text xml:space="preserve" font-family="CourierNewPS-BoldMT,Courier New" font-weight="bold" font-size="60.0" fill="#000000" transform="matrix(1.00, 0.00, -0.00, -1.00, 511.6, 588.0)">e</text><text xml:space="preserve" font-family="CourierNewPS-BoldMT,Courier New" font-weight="bold" font-size="60.0" fill="#000000" transform="matrix(1.00, 0.00, -0.00, -1.00, 547.6, 588.0)"> </text><text xml:space="preserve" font-family="CourierNewPS-BoldMT,Courier New" font-weight="bold" font-size="60.0" fill="#000000" transform="matrix(1.00, 0.00, -0.00, -1.00, 583.6, 588.0)">_</text><text xml:space="preserve" font-family="CourierNewPS-BoldMT,Courier New" font-weight="bold" font-size="60.0" fill="#000000" transform="matrix(1.00, 0.00, -0.00, -1.00, 619.6, 588.0)">_</text><text xml:space="preserve" font-family="CourierNewPS-BoldMT,Courier New" font-weight="bold" font-size="60.0" fill="#000000" transform="matrix(1.00, 0.00, -0.00, -1.00, 655.6, 588.0)">_</text><text xml:space="preserve" font-family="CourierNewPS-BoldMT,Courier New" font-weight="bold" font-size="60.0" fill="#000000" transform="matrix(1.00, 0.00, -0.00, -1.00, 691.6, 588.0)"> </text><text xml:space="preserve" font-family="CourierNewPS-BoldMT,Courier New" font-weight="bold" font-size="60.0" fill="#000000" transform="matrix(1.00, 0.00, -0.00, -1.00, 727.6, 588.0)">i</text><text xml:space="preserve" font-family="CourierNewPS-BoldMT,Courier New" font-weight="bold" font-size="60.0" fill="#000000" transform="matrix(1.00, 0.00, -0.00, -1.00, 763.6, 588.0)">f</text><text xml:space="preserve" font-family="CourierNewPS-BoldMT,Courier New" font-weight="bold" font-size="60.0" fill="#000000" transform="matrix(1.00, 0.00, -0.00, -1.00, 799.7, 588.0)"> </text><text xml:space="preserve" font-family="CourierNewPS-BoldMT,Courier New" font-weight="bold" font-size="60.0" fill="#000000" transform="matrix(1.00, 0.00, -0.00, -1.00, 835.7, 588.0)">w</text><text xml:space="preserve" font-family="CourierNewPS-BoldMT,Courier New" font-weight="bold" font-size="60.0" fill="#000000" transform="matrix(1.00, 0.00, -0.00, -1.00, 871.7, 588.0)">e</text><text xml:space="preserve" font-family="CourierNewPS-BoldMT,Courier New" font-weight="bold" font-size="60.0" fill="#000000" transform="matrix(1.00, 0.00, -0.00, -1.00, 907.7, 588.0)"> </text><text xml:space="preserve" font-family="CourierNewPS-BoldMT,Courier New" font-weight="bold" font-size="60.0" fill="#000000" transform="matrix(1.00, 0.00, -0.00, -1.00, 259.5, 520.0)">h</text><text xml:space="preserve" font-family="CourierNewPS-BoldMT,Courier New" font-weight="bold" font-size="60.0" fill="#000000" transform="matrix(1.00, 0.00, -0.00, -1.00, 295.5, 520.0)">a</text><text xml:space="preserve" font-family="CourierNewPS-BoldMT,Courier New" font-weight="bold" font-size="60.0" fill="#000000" transform="matrix(1.00, 0.00, -0.00, -1.00, 331.5, 520.0)">v</text><text xml:space="preserve" font-family="CourierNewPS-BoldMT,Courier New" font-weight="bold" font-size="60.0" fill="#000000" transform="matrix(1.00, 0.00, -0.00, -1.00, 367.5, 520.0)">e</text><text xml:space="preserve" font-family="CourierNewPS-BoldMT,Courier New" font-weight="bold" font-size="60.0" fill="#000000" transform="matrix(1.00, 0.00, -0.00, -1.00, 403.5, 520.0)"> </text><text xml:space="preserve" font-family="CourierNewPS-BoldMT,Courier New" font-weight="bold" font-size="60.0" fill="#000000" transform="matrix(1.00, 0.00, -0.00, -1.00, 439.5, 520.0)">m</text><text xml:space="preserve" font-family="CourierNewPS-BoldMT,Courier New" font-weight="bold" font-size="60.0" fill="#000000" transform="matrix(1.00, 0.00, -0.00, -1.00, 475.5, 520.0)">o</text><text xml:space="preserve" font-family="CourierNewPS-BoldMT,Courier New" font-weight="bold" font-size="60.0" fill="#000000" transform="matrix(1.00, 0.00, -0.00, -1.00, 511.5, 520.0)">r</text><text xml:space="preserve" font-family="CourierNewPS-BoldMT,Courier New" font-weight="bold" font-size="60.0" fill="#000000" transform="matrix(1.00, 0.00, -0.00, -1.00, 547.6, 520.0)">e</text><text xml:space="preserve" font-family="CourierNewPS-BoldMT,Courier New" font-weight="bold" font-size="60.0" fill="#000000" transform="matrix(1.00, 0.00, -0.00, -1.00, 583.6, 520.0)"> </text><text xml:space="preserve" font-family="CourierNewPS-BoldMT,Courier New" font-weight="bold" font-size="60.0" fill="#000000" transform="matrix(1.00, 0.00, -0.00, -1.00, 619.6, 520.0)">_</text><text xml:space="preserve" font-family="CourierNewPS-BoldMT,Courier New" font-weight="bold" font-size="60.0" fill="#000000" transform="matrix(1.00, 0.00, -0.00, -1.00, 655.6, 520.0)">_</text><text xml:space="preserve" font-family="CourierNewPS-BoldMT,Courier New" font-weight="bold" font-size="60.0" fill="#000000" transform="matrix(1.00, 0.00, -0.00, -1.00, 691.6, 520.0)">_</text><text xml:space="preserve" font-family="CourierNewPS-BoldMT,Courier New" font-weight="bold" font-size="60.0" fill="#000000" transform="matrix(1.00, 0.00, -0.00, -1.00, 727.6, 520.0)">_</text></g></svg>