<?xml version="1.0" encoding="UTF-8" standalone="no"?><svg xmlns="http://www.w3.org/2000/svg" xmlns:xlink="http://www.w3.org/1999/xlink" clip-rule="evenodd" stroke-miterlimit="10" viewBox="0 0 1024 768"><desc>SVG generated by Keynote</desc><defs></defs><g transform="matrix(1.00, 0.00, -0.00, -1.00, 0.0, 768.0)"><path d="M 0.0 768.0 L 1024.0 768.0 L 1024.0 0.0 L 0.0 0.0 Z M 0.0 768.0 " fill="#FEFFFF"></path><image xlink:href="../../279924E3-99D1-41CD-951B-15755898F240/assets/B24A821E7CA752C7710F9B911597FB71.png" width="500.00" height="385.00" transform="matrix(1.00, 0.00, -0.00, -1.00, 53.0, 429.0)"></image><text xml:space="preserve" font-family="CourierNewPS-BoldMT,Courier New" font-weight="bold" font-size="30.0" fill="#BE37F3" transform="matrix(1.00, 0.00, -0.00, -1.00, 617.0, 391.5)">T</text><text xml:space="preserve" font-family="CourierNewPS-BoldMT,Courier New" font-weight="bold" font-size="30.0" fill="#BE37F3" transform="matrix(1.00, 0.00, -0.00, -1.00, 635.0, 391.5)">X</text><text xml:space="preserve" font-family="CourierNewPS-BoldMT,Courier New" font-weight="bold" font-size="30.0" fill="#BE37F3" transform="matrix(1.00, 0.00, -0.00, -1.00, 653.0, 391.5)">/</text><text xml:space="preserve" font-family="CourierNewPS-BoldMT,Courier New" font-weight="bold" font-size="30.0" fill="#BE37F3" transform="matrix(1.00, 0.00, -0.00, -1.00, 671.0, 391.5)">R</text><text xml:space="preserve" font-family="CourierNewPS-BoldMT,Courier New" font-weight="bold" font-size="30.0" fill="#BE37F3" transform="matrix(1.00, 0.00, -0.00, -1.00, 689.0, 391.5)">X</text><text xml:space="preserve" font-family="CourierNewPS-BoldMT,Courier New" font-weight="bold" font-size="30.0" fill="#BE37F3" transform="matrix(1.00, 0.00, -0.00, -1.00, 707.0, 391.5)"> </text><text xml:space="preserve" font-family="CourierNewPS-BoldMT,Courier New" font-weight="bold" font-size="30.0" fill="#BE37F3" transform="matrix(1.00, 0.00, -0.00, -1.00, 725.0, 391.5)">(</text><text xml:space="preserve" font-family="CourierNewPS-BoldMT,Courier New" font-weight="bold" font-size="30.0" fill="#BE37F3" transform="matrix(1.00, 0.00, -0.00, -1.00, 743.0, 391.5)">s</text><text xml:space="preserve" font-family="CourierNewPS-BoldMT,Courier New" font-weight="bold" font-size="30.0" fill="#BE37F3" transform="matrix(1.00, 0.00, -0.00, -1.00, 761.0, 391.5)">e</text><text xml:space="preserve" font-family="CourierNewPS-BoldMT,Courier New" font-weight="bold" font-size="30.0" fill="#BE37F3" transform="matrix(1.00, 0.00, -0.00, -1.00, 779.1, 391.5)">r</text><text xml:space="preserve" font-family="CourierNewPS-BoldMT,Courier New" font-weight="bold" font-size="30.0" fill="#BE37F3" transform="matrix(1.00, 0.00, -0.00, -1.00, 797.1, 391.5)">i</text><text xml:space="preserve" font-family="CourierNewPS-BoldMT,Courier New" font-weight="bold" font-size="30.0" fill="#BE37F3" transform="matrix(1.00, 0.00, -0.00, -1.00, 815.1, 391.5)">a</text><text xml:space="preserve" font-family="CourierNewPS-BoldMT,Courier New" font-weight="bold" font-size="30.0" fill="#BE37F3" transform="matrix(1.00, 0.00, -0.00, -1.00, 833.1, 391.5)">l</text><text xml:space="preserve" font-family="CourierNewPS-BoldMT,Courier New" font-weight="bold" font-size="30.0" fill="#BE37F3" transform="matrix(1.00, 0.00, -0.00, -1.00, 851.1, 391.5)"> </text><text xml:space="preserve" font-family="CourierNewPS-BoldMT,Courier New" font-weight="bold" font-size="30.0" fill="#BE37F3" transform="matrix(1.00, 0.00, -0.00, -1.00, 869.1, 391.5)">-</text><text xml:space="preserve" font-family="CourierNewPS-BoldMT,Courier New" font-weight="bold" font-size="30.0" fill="#BE37F3" transform="matrix(1.00, 0.00, -0.00, -1.00, 887.1, 391.5)"> </text><text xml:space="preserve" font-family="CourierNewPS-BoldMT,Courier New" font-weight="bold" font-size="30.0" fill="#BE37F3" transform="matrix(1.00, 0.00, -0.00, -1.00, 905.1, 391.5)"> </text><text xml:space="preserve" font-family="CourierNewPS-BoldMT,Courier New" font-weight="bold" font-size="30.0" fill="#BE37F3" transform="matrix(1.00, 0.00, -0.00, -1.00, 617.0, 357.5)">t</text><text xml:space="preserve" font-family="CourierNewPS-BoldMT,Courier New" font-weight="bold" font-size="30.0" fill="#BE37F3" transform="matrix(1.00, 0.00, -0.00, -1.00, 635.0, 357.5)">r</text><text xml:space="preserve" font-family="CourierNewPS-BoldMT,Courier New" font-weight="bold" font-size="30.0" fill="#BE37F3" transform="matrix(1.00, 0.00, -0.00, -1.00, 653.0, 357.5)">a</text><text xml:space="preserve" font-family="CourierNewPS-BoldMT,Courier New" font-weight="bold" font-size="30.0" fill="#BE37F3" transform="matrix(1.00, 0.00, -0.00, -1.00, 671.0, 357.5)">n</text><text xml:space="preserve" font-family="CourierNewPS-BoldMT,Courier New" font-weight="bold" font-size="30.0" fill="#BE37F3" transform="matrix(1.00, 0.00, -0.00, -1.00, 689.0, 357.5)">s</text><text xml:space="preserve" font-family="CourierNewPS-BoldMT,Courier New" font-weight="bold" font-size="30.0" fill="#BE37F3" transform="matrix(1.00, 0.00, -0.00, -1.00, 707.0, 357.5)">m</text><text xml:space="preserve" font-family="CourierNewPS-BoldMT,Courier New" font-weight="bold" font-size="30.0" fill="#BE37F3" transform="matrix(1.00, 0.00, -0.00, -1.00, 725.0, 357.5)">i</text><text xml:space="preserve" font-family="CourierNewPS-BoldMT,Courier New" font-weight="bold" font-size="30.0" fill="#BE37F3" transform="matrix(1.00, 0.00, -0.00, -1.00, 743.0, 357.5)">t</text><text xml:space="preserve" font-family="CourierNewPS-BoldMT,Courier New" font-weight="bold" font-size="30.0" fill="#BE37F3" transform="matrix(1.00, 0.00, -0.00, -1.00, 761.0, 357.5)">/</text><text xml:space="preserve" font-family="CourierNewPS-BoldMT,Courier New" font-weight="bold" font-size="30.0" fill="#BE37F3" transform="matrix(1.00, 0.00, -0.00, -1.00, 779.1, 357.5)">r</text><text xml:space="preserve" font-family="CourierNewPS-BoldMT,Courier New" font-weight="bold" font-size="30.0" fill="#BE37F3" transform="matrix(1.00, 0.00, -0.00, -1.00, 797.1, 357.5)">e</text><text xml:space="preserve" font-family="CourierNewPS-BoldMT,Courier New" font-weight="bold" font-size="30.0" fill="#BE37F3" transform="matrix(1.00, 0.00, -0.00, -1.00, 815.1, 357.5)">c</text><text xml:space="preserve" font-family="CourierNewPS-BoldMT,Courier New" font-weight="bold" font-size="30.0" fill="#BE37F3" transform="matrix(1.00, 0.00, -0.00, -1.00, 833.1, 357.5)">e</text><text xml:space="preserve" font-family="CourierNewPS-BoldMT,Courier New" font-weight="bold" font-size="30.0" fill="#BE37F3" transform="matrix(1.00, 0.00, -0.00, -1.00, 851.1, 357.5)">i</text><text xml:space="preserve" font-family="CourierNewPS-BoldMT,Courier New" font-weight="bold" font-size="30.0" fill="#BE37F3" transform="matrix(1.00, 0.00, -0.00, -1.00, 869.1, 357.5)">v</text><text xml:space="preserve" font-family="CourierNewPS-BoldMT,Courier New" font-weight="bold" font-size="30.0" fill="#BE37F3" transform="matrix(1.00, 0.00, -0.00, -1.00, 887.1, 357.5)">e</text><text xml:space="preserve" font-family="CourierNewPS-BoldMT,Courier New" font-weight="bold" font-size="30.0" fill="#BE37F3" transform="matrix(1.00, 0.00, -0.00, -1.00, 905.1, 357.5)">)</text><text xml:space="preserve" font-family="CourierNewPS-BoldMT,Courier New" font-weight="bold" font-size="30.0" fill="#BE37F3" transform="matrix(1.00, 0.00, -0.00, -1.00, 923.1, 357.5)"> </text><text xml:space="preserve" font-family="CourierNewPS-BoldMT,Courier New" font-weight="bold" font-size="30.0" fill="#76BA40" transform="matrix(1.00, 0.00, -0.00, -1.00, 617.0, 289.5)">3</text><text xml:space="preserve" font-family="CourierNewPS-BoldMT,Courier New" font-weight="bold" font-size="30.0" fill="#76BA40" transform="matrix(1.00, 0.00, -0.00, -1.00, 635.0, 289.5)"> </text><text xml:space="preserve" font-family="CourierNewPS-BoldMT,Courier New" font-weight="bold" font-size="30.0" fill="#76BA40" transform="matrix(1.00, 0.00, -0.00, -1.00, 653.0, 289.5)">g</text><text xml:space="preserve" font-family="CourierNewPS-BoldMT,Courier New" font-weight="bold" font-size="30.0" fill="#76BA40" transform="matrix(1.00, 0.00, -0.00, -1.00, 671.0, 289.5)">r</text><text xml:space="preserve" font-family="CourierNewPS-BoldMT,Courier New" font-weight="bold" font-size="30.0" fill="#76BA40" transform="matrix(1.00, 0.00, -0.00, -1.00, 689.0, 289.5)">o</text><text xml:space="preserve" font-family="CourierNewPS-BoldMT,Courier New" font-weight="bold" font-size="30.0" fill="#76BA40" transform="matrix(1.00, 0.00, -0.00, -1.00, 707.0, 289.5)">u</text><text xml:space="preserve" font-family="CourierNewPS-BoldMT,Courier New" font-weight="bold" font-size="30.0" fill="#76BA40" transform="matrix(1.00, 0.00, -0.00, -1.00, 725.0, 289.5)">n</text><text xml:space="preserve" font-family="CourierNewPS-BoldMT,Courier New" font-weight="bold" font-size="30.0" fill="#76BA40" transform="matrix(1.00, 0.00, -0.00, -1.00, 743.0, 289.5)">d</text><text xml:space="preserve" font-family="CourierNewPS-BoldMT,Courier New" font-weight="bold" font-size="30.0" fill="#76BA40" transform="matrix(1.00, 0.00, -0.00, -1.00, 761.0, 289.5)"> </text><text xml:space="preserve" font-family="CourierNewPS-BoldMT,Courier New" font-weight="bold" font-size="30.0" fill="#76BA40" transform="matrix(1.00, 0.00, -0.00, -1.00, 779.1, 289.5)">p</text><text xml:space="preserve" font-family="CourierNewPS-BoldMT,Courier New" font-weight="bold" font-size="30.0" fill="#76BA40" transform="matrix(1.00, 0.00, -0.00, -1.00, 797.1, 289.5)">i</text><text xml:space="preserve" font-family="CourierNewPS-BoldMT,Courier New" font-weight="bold" font-size="30.0" fill="#76BA40" transform="matrix(1.00, 0.00, -0.00, -1.00, 815.1, 289.5)">n</text><text xml:space="preserve" font-family="CourierNewPS-BoldMT,Courier New" font-weight="bold" font-size="30.0" fill="#76BA40" transform="matrix(1.00, 0.00, -0.00, -1.00, 833.1, 289.5)">s</text><text xml:space="preserve" font-family="CourierNewPS-BoldMT,Courier New" font-weight="bold" font-size="30.0" fill="#76BA40" transform="matrix(1.00, 0.00, -0.00, -1.00, 851.1, 289.5)"> </text><text xml:space="preserve" font-family="CourierNewPS-BoldMT,Courier New" font-weight="bold" font-size="30.0" fill="#FFA900" transform="matrix(1.00, 0.00, -0.00, -1.00, 617.0, 221.5)">3</text><text xml:space="preserve" font-family="CourierNewPS-BoldMT,Courier New" font-weight="bold" font-size="30.0" fill="#FFA900" transform="matrix(1.00, 0.00, -0.00, -1.00, 635.0, 221.5)"> </text><text xml:space="preserve" font-family="CourierNewPS-BoldMT,Courier New" font-weight="bold" font-size="30.0" fill="#FFA900" transform="matrix(1.00, 0.00, -0.00, -1.00, 653.0, 221.5)">p</text><text xml:space="preserve" font-family="CourierNewPS-BoldMT,Courier New" font-weight="bold" font-size="30.0" fill="#FFA900" transform="matrix(1.00, 0.00, -0.00, -1.00, 671.0, 221.5)">o</text><text xml:space="preserve" font-family="CourierNewPS-BoldMT,Courier New" font-weight="bold" font-size="30.0" fill="#FFA900" transform="matrix(1.00, 0.00, -0.00, -1.00, 689.0, 221.5)">w</text><text xml:space="preserve" font-family="CourierNewPS-BoldMT,Courier New" font-weight="bold" font-size="30.0" fill="#FFA900" transform="matrix(1.00, 0.00, -0.00, -1.00, 707.0, 221.5)">e</text><text xml:space="preserve" font-family="CourierNewPS-BoldMT,Courier New" font-weight="bold" font-size="30.0" fill="#FFA900" transform="matrix(1.00, 0.00, -0.00, -1.00, 725.0, 221.5)">r</text><text xml:space="preserve" font-family="CourierNewPS-BoldMT,Courier New" font-weight="bold" font-size="30.0" fill="#FFA900" transform="matrix(1.00, 0.00, -0.00, -1.00, 743.0, 221.5)"> </text><text xml:space="preserve" font-family="CourierNewPS-BoldMT,Courier New" font-weight="bold" font-size="30.0" fill="#FFA900" transform="matrix(1.00, 0.00, -0.00, -1.00, 761.0, 221.5)">p</text><text xml:space="preserve" font-family="CourierNewPS-BoldMT,Courier New" font-weight="bold" font-size="30.0" fill="#FFA900" transform="matrix(1.00, 0.00, -0.00, -1.00, 779.1, 221.5)">i</text><text xml:space="preserve" font-family="CourierNewPS-BoldMT,Courier New" font-weight="bold" font-size="30.0" fill="#FFA900" transform="matrix(1.00, 0.00, -0.00, -1.00, 797.1, 221.5)">n</text><text xml:space="preserve" font-family="CourierNewPS-BoldMT,Courier New" font-weight="bold" font-size="30.0" fill="#FFA900" transform="matrix(1.00, 0.00, -0.00, -1.00, 815.1, 221.5)">s</text><text xml:space="preserve" font-family="CourierNewPS-BoldMT,Courier New" font-weight="bold" font-size="30.0" fill="#FFA900" transform="matrix(1.00, 0.00, -0.00, -1.00, 833.1, 221.5)"> </text><text xml:space="preserve" font-family="CourierNewPS-BoldMT,Courier New" font-weight="bold" font-size="30.0" fill="#FFA900" transform="matrix(1.00, 0.00, -0.00, -1.00, 617.0, 187.5)">/</text><text xml:space="preserve" font-family="CourierNewPS-BoldMT,Courier New" font-weight="bold" font-size="30.0" fill="#FFA900" transform="matrix(1.00, 0.00, -0.00, -1.00, 635.0, 187.5)">/</text><text xml:space="preserve" font-family="CourierNewPS-BoldMT,Courier New" font-weight="bold" font-size="30.0" fill="#FFA900" transform="matrix(1.00, 0.00, -0.00, -1.00, 653.0, 187.5)"> </text><text xml:space="preserve" font-family="CourierNewPS-BoldMT,Courier New" font-weight="bold" font-size="30.0" fill="#FFA900" transform="matrix(1.00, 0.00, -0.00, -1.00, 671.0, 187.5)">5</text><text xml:space="preserve" font-family="CourierNewPS-BoldMT,Courier New" font-weight="bold" font-size="30.0" fill="#FFA900" transform="matrix(1.00, 0.00, -0.00, -1.00, 689.0, 187.5)"> </text><text xml:space="preserve" font-family="CourierNewPS-BoldMT,Courier New" font-weight="bold" font-size="30.0" fill="#FFA900" transform="matrix(1.00, 0.00, -0.00, -1.00, 707.0, 187.5)">v</text><text xml:space="preserve" font-family="CourierNewPS-BoldMT,Courier New" font-weight="bold" font-size="30.0" fill="#FFA900" transform="matrix(1.00, 0.00, -0.00, -1.00, 725.0, 187.5)">o</text><text xml:space="preserve" font-family="CourierNewPS-BoldMT,Courier New" font-weight="bold" font-size="30.0" fill="#FFA900" transform="matrix(1.00, 0.00, -0.00, -1.00, 743.0, 187.5)">l</text><text xml:space="preserve" font-family="CourierNewPS-BoldMT,Courier New" font-weight="bold" font-size="30.0" fill="#FFA900" transform="matrix(1.00, 0.00, -0.00, -1.00, 761.0, 187.5)">t</text><text xml:space="preserve" font-family="CourierNewPS-BoldMT,Courier New" font-weight="bold" font-size="30.0" fill="#FFA900" transform="matrix(1.00, 0.00, -0.00, -1.00, 779.1, 187.5)">s</text><text xml:space="preserve" font-family="CourierNewPS-BoldMT,Courier New" font-weight="bold" font-size="30.0" fill="#FFA900" transform="matrix(1.00, 0.00, -0.00, -1.00, 797.1, 187.5)"> </text><text xml:space="preserve" font-family="CourierNewPS-BoldMT,Courier New" font-weight="bold" font-size="30.0" fill="#FFA900" transform="matrix(1.00, 0.00, -0.00, -1.00, 617.0, 153.5)">/</text><text xml:space="preserve" font-family="CourierNewPS-BoldMT,Courier New" font-weight="bold" font-size="30.0" fill="#FFA900" transform="matrix(1.00, 0.00, -0.00, -1.00, 635.0, 153.5)">/</text><text xml:space="preserve" font-family="CourierNewPS-BoldMT,Courier New" font-weight="bold" font-size="30.0" fill="#FFA900" transform="matrix(1.00, 0.00, -0.00, -1.00, 653.0, 153.5)"> </text><text xml:space="preserve" font-family="CourierNewPS-BoldMT,Courier New" font-weight="bold" font-size="30.0" fill="#FFA900" transform="matrix(1.00, 0.00, -0.00, -1.00, 671.0, 153.5)">3</text><text xml:space="preserve" font-family="CourierNewPS-BoldMT,Courier New" font-weight="bold" font-size="30.0" fill="#FFA900" transform="matrix(1.00, 0.00, -0.00, -1.00, 689.0, 153.5)"> </text><text xml:space="preserve" font-family="CourierNewPS-BoldMT,Courier New" font-weight="bold" font-size="30.0" fill="#FFA900" transform="matrix(1.00, 0.00, -0.00, -1.00, 707.0, 153.5)">v</text><text xml:space="preserve" font-family="CourierNewPS-BoldMT,Courier New" font-weight="bold" font-size="30.0" fill="#FFA900" transform="matrix(1.00, 0.00, -0.00, -1.00, 725.0, 153.5)">o</text><text xml:space="preserve" font-family="CourierNewPS-BoldMT,Courier New" font-weight="bold" font-size="30.0" fill="#FFA900" transform="matrix(1.00, 0.00, -0.00, -1.00, 743.0, 153.5)">l</text><text xml:space="preserve" font-family="CourierNewPS-BoldMT,Courier New" font-weight="bold" font-size="30.0" fill="#FFA900" transform="matrix(1.00, 0.00, -0.00, -1.00, 761.0, 153.5)">t</text><text xml:space="preserve" font-family="CourierNewPS-BoldMT,Courier New" font-weight="bold" font-size="30.0" fill="#FFA900" transform="matrix(1.00, 0.00, -0.00, -1.00, 779.1, 153.5)">s</text><text xml:space="preserve" font-family="CourierNewPS-BoldMT,Courier New" font-weight="bold" font-size="30.0" fill="#FFA900" transform="matrix(1.00, 0.00, -0.00, -1.00, 797.1, 153.5)"> </text><text xml:space="preserve" font-family="CourierNewPS-BoldMT,Courier New" font-weight="bold" font-size="30.0" fill="#FFA900" transform="matrix(1.00, 0.00, -0.00, -1.00, 617.0, 119.5)">/</text><text xml:space="preserve" font-family="CourierNewPS-BoldMT,Courier New" font-weight="bold" font-size="30.0" fill="#FFA900" transform="matrix(1.00, 0.00, -0.00, -1.00, 635.0, 119.5)">/</text><text xml:space="preserve" font-family="CourierNewPS-BoldMT,Courier New" font-weight="bold" font-size="30.0" fill="#FFA900" transform="matrix(1.00, 0.00, -0.00, -1.00, 653.0, 119.5)"> </text><text xml:space="preserve" font-family="CourierNewPS-BoldMT,Courier New" font-weight="bold" font-size="30.0" fill="#FFA900" transform="matrix(1.00, 0.00, -0.00, -1.00, 671.0, 119.5)">V</text><text xml:space="preserve" font-family="CourierNewPS-BoldMT,Courier New" font-weight="bold" font-size="30.0" fill="#FFA900" transform="matrix(1.00, 0.00, -0.00, -1.00, 689.0, 119.5)">I</text><text xml:space="preserve" font-family="CourierNewPS-BoldMT,Courier New" font-weight="bold" font-size="30.0" fill="#FFA900" transform="matrix(1.00, 0.00, -0.00, -1.00, 707.0, 119.5)">N</text><text xml:space="preserve" font-family="CourierNewPS-BoldMT,Courier New" font-weight="bold" font-size="30.0" fill="#FFA900" transform="matrix(1.00, 0.00, -0.00, -1.00, 725.0, 119.5)"> </text><text xml:space="preserve" font-family="CourierNewPS-BoldMT,Courier New" font-weight="bold" font-size="30.0" fill="#FFA900" transform="matrix(1.00, 0.00, -0.00, -1.00, 743.0, 119.5)">-</text><text xml:space="preserve" font-family="CourierNewPS-BoldMT,Courier New" font-weight="bold" font-size="30.0" fill="#FFA900" transform="matrix(1.00, 0.00, -0.00, -1.00, 761.0, 119.5)"> </text><text xml:space="preserve" font-family="CourierNewPS-BoldMT,Courier New" font-weight="bold" font-size="30.0" fill="#FFA900" transform="matrix(1.00, 0.00, -0.00, -1.00, 779.1, 119.5)">c</text><text xml:space="preserve" font-family="CourierNewPS-BoldMT,Courier New" font-weight="bold" font-size="30.0" fill="#FFA900" transform="matrix(1.00, 0.00, -0.00, -1.00, 797.1, 119.5)">a</text><text xml:space="preserve" font-family="CourierNewPS-BoldMT,Courier New" font-weight="bold" font-size="30.0" fill="#FFA900" transform="matrix(1.00, 0.00, -0.00, -1.00, 815.1, 119.5)">n</text><text xml:space="preserve" font-family="CourierNewPS-BoldMT,Courier New" font-weight="bold" font-size="30.0" fill="#FFA900" transform="matrix(1.00, 0.00, -0.00, -1.00, 833.1, 119.5)"> </text><text xml:space="preserve" font-family="CourierNewPS-BoldMT,Courier New" font-weight="bold" font-size="30.0" fill="#FFA900" transform="matrix(1.00, 0.00, -0.00, -1.00, 851.1, 119.5)">p</text><text xml:space="preserve" font-family="CourierNewPS-BoldMT,Courier New" font-weight="bold" font-size="30.0" fill="#FFA900" transform="matrix(1.00, 0.00, -0.00, -1.00, 869.1, 119.5)">l</text><text xml:space="preserve" font-family="CourierNewPS-BoldMT,Courier New" font-weight="bold" font-size="30.0" fill="#FFA900" transform="matrix(1.00, 0.00, -0.00, -1.00, 887.1, 119.5)">u</text><text xml:space="preserve" font-family="CourierNewPS-BoldMT,Courier New" font-weight="bold" font-size="30.0" fill="#FFA900" transform="matrix(1.00, 0.00, -0.00, -1.00, 905.1, 119.5)">g</text><text xml:space="preserve" font-family="CourierNewPS-BoldMT,Courier New" font-weight="bold" font-size="30.0" fill="#FFA900" transform="matrix(1.00, 0.00, -0.00, -1.00, 923.1, 119.5)"> </text><text xml:space="preserve" font-family="CourierNewPS-BoldMT,Courier New" font-weight="bold" font-size="30.0" fill="#FFA900" transform="matrix(1.00, 0.00, -0.00, -1.00, 941.1, 119.5)">9</text><text xml:space="preserve" font-family="CourierNewPS-BoldMT,Courier New" font-weight="bold" font-size="30.0" fill="#FFA900" transform="matrix(1.00, 0.00, -0.00, -1.00, 959.1, 119.5)"> </text><text xml:space="preserve" font-family="CourierNewPS-BoldMT,Courier New" font-weight="bold" font-size="30.0" fill="#FFA900" transform="matrix(1.00, 0.00, -0.00, -1.00, 617.0, 85.5)">v</text><text xml:space="preserve" font-family="CourierNewPS-BoldMT,Courier New" font-weight="bold" font-size="30.0" fill="#FFA900" transform="matrix(1.00, 0.00, -0.00, -1.00, 635.0, 85.5)">o</text><text xml:space="preserve" font-family="CourierNewPS-BoldMT,Courier New" font-weight="bold" font-size="30.0" fill="#FFA900" transform="matrix(1.00, 0.00, -0.00, -1.00, 653.0, 85.5)">l</text><text xml:space="preserve" font-family="CourierNewPS-BoldMT,Courier New" font-weight="bold" font-size="30.0" fill="#FFA900" transform="matrix(1.00, 0.00, -0.00, -1.00, 671.0, 85.5)">t</text><text xml:space="preserve" font-family="CourierNewPS-BoldMT,Courier New" font-weight="bold" font-size="30.0" fill="#FFA900" transform="matrix(1.00, 0.00, -0.00, -1.00, 689.0, 85.5)">s</text><text xml:space="preserve" font-family="CourierNewPS-BoldMT,Courier New" font-weight="bold" font-size="30.0" fill="#FFA900" transform="matrix(1.00, 0.00, -0.00, -1.00, 707.0, 85.5)"> </text><text xml:space="preserve" font-family="CourierNewPS-BoldMT,Courier New" font-weight="bold" font-size="30.0" fill="#FFA900" transform="matrix(1.00, 0.00, -0.00, -1.00, 725.0, 85.5)">h</text><text xml:space="preserve" font-family="CourierNewPS-BoldMT,Courier New" font-weight="bold" font-size="30.0" fill="#FFA900" transform="matrix(1.00, 0.00, -0.00, -1.00, 743.0, 85.5)">e</text><text xml:space="preserve" font-family="CourierNewPS-BoldMT,Courier New" font-weight="bold" font-size="30.0" fill="#FFA900" transform="matrix(1.00, 0.00, -0.00, -1.00, 761.0, 85.5)">r</text><text xml:space="preserve" font-family="CourierNewPS-BoldMT,Courier New" font-weight="bold" font-size="30.0" fill="#FFA900" transform="matrix(1.00, 0.00, -0.00, -1.00, 779.1, 85.5)">e</text><text xml:space="preserve" font-family="CourierNewPS-BoldMT,Courier New" font-weight="bold" font-size="42.0" fill="#7A7A7A" transform="matrix(1.00, 0.00, -0.00, -1.00, 87.0, 612.6)">a</text><text xml:space="preserve" font-family="CourierNewPS-BoldMT,Courier New" font-weight="bold" font-size="42.0" fill="#7A7A7A" transform="matrix(1.00, 0.00, -0.00, -1.00, 112.2, 612.6)"> </text><text xml:space="preserve" font-family="CourierNewPS-BoldMT,Courier New" font-weight="bold" font-size="42.0" fill="#BE37F3" transform="matrix(1.00, 0.00, -0.00, -1.00, 137.4, 612.6)">p</text><text xml:space="preserve" font-family="CourierNewPS-BoldMT,Courier New" font-weight="bold" font-size="42.0" fill="#BE37F3" transform="matrix(1.00, 0.00, -0.00, -1.00, 162.6, 612.6)">i</text><text xml:space="preserve" font-family="CourierNewPS-BoldMT,Courier New" font-weight="bold" font-size="42.0" fill="#BE37F3" transform="matrix(1.00, 0.00, -0.00, -1.00, 187.8, 612.6)">n</text><text xml:space="preserve" font-family="CourierNewPS-BoldMT,Courier New" font-weight="bold" font-size="42.0" fill="#7A7A7A" transform="matrix(1.00, 0.00, -0.00, -1.00, 213.0, 612.6)"> </text><text xml:space="preserve" font-family="CourierNewPS-BoldMT,Courier New" font-weight="bold" font-size="42.0" fill="#7A7A7A" transform="matrix(1.00, 0.00, -0.00, -1.00, 238.2, 612.6)">p</text><text xml:space="preserve" font-family="CourierNewPS-BoldMT,Courier New" font-weight="bold" font-size="42.0" fill="#7A7A7A" transform="matrix(1.00, 0.00, -0.00, -1.00, 263.4, 612.6)">r</text><text xml:space="preserve" font-family="CourierNewPS-BoldMT,Courier New" font-weight="bold" font-size="42.0" fill="#7A7A7A" transform="matrix(1.00, 0.00, -0.00, -1.00, 288.6, 612.6)">o</text><text xml:space="preserve" font-family="CourierNewPS-BoldMT,Courier New" font-weight="bold" font-size="42.0" fill="#7A7A7A" transform="matrix(1.00, 0.00, -0.00, -1.00, 313.9, 612.6)">v</text><text xml:space="preserve" font-family="CourierNewPS-BoldMT,Courier New" font-weight="bold" font-size="42.0" fill="#7A7A7A" transform="matrix(1.00, 0.00, -0.00, -1.00, 339.1, 612.6)">i</text><text xml:space="preserve" font-family="CourierNewPS-BoldMT,Courier New" font-weight="bold" font-size="42.0" fill="#7A7A7A" transform="matrix(1.00, 0.00, -0.00, -1.00, 364.3, 612.6)">d</text><text xml:space="preserve" font-family="CourierNewPS-BoldMT,Courier New" font-weight="bold" font-size="42.0" fill="#7A7A7A" transform="matrix(1.00, 0.00, -0.00, -1.00, 389.5, 612.6)">e</text><text xml:space="preserve" font-family="CourierNewPS-BoldMT,Courier New" font-weight="bold" font-size="42.0" fill="#7A7A7A" transform="matrix(1.00, 0.00, -0.00, -1.00, 414.7, 612.6)">s</text><text xml:space="preserve" font-family="CourierNewPS-BoldMT,Courier New" font-weight="bold" font-size="42.0" fill="#7A7A7A" transform="matrix(1.00, 0.00, -0.00, -1.00, 439.9, 612.6)"> </text><text xml:space="preserve" font-family="CourierNewPS-BoldMT,Courier New" font-weight="bold" font-size="42.0" fill="#7A7A7A" transform="matrix(1.00, 0.00, -0.00, -1.00, 465.1, 612.6)">a</text><text xml:space="preserve" font-family="CourierNewPS-BoldMT,Courier New" font-weight="bold" font-size="42.0" fill="#7A7A7A" transform="matrix(1.00, 0.00, -0.00, -1.00, 490.3, 612.6)">n</text><text xml:space="preserve" font-family="CourierNewPS-BoldMT,Courier New" font-weight="bold" font-size="42.0" fill="#7A7A7A" transform="matrix(1.00, 0.00, -0.00, -1.00, 515.5, 612.6)"> </text><text xml:space="preserve" font-family="CourierNewPS-BoldMT,Courier New" font-weight="bold" font-size="42.0" fill="#7A7A7A" transform="matrix(1.00, 0.00, -0.00, -1.00, 540.7, 612.6)">i</text><text xml:space="preserve" font-family="CourierNewPS-BoldMT,Courier New" font-weight="bold" font-size="42.0" fill="#7A7A7A" transform="matrix(1.00, 0.00, -0.00, -1.00, 565.9, 612.6)">n</text><text xml:space="preserve" font-family="CourierNewPS-BoldMT,Courier New" font-weight="bold" font-size="42.0" fill="#7A7A7A" transform="matrix(1.00, 0.00, -0.00, -1.00, 591.1, 612.6)">p</text><text xml:space="preserve" font-family="CourierNewPS-BoldMT,Courier New" font-weight="bold" font-size="42.0" fill="#7A7A7A" transform="matrix(1.00, 0.00, -0.00, -1.00, 616.4, 612.6)">u</text><text xml:space="preserve" font-family="CourierNewPS-BoldMT,Courier New" font-weight="bold" font-size="42.0" fill="#7A7A7A" transform="matrix(1.00, 0.00, -0.00, -1.00, 641.6, 612.6)">t</text><text xml:space="preserve" font-family="CourierNewPS-BoldMT,Courier New" font-weight="bold" font-size="42.0" fill="#7A7A7A" transform="matrix(1.00, 0.00, -0.00, -1.00, 666.8, 612.6)"> </text><text xml:space="preserve" font-family="CourierNewPS-BoldMT,Courier New" font-weight="bold" font-size="42.0" fill="#7A7A7A" transform="matrix(1.00, 0.00, -0.00, -1.00, 692.0, 612.6)">o</text><text xml:space="preserve" font-family="CourierNewPS-BoldMT,Courier New" font-weight="bold" font-size="42.0" fill="#7A7A7A" transform="matrix(1.00, 0.00, -0.00, -1.00, 717.2, 612.6)">r</text><text xml:space="preserve" font-family="CourierNewPS-BoldMT,Courier New" font-weight="bold" font-size="42.0" fill="#7A7A7A" transform="matrix(1.00, 0.00, -0.00, -1.00, 742.4, 612.6)"> </text><text xml:space="preserve" font-family="CourierNewPS-BoldMT,Courier New" font-weight="bold" font-size="42.0" fill="#7A7A7A" transform="matrix(1.00, 0.00, -0.00, -1.00, 767.6, 612.6)">o</text><text xml:space="preserve" font-family="CourierNewPS-BoldMT,Courier New" font-weight="bold" font-size="42.0" fill="#7A7A7A" transform="matrix(1.00, 0.00, -0.00, -1.00, 792.8, 612.6)">u</text><text xml:space="preserve" font-family="CourierNewPS-BoldMT,Courier New" font-weight="bold" font-size="42.0" fill="#7A7A7A" transform="matrix(1.00, 0.00, -0.00, -1.00, 818.0, 612.6)">t</text><text xml:space="preserve" font-family="CourierNewPS-BoldMT,Courier New" font-weight="bold" font-size="42.0" fill="#7A7A7A" transform="matrix(1.00, 0.00, -0.00, -1.00, 843.2, 612.6)">p</text><text xml:space="preserve" font-family="CourierNewPS-BoldMT,Courier New" font-weight="bold" font-size="42.0" fill="#7A7A7A" transform="matrix(1.00, 0.00, -0.00, -1.00, 868.4, 612.6)">u</text><text xml:space="preserve" font-family="CourierNewPS-BoldMT,Courier New" font-weight="bold" font-size="42.0" fill="#7A7A7A" transform="matrix(1.00, 0.00, -0.00, -1.00, 893.6, 612.6)">t</text><text xml:space="preserve" font-family="CourierNewPS-BoldMT,Courier New" font-weight="bold" font-size="42.0" fill="#7A7A7A" transform="matrix(1.00, 0.00, -0.00, -1.00, 918.9, 612.6)"> </text><text xml:space="preserve" font-family="CourierNewPS-BoldMT,Courier New" font-weight="bold" font-size="42.0" fill="#7A7A7A" transform="matrix(1.00, 0.00, -0.00, -1.00, 87.0, 564.6)">t</text><text xml:space="preserve" font-family="CourierNewPS-BoldMT,Courier New" font-weight="bold" font-size="42.0" fill="#7A7A7A" transform="matrix(1.00, 0.00, -0.00, -1.00, 112.2, 564.6)">h</text><text xml:space="preserve" font-family="CourierNewPS-BoldMT,Courier New" font-weight="bold" font-size="42.0" fill="#7A7A7A" transform="matrix(1.00, 0.00, -0.00, -1.00, 137.4, 564.6)">r</text><text xml:space="preserve" font-family="CourierNewPS-BoldMT,Courier New" font-weight="bold" font-size="42.0" fill="#7A7A7A" transform="matrix(1.00, 0.00, -0.00, -1.00, 162.6, 564.6)">o</text><text xml:space="preserve" font-family="CourierNewPS-BoldMT,Courier New" font-weight="bold" font-size="42.0" fill="#7A7A7A" transform="matrix(1.00, 0.00, -0.00, -1.00, 187.8, 564.6)">u</text><text xml:space="preserve" font-family="CourierNewPS-BoldMT,Courier New" font-weight="bold" font-size="42.0" fill="#7A7A7A" transform="matrix(1.00, 0.00, -0.00, -1.00, 213.0, 564.6)">g</text><text xml:space="preserve" font-family="CourierNewPS-BoldMT,Courier New" font-weight="bold" font-size="42.0" fill="#7A7A7A" transform="matrix(1.00, 0.00, -0.00, -1.00, 238.2, 564.6)">h</text><text xml:space="preserve" font-family="CourierNewPS-BoldMT,Courier New" font-weight="bold" font-size="42.0" fill="#7A7A7A" transform="matrix(1.00, 0.00, -0.00, -1.00, 263.5, 564.6)"> </text><text xml:space="preserve" font-family="CourierNewPS-BoldMT,Courier New" font-weight="bold" font-size="42.0" fill="#7A7A7A" transform="matrix(1.00, 0.00, -0.00, -1.00, 288.7, 564.6)">w</text><text xml:space="preserve" font-family="CourierNewPS-BoldMT,Courier New" font-weight="bold" font-size="42.0" fill="#7A7A7A" transform="matrix(1.00, 0.00, -0.00, -1.00, 313.9, 564.6)">h</text><text xml:space="preserve" font-family="CourierNewPS-BoldMT,Courier New" font-weight="bold" font-size="42.0" fill="#7A7A7A" transform="matrix(1.00, 0.00, -0.00, -1.00, 339.1, 564.6)">i</text><text xml:space="preserve" font-family="CourierNewPS-BoldMT,Courier New" font-weight="bold" font-size="42.0" fill="#7A7A7A" transform="matrix(1.00, 0.00, -0.00, -1.00, 364.3, 564.6)">c</text><text xml:space="preserve" font-family="CourierNewPS-BoldMT,Courier New" font-weight="bold" font-size="42.0" fill="#7A7A7A" transform="matrix(1.00, 0.00, -0.00, -1.00, 389.5, 564.6)">h</text><text xml:space="preserve" font-family="CourierNewPS-BoldMT,Courier New" font-weight="bold" font-size="42.0" fill="#7A7A7A" transform="matrix(1.00, 0.00, -0.00, -1.00, 414.7, 564.6)"> </text><text xml:space="preserve" font-family="CourierNewPS-BoldMT,Courier New" font-weight="bold" font-size="42.0" fill="#7A7A7A" transform="matrix(1.00, 0.00, -0.00, -1.00, 439.9, 564.6)">t</text><text xml:space="preserve" font-family="CourierNewPS-BoldMT,Courier New" font-weight="bold" font-size="42.0" fill="#7A7A7A" transform="matrix(1.00, 0.00, -0.00, -1.00, 465.1, 564.6)">h</text><text xml:space="preserve" font-family="CourierNewPS-BoldMT,Courier New" font-weight="bold" font-size="42.0" fill="#7A7A7A" transform="matrix(1.00, 0.00, -0.00, -1.00, 490.3, 564.6)">e</text><text xml:space="preserve" font-family="CourierNewPS-BoldMT,Courier New" font-weight="bold" font-size="42.0" fill="#7A7A7A" transform="matrix(1.00, 0.00, -0.00, -1.00, 515.5, 564.6)"> </text><text xml:space="preserve" font-family="CourierNewPS-BoldMT,Courier New" font-weight="bold" font-size="42.0" fill="#7A7A7A" transform="matrix(1.00, 0.00, -0.00, -1.00, 540.7, 564.6)">c</text><text xml:space="preserve" font-family="CourierNewPS-BoldMT,Courier New" font-weight="bold" font-size="42.0" fill="#7A7A7A" transform="matrix(1.00, 0.00, -0.00, -1.00, 566.0, 564.6)">o</text><text xml:space="preserve" font-family="CourierNewPS-BoldMT,Courier New" font-weight="bold" font-size="42.0" fill="#7A7A7A" transform="matrix(1.00, 0.00, -0.00, -1.00, 591.2, 564.6)">n</text><text xml:space="preserve" font-family="CourierNewPS-BoldMT,Courier New" font-weight="bold" font-size="42.0" fill="#7A7A7A" transform="matrix(1.00, 0.00, -0.00, -1.00, 616.4, 564.6)">t</text><text xml:space="preserve" font-family="CourierNewPS-BoldMT,Courier New" font-weight="bold" font-size="42.0" fill="#7A7A7A" transform="matrix(1.00, 0.00, -0.00, -1.00, 641.6, 564.6)">r</text><text xml:space="preserve" font-family="CourierNewPS-BoldMT,Courier New" font-weight="bold" font-size="42.0" fill="#7A7A7A" transform="matrix(1.00, 0.00, -0.00, -1.00, 666.8, 564.6)">o</text><text xml:space="preserve" font-family="CourierNewPS-BoldMT,Courier New" font-weight="bold" font-size="42.0" fill="#7A7A7A" transform="matrix(1.00, 0.00, -0.00, -1.00, 692.0, 564.6)">l</text><text xml:space="preserve" font-family="CourierNewPS-BoldMT,Courier New" font-weight="bold" font-size="42.0" fill="#7A7A7A" transform="matrix(1.00, 0.00, -0.00, -1.00, 717.2, 564.6)">l</text><text xml:space="preserve" font-family="CourierNewPS-BoldMT,Courier New" font-weight="bold" font-size="42.0" fill="#7A7A7A" transform="matrix(1.00, 0.00, -0.00, -1.00, 742.4, 564.6)">e</text><text xml:space="preserve" font-family="CourierNewPS-BoldMT,Courier New" font-weight="bold" font-size="42.0" fill="#7A7A7A" transform="matrix(1.00, 0.00, -0.00, -1.00, 767.6, 564.6)">r</text><text xml:space="preserve" font-family="CourierNewPS-BoldMT,Courier New" font-weight="bold" font-size="42.0" fill="#7A7A7A" transform="matrix(1.00, 0.00, -0.00, -1.00, 792.8, 564.6)"> </text><text xml:space="preserve" font-family="CourierNewPS-BoldMT,Courier New" font-weight="bold" font-size="42.0" fill="#7A7A7A" transform="matrix(1.00, 0.00, -0.00, -1.00, 818.0, 564.6)">c</text><text xml:space="preserve" font-family="CourierNewPS-BoldMT,Courier New" font-weight="bold" font-size="42.0" fill="#7A7A7A" transform="matrix(1.00, 0.00, -0.00, -1.00, 843.2, 564.6)">a</text><text xml:space="preserve" font-family="CourierNewPS-BoldMT,Courier New" font-weight="bold" font-size="42.0" fill="#7A7A7A" transform="matrix(1.00, 0.00, -0.00, -1.00, 868.5, 564.6)">n</text><text xml:space="preserve" font-family="CourierNewPS-BoldMT,Courier New" font-weight="bold" font-size="42.0" fill="#7A7A7A" transform="matrix(1.00, 0.00, -0.00, -1.00, 893.7, 564.6)"> </text><text xml:space="preserve" font-family="CourierNewPS-BoldMT,Courier New" font-weight="bold" font-size="42.0" fill="#7A7A7A" transform="matrix(1.00, 0.00, -0.00, -1.00, 87.0, 516.6)">c</text><text xml:space="preserve" font-family="CourierNewPS-BoldMT,Courier New" font-weight="bold" font-size="42.0" fill="#7A7A7A" transform="matrix(1.00, 0.00, -0.00, -1.00, 112.2, 516.6)">o</text><text xml:space="preserve" font-family="CourierNewPS-BoldMT,Courier New" font-weight="bold" font-size="42.0" fill="#7A7A7A" transform="matrix(1.00, 0.00, -0.00, -1.00, 137.4, 516.6)">m</text><text xml:space="preserve" font-family="CourierNewPS-BoldMT,Courier New" font-weight="bold" font-size="42.0" fill="#7A7A7A" transform="matrix(1.00, 0.00, -0.00, -1.00, 162.6, 516.6)">m</text><text xml:space="preserve" font-family="CourierNewPS-BoldMT,Courier New" font-weight="bold" font-size="42.0" fill="#7A7A7A" transform="matrix(1.00, 0.00, -0.00, -1.00, 187.8, 516.6)">u</text><text xml:space="preserve" font-family="CourierNewPS-BoldMT,Courier New" font-weight="bold" font-size="42.0" fill="#7A7A7A" transform="matrix(1.00, 0.00, -0.00, -1.00, 213.0, 516.6)">n</text><text xml:space="preserve" font-family="CourierNewPS-BoldMT,Courier New" font-weight="bold" font-size="42.0" fill="#7A7A7A" transform="matrix(1.00, 0.00, -0.00, -1.00, 238.2, 516.6)">i</text><text xml:space="preserve" font-family="CourierNewPS-BoldMT,Courier New" font-weight="bold" font-size="42.0" fill="#7A7A7A" transform="matrix(1.00, 0.00, -0.00, -1.00, 263.5, 516.6)">c</text><text xml:space="preserve" font-family="CourierNewPS-BoldMT,Courier New" font-weight="bold" font-size="42.0" fill="#7A7A7A" transform="matrix(1.00, 0.00, -0.00, -1.00, 288.7, 516.6)">a</text><text xml:space="preserve" font-family="CourierNewPS-BoldMT,Courier New" font-weight="bold" font-size="42.0" fill="#7A7A7A" transform="matrix(1.00, 0.00, -0.00, -1.00, 313.9, 516.6)">t</text><text xml:space="preserve" font-family="CourierNewPS-BoldMT,Courier New" font-weight="bold" font-size="42.0" fill="#7A7A7A" transform="matrix(1.00, 0.00, -0.00, -1.00, 339.1, 516.6)">e</text><text xml:space="preserve" font-family="CourierNewPS-BoldMT,Courier New" font-weight="bold" font-size="42.0" fill="#7A7A7A" transform="matrix(1.00, 0.00, -0.00, -1.00, 364.3, 516.6)"> </text><text xml:space="preserve" font-family="CourierNewPS-BoldMT,Courier New" font-weight="bold" font-size="42.0" fill="#7A7A7A" transform="matrix(1.00, 0.00, -0.00, -1.00, 389.5, 516.6)">w</text><text xml:space="preserve" font-family="CourierNewPS-BoldMT,Courier New" font-weight="bold" font-size="42.0" fill="#7A7A7A" transform="matrix(1.00, 0.00, -0.00, -1.00, 414.7, 516.6)">i</text><text xml:space="preserve" font-family="CourierNewPS-BoldMT,Courier New" font-weight="bold" font-size="42.0" fill="#7A7A7A" transform="matrix(1.00, 0.00, -0.00, -1.00, 439.9, 516.6)">t</text><text xml:space="preserve" font-family="CourierNewPS-BoldMT,Courier New" font-weight="bold" font-size="42.0" fill="#7A7A7A" transform="matrix(1.00, 0.00, -0.00, -1.00, 465.1, 516.6)">h</text><text xml:space="preserve" font-family="CourierNewPS-BoldMT,Courier New" font-weight="bold" font-size="42.0" fill="#7A7A7A" transform="matrix(1.00, 0.00, -0.00, -1.00, 490.3, 516.6)"> </text><text xml:space="preserve" font-family="CourierNewPS-BoldMT,Courier New" font-weight="bold" font-size="42.0" fill="#7A7A7A" transform="matrix(1.00, 0.00, -0.00, -1.00, 515.5, 516.6)">c</text><text xml:space="preserve" font-family="CourierNewPS-BoldMT,Courier New" font-weight="bold" font-size="42.0" fill="#7A7A7A" transform="matrix(1.00, 0.00, -0.00, -1.00, 540.7, 516.6)">o</text><text xml:space="preserve" font-family="CourierNewPS-BoldMT,Courier New" font-weight="bold" font-size="42.0" fill="#7A7A7A" transform="matrix(1.00, 0.00, -0.00, -1.00, 566.0, 516.6)">m</text><text xml:space="preserve" font-family="CourierNewPS-BoldMT,Courier New" font-weight="bold" font-size="42.0" fill="#7A7A7A" transform="matrix(1.00, 0.00, -0.00, -1.00, 591.2, 516.6)">p</text><text xml:space="preserve" font-family="CourierNewPS-BoldMT,Courier New" font-weight="bold" font-size="42.0" fill="#7A7A7A" transform="matrix(1.00, 0.00, -0.00, -1.00, 616.4, 516.6)">o</text><text xml:space="preserve" font-family="CourierNewPS-BoldMT,Courier New" font-weight="bold" font-size="42.0" fill="#7A7A7A" transform="matrix(1.00, 0.00, -0.00, -1.00, 641.6, 516.6)">n</text><text xml:space="preserve" font-family="CourierNewPS-BoldMT,Courier New" font-weight="bold" font-size="42.0" fill="#7A7A7A" transform="matrix(1.00, 0.00, -0.00, -1.00, 666.8, 516.6)">e</text><text xml:space="preserve" font-family="CourierNewPS-BoldMT,Courier New" font-weight="bold" font-size="42.0" fill="#7A7A7A" transform="matrix(1.00, 0.00, -0.00, -1.00, 692.0, 516.6)">n</text><text xml:space="preserve" font-family="CourierNewPS-BoldMT,Courier New" font-weight="bold" font-size="42.0" fill="#7A7A7A" transform="matrix(1.00, 0.00, -0.00, -1.00, 717.2, 516.6)">t</text><text xml:space="preserve" font-family="CourierNewPS-BoldMT,Courier New" font-weight="bold" font-size="42.0" fill="#7A7A7A" transform="matrix(1.00, 0.00, -0.00, -1.00, 742.4, 516.6)">s</text><text xml:space="preserve" font-family="CourierNewPS-BoldMT,Courier New" font-weight="bold" font-size="42.0" fill="#7A7A7A" transform="matrix(1.00, 0.00, -0.00, -1.00, 767.6, 516.6)">.</text><path d="M 0.8 8.7 L 0.8 9.9 L -0.2 53.7 " fill="none" stroke="#FDC700" stroke-width="3.00" transform="matrix(1.00, 0.00, 0.00, -1.00, 334.7, 81.7)"></path><path d="M 342.0 68.1 L 335.6 81.4 L 328.8 68.3 L 335.5 71.5 Z M 342.0 68.1 " fill="#FDC700"></path><path d="M 0.5 51.0 L 0.5 49.4 L 0.5 0.0 " fill="none" stroke="#BE37F3" stroke-width="3.00" transform="matrix(1.00, 0.00, 0.00, -1.00, 514.0, 443.0)"></path><path d="M 508.0 396.9 L 514.4 383.6 L 521.2 396.7 L 514.5 393.5 Z M 508.0 396.9 " fill="#BE37F3"></path><path d="M 0.5 51.0 L 0.5 49.4 L 0.5 0.0 " fill="none" stroke="#BE37F3" stroke-width="3.00" transform="matrix(1.00, 0.00, 0.00, -1.00, 498.0, 443.0)"></path><path d="M 492.0 396.9 L 498.4 383.6 L 505.2 396.7 L 498.5 393.5 Z M 492.0 396.9 " fill="#BE37F3"></path><path d="M 0.5 51.0 L 0.5 49.4 L 0.5 0.0 " fill="none" stroke="#76BA40" stroke-width="3.00" transform="matrix(1.00, 0.00, 0.00, -1.00, 365.0, 134.0)"></path><path d="M 359.0 87.9 L 365.4 74.6 L 372.2 87.7 L 365.5 84.5 Z M 359.0 87.9 " fill="#76BA40"></path><path d="M 0.5 51.0 L 0.5 49.4 L 0.5 0.0 " fill="none" stroke="#76BA40" stroke-width="3.00" transform="matrix(1.00, 0.00, 0.00, -1.00, 278.0, 443.0)"></path><path d="M 272.0 396.9 L 278.4 383.6 L 285.2 396.7 L 278.5 393.5 Z M 272.0 396.9 " fill="#76BA40"></path><path d="M 0.5 51.0 L 0.5 49.4 L 0.5 0.0 " fill="none" stroke="#76BA40" stroke-width="3.00" transform="matrix(1.00, 0.00, 0.00, -1.00, 378.0, 134.0)"></path><path d="M 372.0 87.9 L 378.4 74.6 L 385.2 87.7 L 378.5 84.5 Z M 372.0 87.9 " fill="#76BA40"></path><path d="M 0.5 8.0 L 0.5 9.9 L 0.5 53.0 " fill="none" stroke="#FDC700" stroke-width="3.00" transform="matrix(1.00, 0.00, 0.00, -1.00, 348.0, 82.0)"></path><path d="M 355.0 69.1 L 348.6 82.4 L 341.8 69.3 L 348.5 72.5 Z M 355.0 69.1 " fill="#FDC700"></path><path d="M 0.5 8.0 L 0.5 9.9 L 0.5 53.0 " fill="none" stroke="#FDC700" stroke-width="3.00" transform="matrix(1.00, 0.00, 0.00, -1.00, 397.0, 82.0)"></path><path d="M 404.0 69.1 L 397.6 82.4 L 390.8 69.3 L 397.5 72.5 Z M 404.0 69.1 " fill="#FDC700"></path></g></svg>